<svg width="72" height="75" viewBox="0 0 72 75" fill="none" xmlns="http://www.w3.org/2000/svg">
<g filter="url(#filter0_d_587_8)">
<ellipse cx="36" cy="35.5199" rx="16" ry="16.9891" fill="white"/>
</g>
<g clip-path="url(#clip0_587_8)">
<path d="M41.6454 29.8642L41.5851 29.8002C41.3724 29.5752 41.0842 29.453 40.785 29.4597C40.4859 29.4657 40.2024 29.6021 39.9992 29.8365L33.8634 36.9431L33.7428 36.9979L33.6253 36.9406L32.103 35.0529C31.8825 34.7807 31.5665 34.618 31.2285 34.6037C30.8903 34.5894 30.5618 34.7267 30.3229 34.9795C29.942 35.3848 29.892 36.0227 30.2055 36.4889L33.346 41.1584C33.5245 41.4239 33.8126 41.5805 34.1198 41.5805H34.3936C34.9103 41.5805 35.3936 41.3126 35.6865 40.8617L41.7849 31.5092C42.1184 30.9977 42.0581 30.3049 41.6454 29.8642Z" fill="#0EBED9"/>
</g>
<defs>
<filter id="filter0_d_587_8" x="0" y="0.530762" width="72" height="73.978" filterUnits="userSpaceOnUse" color-interpolation-filters="sRGB">
<feFlood flood-opacity="0" result="BackgroundImageFix"/>
<feColorMatrix in="SourceAlpha" type="matrix" values="0 0 0 0 0 0 0 0 0 0 0 0 0 0 0 0 0 0 127 0" result="hardAlpha"/>
<feOffset dy="2"/>
<feGaussianBlur stdDeviation="10"/>
<feComposite in2="hardAlpha" operator="out"/>
<feColorMatrix type="matrix" values="0 0 0 0 0.054902 0 0 0 0 0.745098 0 0 0 0 0.85098 0 0 0 0.07 0"/>
<feBlend mode="normal" in2="BackgroundImageFix" result="effect1_dropShadow_587_8"/>
<feBlend mode="normal" in="SourceGraphic" in2="effect1_dropShadow_587_8" result="shape"/>
</filter>
<clipPath id="clip0_587_8">
<rect width="12" height="12.7418" fill="white" transform="translate(30 29.1489)"/>
</clipPath>
</defs>
</svg>
