<svg width="32" height="35" viewBox="0 0 32 35" fill="none" xmlns="http://www.w3.org/2000/svg">
<g clip-path="url(#clip0_301_2668)">
<path d="M18.6023 27.6268C18.2042 27.6268 17.8442 27.3363 17.7508 26.9068L15.6005 17.0193C15.4918 16.5195 15.7853 16.0208 16.256 15.9054C16.7268 15.7899 17.1964 16.1016 17.3052 16.6013L19.4555 26.4889C19.5642 26.9886 19.2707 27.4874 18.8 27.6028C18.7337 27.619 18.6675 27.6268 18.6023 27.6268Z" fill="#0EBED9"/>
<path d="M5.02496 26.1821C4.77514 26.1821 4.52708 26.0691 4.35408 25.8499C4.04383 25.4568 4.09239 24.8709 4.46264 24.5415L6.29164 22.914C6.66189 22.5844 7.21364 22.6362 7.52396 23.0293C7.83421 23.4224 7.78564 24.0082 7.41539 24.3376L5.58639 25.9651C5.42246 26.1109 5.22308 26.1821 5.02496 26.1821Z" fill="#0EBED9"/>
<path d="M9.20644 22.3151C8.96219 22.3151 8.71938 22.2072 8.5465 21.9963C8.22925 21.6094 8.26738 21.0229 8.63169 20.6859L22.5581 7.80767C22.9224 7.47088 23.4748 7.51136 23.7921 7.89813C24.1094 8.28496 24.0713 8.87155 23.707 9.20847L9.7805 22.0867C9.61482 22.2399 9.41013 22.3151 9.20644 22.3151Z" fill="#0EBED9"/>
<path d="M17.6421 19.0014C17.3991 19.0014 17.1573 18.8945 16.9844 18.6852L5.82201 5.17974C5.50338 4.7943 5.53938 4.20738 5.90251 3.86913C6.26557 3.53081 6.81826 3.56903 7.13688 3.95461L18.2993 17.4601C18.618 17.8455 18.5819 18.4324 18.2188 18.7707C18.0528 18.9254 17.847 19.0014 17.6421 19.0014Z" fill="#0EBED9"/>
<path d="M30.4034 17.0785H24.8314C24.3482 17.0785 23.9567 16.6626 23.9567 16.1497C23.9567 15.6368 24.3483 15.2209 24.8314 15.2209H30.4034C30.8865 15.2209 31.2781 15.6368 31.2781 16.1497C31.2781 16.6626 30.8865 17.0785 30.4034 17.0785Z" fill="#0EBED9"/>
<path d="M15.967 22.2258C19.1275 22.2258 21.6895 19.5053 21.6895 16.1495C21.6895 12.7937 19.1275 10.0732 15.967 10.0732C12.8066 10.0732 10.2445 12.7937 10.2445 16.1495C10.2445 19.5053 12.8066 22.2258 15.967 22.2258Z" fill="#CEE8FA"/>
<path d="M15.9672 23.1543C12.3296 23.1543 9.37024 20.012 9.37024 16.1495C9.37024 12.2871 12.3296 9.14478 15.9672 9.14478C19.6047 9.14478 22.5641 12.2871 22.5641 16.1495C22.5641 20.012 19.6047 23.1543 15.9672 23.1543ZM15.9672 11.0023C13.2942 11.0023 11.1196 13.3112 11.1196 16.1495C11.1196 18.9878 13.2942 21.2968 15.9672 21.2968C18.6401 21.2968 20.8147 18.9878 20.8147 16.1495C20.8147 13.3112 18.6401 11.0023 15.9672 11.0023Z" fill="#0EBED9"/>
<path d="M6.47992 7.09143C7.79297 7.09143 8.85742 5.96118 8.85742 4.56695C8.85742 3.17273 7.79297 2.04248 6.47992 2.04248C5.16686 2.04248 4.10242 3.17273 4.10242 4.56695C4.10242 5.96118 5.16686 7.09143 6.47992 7.09143Z" fill="#CEE8FA"/>
<path d="M6.47973 8.02059C4.68629 8.02059 3.22729 6.47139 3.22729 4.56709C3.22729 2.66278 4.68629 1.11353 6.47973 1.11353C8.27317 1.11353 9.73223 2.66285 9.73223 4.56709C9.73223 6.47133 8.27311 8.02059 6.47973 8.02059ZM6.47973 2.97111C5.65092 2.97111 4.97673 3.68711 4.97673 4.56716C4.97673 5.4472 5.65098 6.16307 6.47973 6.16307C7.30854 6.16307 7.98286 5.44714 7.98286 4.56716C7.98286 3.68717 7.30848 2.97111 6.47973 2.97111Z" fill="#0EBED9"/>
<path d="M19.1798 33.1629C17.2661 33.1629 15.7092 31.5098 15.7092 29.4778C15.7092 27.4458 17.2661 25.7927 19.1798 25.7927C21.0935 25.7927 22.6504 27.4458 22.6504 29.4778C22.6504 31.5098 21.0935 33.1629 19.1798 33.1629ZM19.1798 27.6502C18.2307 27.6502 17.4586 28.4701 17.4586 29.4778C17.4586 30.4856 18.2307 31.3054 19.1798 31.3054C20.1289 31.3054 20.901 30.4856 20.901 29.4778C20.901 28.4701 20.1289 27.6502 19.1798 27.6502Z" fill="#0EBED9"/>
<path d="M24.446 9.93221C23.0006 9.93221 21.8246 8.68358 21.8246 7.14872C21.8246 5.61386 23.0005 4.36523 24.446 4.36523C25.8915 4.36523 27.0675 5.61386 27.0675 7.14872C27.0675 8.68358 25.8915 9.93221 24.446 9.93221ZM24.446 6.22295C23.9652 6.22295 23.574 6.63832 23.574 7.14885C23.574 7.65939 23.9652 8.07476 24.446 8.07476C24.9268 8.07476 25.318 7.65939 25.318 7.14885C25.318 6.63832 24.9268 6.22295 24.446 6.22295Z" fill="#0EBED9"/>
<path d="M28.9601 18.4491C30.1561 18.4491 31.1257 17.4196 31.1257 16.1496C31.1257 14.8796 30.1561 13.8501 28.9601 13.8501C27.764 13.8501 26.7944 14.8796 26.7944 16.1496C26.7944 17.4196 27.764 18.4491 28.9601 18.4491Z" fill="#CEE8FA"/>
<path d="M28.9597 19.3779C27.2833 19.3779 25.9194 17.9298 25.9194 16.1497C25.9194 14.3696 27.2833 12.9214 28.9597 12.9214C30.6362 12.9214 32.0001 14.3695 32.0001 16.1497C32.0001 17.9297 30.6362 19.3779 28.9597 19.3779ZM28.9597 14.7789C28.2479 14.7789 27.6689 15.3938 27.6689 16.1496C27.6689 16.9054 28.2479 17.5203 28.9597 17.5203C29.6716 17.5203 30.2506 16.9054 30.2506 16.1496C30.2506 15.3938 29.6716 14.7789 28.9597 14.7789Z" fill="#0EBED9"/>
<path d="M3.25165 29.5614C4.5647 29.5614 5.62915 28.4312 5.62915 27.0369C5.62915 25.6427 4.5647 24.5125 3.25165 24.5125C1.93859 24.5125 0.874146 25.6427 0.874146 27.0369C0.874146 28.4312 1.93859 29.5614 3.25165 29.5614Z" fill="#CEE8FA"/>
<path d="M3.2525 30.4908C1.45913 30.4908 0 28.9415 0 27.0373C0 25.1331 1.45913 23.5837 3.2525 23.5837C5.04588 23.5837 6.505 25.1331 6.505 27.0373C6.505 28.9416 5.04594 30.4908 3.2525 30.4908ZM3.2525 25.4413C2.42362 25.4413 1.74937 26.1573 1.74937 27.0374C1.74937 27.9174 2.42362 28.6333 3.2525 28.6333C4.08138 28.6333 4.75562 27.9174 4.75562 27.0374C4.75562 26.1573 4.08131 25.4413 3.2525 25.4413Z" fill="#0EBED9"/>
</g>
<defs>
<clipPath id="clip0_301_2668">
<rect width="32" height="33.9782" fill="white" transform="translate(0 0.14917)"/>
</clipPath>
</defs>
</svg>
