<svg width="30" height="33" viewBox="0 0 30 33" fill="none" xmlns="http://www.w3.org/2000/svg">
<g clip-path="url(#clip0_301_2701)">
<path d="M18.6252 31.3388H3.38629C2.16274 31.3388 1.06763 30.6667 0.456911 29.5409C-0.153809 28.415 -0.151875 27.072 0.462126 25.9482L5.75863 16.2528C5.78746 16.2001 5.80269 16.1397 5.80269 16.0786V8.40321C5.80269 7.90909 6.18003 7.50854 6.64527 7.50854C7.1105 7.50854 7.48784 7.90909 7.48784 8.40321V16.0787C7.48784 16.4547 7.39397 16.8252 7.21638 17.1505L1.91982 26.846C1.61191 27.4096 1.61091 28.0832 1.91718 28.6477C2.22345 29.2124 2.77259 29.5494 3.38624 29.5494H18.6251C19.0904 29.5494 19.4677 29.95 19.4677 30.4441C19.4677 30.9382 19.0905 31.3388 18.6252 31.3388Z" fill="#0EBED9"/>
<path d="M12.8382 16.0785C12.3729 16.0785 11.9956 15.678 11.9956 15.1838V8.40321C11.9956 7.90909 12.3729 7.50854 12.8382 7.50854C13.3035 7.50854 13.6808 7.90909 13.6808 8.40321V15.1838C13.6808 15.678 13.3035 16.0785 12.8382 16.0785Z" fill="#0EBED9"/>
<path d="M17.1459 24.2983H2.33703L1.19065 26.3967C0.209208 28.1933 1.42995 30.4437 3.38597 30.4437H21.3457L17.1459 24.2983Z" fill="#CEE8FA"/>
<path d="M21.346 31.3389H3.38629C2.16274 31.3389 1.06763 30.6667 0.456911 29.5409C-0.153809 28.4151 -0.151875 27.072 0.462126 25.9482L1.60839 23.8498C1.75915 23.5738 2.03683 23.4041 2.33724 23.4041H17.1461C17.416 23.4041 17.6695 23.5413 17.8281 23.7733L22.0279 29.9187C22.214 30.1909 22.2405 30.5509 22.0966 30.8506C21.9528 31.1502 21.6627 31.3389 21.346 31.3389ZM2.82268 25.1934L1.91993 26.8461C1.61202 27.4096 1.61103 28.0832 1.9173 28.6478C2.22356 29.2124 2.7727 29.5495 3.38635 29.5495H19.6935L16.7166 25.1934H2.82268Z" fill="#0EBED9"/>
<path d="M25.5774 31.3388H17.4027C17.2434 31.3388 17.0876 31.291 16.9529 31.2007C14.465 29.533 12.9797 26.6748 12.9797 23.555C12.9797 20.2576 14.672 17.2216 17.3962 15.6317C17.4902 15.5769 17.551 15.4608 17.551 15.3361V8.40321C17.551 7.90909 17.9284 7.50854 18.3936 7.50854C18.8588 7.50854 19.2362 7.90909 19.2362 8.40321V15.3361C19.2362 16.1155 18.8422 16.8296 18.208 17.1999C16.0226 18.4752 14.6649 20.9104 14.6649 23.555C14.6649 25.973 15.7779 28.1953 17.654 29.5495H25.3262C27.2023 28.1953 28.3151 25.973 28.3151 23.555C28.3151 23.0609 28.6925 22.6604 29.1577 22.6604C29.623 22.6604 30.0003 23.0609 30.0003 23.555C30.0003 26.6749 28.5151 29.5331 26.0272 31.2008C25.8925 31.291 25.7365 31.3388 25.5774 31.3388Z" fill="#0EBED9"/>
<path d="M24.5862 15.3361C24.1209 15.3361 23.7437 14.9355 23.7437 14.4414V8.40321C23.7437 7.90909 24.121 7.50854 24.5862 7.50854C25.0515 7.50854 25.4288 7.90909 25.4288 8.40321V14.4414C25.4288 14.9355 25.0515 15.3361 24.5862 15.3361Z" fill="#0EBED9"/>
<path d="M14.5748 20.0339C14.0925 21.0995 13.822 22.2935 13.822 23.5549C13.822 26.4558 15.2512 29.002 17.4024 30.4441H25.577C27.7281 29.0021 29.1573 26.4558 29.1573 23.5549C29.1573 22.4894 28.9643 21.472 28.6137 20.5394C28.5493 20.368 28.4795 20.1994 28.4047 20.034H14.5748V20.0339Z" fill="#CEE8FA"/>
<path d="M25.5769 31.3387H17.4022C17.2429 31.3387 17.0871 31.2908 16.9524 31.2005C14.4645 29.5328 12.9792 26.6747 12.9792 23.5548C12.9792 22.1871 13.2605 20.8721 13.8151 19.6463C13.9554 19.3363 14.2506 19.1392 14.5746 19.1392H28.4044C28.7283 19.1392 29.0236 19.3363 29.1639 19.6463C29.2469 19.8298 29.325 20.0186 29.3962 20.2076C29.7967 21.273 29.9998 22.3991 29.9998 23.5547C29.9998 26.6745 28.5146 29.5328 26.0267 31.2005C25.892 31.2908 25.736 31.3387 25.5769 31.3387ZM17.6534 29.5493H25.3256C27.2016 28.1951 28.3145 25.9727 28.3145 23.5548C28.3145 22.6483 28.159 21.765 27.8523 20.9285H15.1264C14.8196 21.7632 14.6645 22.6441 14.6645 23.5548C14.6645 25.9727 15.7773 28.1951 17.6534 29.5493Z" fill="#0EBED9"/>
<path d="M25.8501 9.29787H24.5784C24.1131 9.29787 23.7358 8.89732 23.7358 8.40321C23.7358 7.90909 24.1132 7.50854 24.5784 7.50854H25.8501C26.3154 7.50854 26.6926 7.90909 26.6926 8.40321C26.6926 8.89732 26.3154 9.29787 25.8501 9.29787Z" fill="#0EBED9"/>
<path d="M20.9833 9.29787H17.1294C16.6641 9.29787 16.2869 8.89732 16.2869 8.40321C16.2869 7.90909 16.6642 7.50854 17.1294 7.50854H20.9833C21.4486 7.50854 21.8259 7.90909 21.8259 8.40321C21.8259 8.89732 21.4486 9.29787 20.9833 9.29787Z" fill="#0EBED9"/>
<path d="M14.102 9.29787H12.8379C12.3726 9.29787 11.9954 8.89732 11.9954 8.40321C11.9954 7.90909 12.3727 7.50854 12.8379 7.50854H14.102C14.5673 7.50854 14.9445 7.90909 14.9445 8.40321C14.9445 8.89732 14.5673 9.29787 14.102 9.29787Z" fill="#0EBED9"/>
<path d="M9.15885 9.29787H5.38115C4.91586 9.29787 4.53857 8.89732 4.53857 8.40321C4.53857 7.90909 4.91592 7.50854 5.38115 7.50854H9.15885C9.62414 7.50854 10.0014 7.90909 10.0014 8.40321C10.0014 8.89732 9.62414 9.29787 9.15885 9.29787Z" fill="#0EBED9"/>
<path d="M11.0949 6.17456C9.73515 6.17456 8.62891 4.99993 8.62891 3.55615C8.62891 2.11238 9.73515 0.937744 11.0949 0.937744C12.4547 0.937744 13.5609 2.11238 13.5609 3.55615C13.5609 4.99993 12.4547 6.17456 11.0949 6.17456ZM11.0949 2.72713C10.6644 2.72713 10.3141 3.09905 10.3141 3.55615C10.3141 4.01325 10.6644 4.38518 11.0949 4.38518C11.5255 4.38518 11.8757 4.01325 11.8757 3.55615C11.8757 3.09905 11.5255 2.72713 11.0949 2.72713Z" fill="#0EBED9"/>
<path d="M19.0561 27.3667C17.6963 27.3667 16.5901 26.1921 16.5901 24.7483C16.5901 23.3045 17.6963 22.1299 19.0561 22.1299C20.4158 22.1299 21.522 23.3045 21.522 24.7483C21.522 26.1921 20.4158 27.3667 19.0561 27.3667ZM19.0561 23.9194C18.6256 23.9194 18.2753 24.2913 18.2753 24.7484C18.2753 25.2055 18.6255 25.5774 19.0561 25.5774C19.4866 25.5774 19.8368 25.2055 19.8368 24.7484C19.8368 24.2912 19.4865 23.9194 19.0561 23.9194Z" fill="#0EBED9"/>
</g>
<defs>
<clipPath id="clip0_301_2701">
<rect width="30" height="31.8545" fill="white" transform="translate(0 0.210938)"/>
</clipPath>
</defs>
</svg>
