<svg width="32" height="35" viewBox="0 0 32 35" fill="none" xmlns="http://www.w3.org/2000/svg">
<g clip-path="url(#clip0_301_2758)">
<path d="M18.1035 14.3068H3.00345C2.5022 14.3068 2.09595 13.8754 2.09595 13.3432C2.09595 12.811 2.50226 12.3796 3.00345 12.3796H18.1035C18.6046 12.3796 19.011 12.8111 19.011 13.3432C19.011 13.8754 18.6048 14.3068 18.1035 14.3068Z" fill="#0EBED9"/>
<path d="M18.1943 22.6679H3.00345C2.5022 22.6679 2.09595 22.2365 2.09595 21.7043C2.09595 21.1722 2.50226 20.7407 3.00345 20.7407H18.1943C18.6954 20.7407 19.1018 21.1722 19.1018 21.7043C19.1018 22.2365 18.6955 22.6679 18.1943 22.6679Z" fill="#0EBED9"/>
<path d="M18.1943 31.029H3.00345C2.5022 31.029 2.09595 30.5976 2.09595 30.0654C2.09595 29.5332 2.50226 29.1018 3.00345 29.1018H18.1943C18.6954 29.1018 19.1018 29.5332 19.1018 30.0654C19.1018 30.5976 18.6955 31.029 18.1943 31.029Z" fill="#0EBED9"/>
<path d="M28.9962 14.3068H25.6226C25.1215 14.3068 24.7151 13.8754 24.7151 13.3432C24.7151 12.811 25.1215 12.3796 25.6226 12.3796H28.9962C29.4973 12.3796 29.9037 12.8111 29.9037 13.3432C29.9038 13.8754 29.4975 14.3068 28.9962 14.3068Z" fill="#0EBED9"/>
<path d="M28.9961 22.6679H26.0764C25.5753 22.6679 25.1689 22.2365 25.1689 21.7043C25.1689 21.1722 25.5753 20.7407 26.0764 20.7407H28.9962C29.4973 20.7407 29.9037 21.1722 29.9037 21.7043C29.9037 22.2365 29.4974 22.6679 28.9961 22.6679Z" fill="#0EBED9"/>
<path d="M28.9961 31.029H26.0764C25.5753 31.029 25.1689 30.5976 25.1689 30.0654C25.1689 29.5332 25.5753 29.1018 26.0764 29.1018H28.9962C29.4973 29.1018 29.9037 29.5332 29.9037 30.0654C29.9037 30.5976 29.4974 31.029 28.9961 31.029Z" fill="#0EBED9"/>
<path d="M21.7361 28.3774C21.6989 28.3774 21.6614 28.375 21.6241 28.37L18.0822 27.9022C17.6278 27.8422 17.2866 27.4322 17.2866 26.946V1.4763C17.2866 0.944059 17.693 0.512695 18.1941 0.512695C18.6952 0.512695 19.1016 0.944125 19.1016 1.4763V26.0947L20.8284 26.3228V6.92933C20.8284 6.39709 21.2348 5.96573 21.7359 5.96573C22.2371 5.96573 22.6434 6.39716 22.6434 6.92933V27.4136C22.6434 27.6899 22.5318 27.9529 22.3367 28.1358C22.1701 28.2924 21.9561 28.3774 21.7361 28.3774Z" fill="#0EBED9"/>
<path d="M16.4231 33.5274C19.3571 33.5274 21.7356 31.0019 21.7356 27.8865C21.7356 24.7711 19.3571 22.2456 16.4231 22.2456C13.4891 22.2456 11.1106 24.7711 11.1106 27.8865C11.1106 31.0019 13.4891 33.5274 16.4231 33.5274Z" fill="#CEE8FA"/>
<path d="M16.4234 34.4908C12.9936 34.4908 10.2031 31.5279 10.2031 27.886C10.2031 24.2442 12.9936 21.2812 16.4234 21.2812C19.8532 21.2812 22.6437 24.2442 22.6437 27.886C22.6437 31.5279 19.8533 34.4908 16.4234 34.4908ZM16.4234 23.2085C13.9943 23.2085 12.0182 25.3068 12.0182 27.886C12.0182 30.4652 13.9943 32.5635 16.4234 32.5635C18.8526 32.5635 20.8287 30.4652 20.8287 27.886C20.8287 25.3068 18.8526 23.2085 16.4234 23.2085Z" fill="#0EBED9"/>
<path d="M27.5813 18.3076C27.0802 18.3076 26.6738 17.8762 26.6738 17.344V16.3591C26.6738 15.4661 26.1761 14.6577 25.4056 14.2995L23.1837 13.2665C21.7531 12.6013 20.8286 11.1 20.8286 9.44153V8.60349C20.8286 8.07126 21.235 7.63989 21.7361 7.63989C22.2372 7.63989 22.6436 8.07132 22.6436 8.60349V9.44153C22.6436 10.3345 23.1413 11.1429 23.9117 11.5011L26.1336 12.5341C27.5644 13.1993 28.4887 14.7007 28.4887 16.3591V17.344C28.4888 17.8762 28.0824 18.3076 27.5813 18.3076Z" fill="#0EBED9"/>
</g>
<defs>
<clipPath id="clip0_301_2758">
<rect width="32" height="33.9782" fill="white" transform="translate(0 0.512695)"/>
</clipPath>
</defs>
</svg>
