<svg width="32" height="35" viewBox="0 0 32 35" fill="none" xmlns="http://www.w3.org/2000/svg">
<g clip-path="url(#clip0_301_2772)">
<path d="M20.7047 18.3277H11.2956C9.26402 18.3277 7.61121 16.5727 7.61121 14.4155V4.4249C7.61127 2.26775 9.26402 0.512695 11.2956 0.512695H16.0001H18.3523H20.7046C22.7361 0.512695 24.389 2.26775 24.389 4.4249V14.4155C24.389 16.5727 22.7363 18.3277 20.7047 18.3277ZM11.2956 2.34267C10.2143 2.34267 9.33464 3.27681 9.33464 4.4249V14.4155C9.33464 15.5637 10.2143 16.4978 11.2956 16.4978H20.7046C21.7859 16.4978 22.6655 15.5636 22.6655 14.4155V4.4249C22.6655 3.27674 21.7859 2.34267 20.7046 2.34267H18.3523H16.0001H11.2956Z" fill="#0EBED9"/>
<path d="M15.1477 5.07812H16.8526L19.8361 13.7625H17.9008L17.2672 11.8177H14.7215L14.0994 13.7625H12.1642L15.1477 5.07812ZM16.9562 10.4355L16.0002 7.36535L15.021 10.4355H16.9562V10.4355Z" fill="#0EBED9"/>
<path d="M13.1362 33.5758H3.72717C2.16823 33.5758 0.904419 32.2339 0.904419 30.5786V20.5881C0.904419 18.9328 2.16823 17.5908 3.72717 17.5908H13.1362C14.6951 17.5908 15.9589 18.9328 15.9589 20.5881V30.5787C15.9589 32.234 14.6951 33.5758 13.1362 33.5758Z" fill="#CEE8FA"/>
<path d="M13.1359 34.4909H3.72692C1.69536 34.4909 0.0424805 32.7358 0.0424805 30.5787V20.588C0.0424805 18.4308 1.69536 16.6758 3.72692 16.6758H13.1359C15.1675 16.6758 16.8204 18.4308 16.8204 20.588V30.5786C16.8204 32.7358 15.1675 34.4909 13.1359 34.4909ZM3.72692 18.5058C2.64561 18.5058 1.76592 19.4399 1.76592 20.588V30.5786C1.76592 31.7268 2.64554 32.6609 3.72692 32.6609H13.1359C14.2172 32.6609 15.0969 31.7267 15.0969 30.5786V20.588C15.0969 19.4398 14.2173 18.5058 13.1359 18.5058H3.72692Z" fill="#0EBED9"/>
<path d="M11.8124 27.6996C11.8124 28.0748 11.7393 28.401 11.5935 28.6782C11.4475 28.9555 11.2479 29.1858 10.9945 29.3693C10.7411 29.5528 10.4453 29.6915 10.1075 29.7852C9.76941 29.8789 9.41235 29.9259 9.03616 29.9259H5.05066V21.2415H9.60078C9.88478 21.2415 10.1422 21.3069 10.3725 21.4372C10.603 21.5677 10.7987 21.7369 10.96 21.9448C11.1213 22.1528 11.246 22.3893 11.3343 22.6543C11.4226 22.9195 11.4668 23.1906 11.4668 23.4676C11.4668 23.8836 11.369 24.275 11.1731 24.6419C10.9772 25.0089 10.6835 25.2862 10.2918 25.4737C10.7602 25.6204 11.1308 25.8815 11.4035 26.2566C11.676 26.6314 11.8124 27.1124 11.8124 27.6996ZM6.93978 22.9538V24.7518H8.79435C9.00166 24.7518 9.18597 24.6784 9.34728 24.5317C9.50853 24.385 9.58916 24.1567 9.58916 23.8466C9.58916 23.5614 9.5181 23.3412 9.37603 23.1862C9.23385 23.0313 9.06303 22.9537 8.86341 22.9537H6.93972V22.9538H6.93978ZM9.88872 27.2959C9.88872 27.027 9.81566 26.7987 9.66985 26.611C9.52385 26.4235 9.33953 26.3296 9.11691 26.3296H6.93978V28.2256H9.03635C9.28203 28.2256 9.48553 28.1399 9.64685 27.9687C9.8081 27.7975 9.88872 27.5733 9.88872 27.2959Z" fill="#0EBED9"/>
<path d="M28.273 34.4909H18.864C16.8324 34.4909 15.1796 32.7358 15.1796 30.5787V20.588C15.1796 18.4308 16.8324 16.6758 18.864 16.6758H28.273C30.3046 16.6758 31.9574 18.4308 31.9574 20.588V30.5786C31.9574 32.7358 30.3046 34.4909 28.273 34.4909ZM18.864 18.5058C17.7827 18.5058 16.903 19.4399 16.903 20.588V30.5786C16.903 31.7268 17.7826 32.6609 18.864 32.6609H28.273C29.3543 32.6609 30.234 31.7267 30.234 30.5786V20.588C30.234 19.4398 29.3544 18.5058 28.273 18.5058H18.864Z" fill="#0EBED9"/>
<path d="M19.8418 25.4976C19.8418 24.9759 19.9339 24.4561 20.1182 23.9381C20.3025 23.4204 20.5713 22.9576 20.9246 22.5499C21.2777 22.1423 21.7079 21.812 22.2148 21.5591C22.7217 21.3064 23.2975 21.1799 23.9427 21.1799C24.7106 21.1799 25.3769 21.3554 25.9413 21.7059C26.5057 22.0567 26.9262 22.5131 27.2027 23.0759L25.7513 24.1523C25.6592 23.9241 25.5419 23.7345 25.3999 23.5836C25.2577 23.4328 25.1022 23.3104 24.9333 23.2166C24.7642 23.1231 24.5914 23.0577 24.4149 23.0209C24.2381 22.9842 24.0654 22.9659 23.8964 22.9659C23.5354 22.9659 23.2206 23.0435 22.9519 23.1983C22.683 23.3534 22.4604 23.553 22.2837 23.7977C22.107 24.0423 21.9765 24.3196 21.8921 24.6294C21.8075 24.9394 21.7654 25.2532 21.7654 25.5712C21.7654 25.9137 21.8153 26.244 21.9152 26.562C22.0149 26.8801 22.1589 27.1614 22.3472 27.4059C22.5353 27.6507 22.7619 27.8444 23.0268 27.9869C23.2918 28.1297 23.5892 28.201 23.9196 28.201C24.0884 28.201 24.2632 28.1787 24.4437 28.1338C24.6241 28.0891 24.7969 28.0197 24.9621 27.9258C25.1271 27.8322 25.2789 27.7098 25.4171 27.5589C25.5554 27.4081 25.6665 27.2224 25.7512 27.0023L27.2947 27.9687C27.1718 28.2867 26.9894 28.5721 26.7475 28.8248C26.5057 29.0777 26.2272 29.2896 25.9124 29.4609C25.5974 29.6321 25.2633 29.7626 24.9102 29.8523C24.5569 29.9419 24.2112 29.9869 23.8734 29.9869C23.2819 29.9869 22.7388 29.8584 22.2435 29.6015C21.7482 29.3447 21.3219 29.0043 20.9648 28.5802C20.6077 28.1563 20.3312 27.675 20.1354 27.1369C19.9397 26.5985 19.8418 26.0523 19.8418 25.4976Z" fill="#0EBED9"/>
</g>
<defs>
<clipPath id="clip0_301_2772">
<rect width="32" height="33.9782" fill="white" transform="translate(0 0.512695)"/>
</clipPath>
</defs>
</svg>
