<svg width="30" height="33" viewBox="0 0 30 33" fill="none" xmlns="http://www.w3.org/2000/svg">
<g clip-path="url(#clip0_301_2788)">
<path d="M10.8992 22.1965C9.17138 23.8604 6.57149 24.4122 5.14598 25.312C2.69404 22.8849 1.11876 19.4727 0.980835 15.6687C1.83741 15.3294 2.66843 14.9115 3.13688 14.4392C4.38521 13.1787 5.35873 12.7588 6.21161 14.4392C7.06362 16.1197 7.45906 17.6071 8.95125 17.8651C10.4426 18.1239 13.1822 19.9983 10.8992 22.1965Z" fill="#CEE8FA"/>
<path d="M14.8004 14.1675C14.6044 15.9292 14.7167 17.688 16.1821 18.9784C16.2032 18.997 16.2223 19.0168 16.2418 19.0364C16.4638 18.7329 16.7042 18.4414 16.9649 18.1647C18.3786 16.6635 20.2019 15.7888 22.0008 15.2883C21.1111 14.1713 20.1768 9.96861 17.0369 11.6636C16.3798 12.0184 16.1418 6.96561 16.2834 6.77343C17.6361 4.90511 18.7654 4.09109 20.834 3.33766C20.8894 3.31663 20.9335 3.28366 20.98 3.25056C18.9775 1.93906 16.6216 1.18091 14.0954 1.18091C11.3196 1.18091 8.74702 2.09827 6.62537 3.66149C6.63667 3.71562 6.65197 3.77142 6.67406 3.82312C7.56907 5.87231 8.72276 9.35007 10.69 10.1503C11.6444 10.5396 15.0847 11.611 14.8004 14.1675Z" fill="#CEE8FA"/>
<path d="M17.0843 19.4705C17.1564 19.3768 17.2304 19.2842 17.3066 19.1935C17.3232 19.1736 17.3402 19.1542 17.3569 19.1346C17.4394 19.0382 17.5233 18.943 17.6105 18.8503C17.6765 18.7803 17.7441 18.7116 17.813 18.6437C17.834 18.623 17.8555 18.603 17.8766 18.5826C17.9254 18.5355 17.9746 18.4888 18.0248 18.4428C18.0497 18.4201 18.0748 18.3977 18.0998 18.3753C18.1488 18.3315 18.1984 18.2883 18.2486 18.2454C18.2733 18.2243 18.2981 18.2031 18.3231 18.1824C18.3799 18.1352 18.4376 18.0888 18.496 18.0429C18.5145 18.0283 18.5327 18.0134 18.5512 17.9991C18.6283 17.9394 18.7066 17.8809 18.7864 17.8234C18.8027 17.8116 18.8194 17.8005 18.8359 17.7887C18.899 17.7439 18.9627 17.6997 19.0275 17.6563C19.0563 17.6369 19.0854 17.6179 19.1144 17.599C19.1686 17.5635 19.2234 17.5285 19.2787 17.4939C19.3103 17.4743 19.3417 17.4545 19.3735 17.4352C19.4345 17.3981 19.4965 17.3617 19.5589 17.3257C19.5998 17.3021 19.6406 17.2788 19.6816 17.2559C19.744 17.221 19.807 17.1865 19.8709 17.1526C19.9152 17.1292 19.9598 17.1063 20.0045 17.0835C20.0457 17.0624 20.0873 17.0415 20.1291 17.0209C20.1795 16.9959 20.23 16.9711 20.2808 16.9471C20.3102 16.9331 20.3401 16.9196 20.3696 16.9059C20.4856 16.8523 20.6021 16.8006 20.7195 16.7511C20.7335 16.7452 20.7475 16.7391 20.7617 16.7332C20.8326 16.7036 20.9039 16.6748 20.9752 16.6468C20.9823 16.644 20.9895 16.6412 20.9966 16.6384C24.6916 15.1937 28.8489 15.7279 28.9126 15.7366C29.4122 15.8051 29.8703 15.4308 29.9352 14.8999C30.0003 14.3689 29.6475 13.8824 29.1473 13.8134C29.078 13.8038 28.6876 13.7526 28.0724 13.7177C27.6641 9.07355 25.2367 4.90028 21.4597 2.42524C21.4579 2.42406 21.4561 2.42294 21.4544 2.42175C21.4469 2.41684 21.4382 2.41136 21.4287 2.40545C21.3769 2.37111 21.3242 2.3377 21.2693 2.30299C21.258 2.29552 21.2464 2.28805 21.2336 2.28009C21.2309 2.27835 21.2281 2.27661 21.2254 2.27493C21.169 2.24002 21.1125 2.205 21.053 2.16872C20.9848 2.12729 20.9165 2.08691 20.8468 2.04629C20.7865 2.01107 20.7261 1.97667 20.6657 1.94232C20.6537 1.93504 20.6415 1.92808 20.6292 1.9213L20.5782 1.89336C20.5282 1.86599 20.4787 1.83886 20.4285 1.81217C20.223 1.70024 20.0054 1.5905 19.7857 1.48803C19.7136 1.45387 19.6414 1.42071 19.5684 1.38755L19.5664 1.38668C19.5641 1.38562 19.5618 1.38456 19.5595 1.38351C19.1134 1.1833 18.6612 1.00854 18.2179 0.865006C18.1421 0.840306 18.0655 0.81654 17.9898 0.793085C17.8576 0.752085 17.7284 0.714569 17.6056 0.681658C17.5696 0.671454 17.5335 0.66206 17.4952 0.652105C17.4257 0.633752 17.3563 0.616207 17.288 0.59916C17.2074 0.578878 17.1257 0.559591 17.0472 0.542047L17.0307 0.538252C16.9661 0.523507 16.9022 0.509073 16.8376 0.496256L16.712 0.469877C16.6279 0.45283 16.5427 0.436903 16.4653 0.42334C16.3309 0.398641 16.1965 0.376803 16.062 0.356023C16.0586 0.355526 16.0552 0.354966 16.0518 0.354468L16.0288 0.351171C15.9645 0.342025 15.9009 0.333066 15.8378 0.324916C15.7523 0.313841 15.6671 0.303763 15.5815 0.293621C15.5774 0.293124 15.5734 0.29275 15.5694 0.292253L15.4235 0.277197C15.253 0.260523 15.0971 0.247707 14.9543 0.238623C14.9072 0.235201 14.8601 0.232775 14.8086 0.230411C14.753 0.227487 14.6972 0.224687 14.6408 0.222634C14.6324 0.222136 14.6242 0.222136 14.6159 0.221763C14.5926 0.220892 14.5693 0.220145 14.5461 0.219212C14.5169 0.218217 14.4876 0.216599 14.4586 0.216101C14.4537 0.215977 14.4487 0.215977 14.4437 0.215977C14.3938 0.214048 14.3439 0.213053 14.2994 0.213053C14.2435 0.212182 14.1872 0.211809 14.1309 0.211622C14.119 0.211622 14.1071 0.210938 14.0952 0.210938C14.087 0.210938 14.0789 0.211435 14.0706 0.211435C13.9887 0.21156 13.9079 0.212306 13.8313 0.214173C13.781 0.215044 13.7316 0.217657 13.6817 0.219212C13.6191 0.221141 13.5565 0.222696 13.494 0.225496C13.4862 0.225869 13.4781 0.225869 13.4703 0.226242C13.4026 0.228482 13.3348 0.232651 13.2666 0.236881C13.1927 0.241547 13.119 0.24696 13.0457 0.252373C13.0343 0.253244 13.0229 0.25399 13.0115 0.254986C13.0083 0.255297 13.0051 0.255484 13.002 0.255857C12.9972 0.25623 12.9924 0.256603 12.9875 0.257101C12.9108 0.263136 12.8351 0.270664 12.7584 0.278441C12.7385 0.280059 12.7184 0.282049 12.6986 0.284476C12.6413 0.2902 12.5838 0.296857 12.5265 0.303763C12.5059 0.306189 12.4854 0.308615 12.465 0.311104C12.4555 0.312286 12.4465 0.313344 12.4363 0.314775C12.2765 0.334248 12.129 0.355215 11.9865 0.378607C11.9718 0.380909 11.957 0.38346 11.9422 0.385887L11.9441 0.385513C11.9299 0.387629 11.9155 0.389993 11.9016 0.392481C11.7805 0.412639 11.6599 0.434974 11.5394 0.458492L11.4982 0.466829C11.4562 0.475165 11.4141 0.484062 11.3721 0.492835C11.3009 0.507766 11.2289 0.523196 11.1522 0.540554L11.0787 0.557352C11.0581 0.562204 11.0376 0.567617 11.0169 0.57247C10.9548 0.587215 10.8929 0.60252 10.8311 0.618136C10.7996 0.626099 10.7678 0.633254 10.7364 0.641404C10.7323 0.642462 10.7261 0.644017 10.7234 0.644826C10.6292 0.669526 10.5351 0.695221 10.4416 0.722097C10.409 0.73143 10.3767 0.741509 10.3442 0.75109C10.2226 0.786864 10.1014 0.824504 9.9809 0.863761C9.93742 0.877946 9.89395 0.892069 9.85065 0.906628C9.73346 0.946197 9.61698 0.987694 9.50091 1.03056C9.45104 1.04891 9.40106 1.06702 9.35143 1.08599C9.23729 1.12973 9.1238 1.1754 9.01083 1.22225C8.95001 1.24738 8.88937 1.27276 8.8289 1.29883C8.72408 1.34412 8.61978 1.39066 8.51601 1.43857C8.44945 1.4693 8.38307 1.50084 8.31691 1.53264C8.22697 1.576 8.13739 1.62017 8.04832 1.66559C7.97227 1.70429 7.89663 1.74392 7.8211 1.78411C7.74897 1.8225 7.67725 1.86169 7.60583 1.90145C7.51987 1.94923 7.43433 1.99782 7.34919 2.04759C7.27238 2.09239 7.19603 2.13805 7.12009 2.18434C7.0506 2.22671 6.9814 2.26958 6.9125 2.31331C6.81928 2.37236 6.72676 2.4327 6.63477 2.49405C6.59475 2.5208 6.55461 2.54699 6.51488 2.57412C6.39571 2.6555 6.27793 2.73936 6.16104 2.82447C6.14241 2.83804 6.12331 2.85067 6.10479 2.86435C6.09841 2.86908 6.09249 2.87437 6.08616 2.87916C4.96305 3.70886 3.95068 4.71127 3.09346 5.85796C1.10675 8.51561 0.0566406 11.7176 0.0566406 15.1179C0.0566406 15.3059 0.0600976 15.4977 0.067246 15.7043C0.0677733 15.7206 0.0687694 15.7367 0.0699998 15.7527C0.0724607 15.8146 0.0762107 15.8762 0.0794333 15.9379C0.08207 15.9904 0.0841794 16.043 0.087402 16.0952C0.0916207 16.1645 0.0970112 16.2336 0.102109 16.3028C0.106035 16.356 0.109433 16.4093 0.113769 16.4624C0.119511 16.5305 0.126366 16.5984 0.132929 16.6664C0.138144 16.7202 0.142772 16.7741 0.148573 16.8278C0.155721 16.8941 0.163925 16.9601 0.171835 17.0262C0.178397 17.0813 0.184432 17.1365 0.191639 17.1913C0.200018 17.2557 0.20951 17.3198 0.218768 17.384C0.226795 17.4401 0.234295 17.4964 0.242849 17.5524C0.252517 17.6157 0.263474 17.6787 0.273962 17.7418C0.283396 17.7982 0.292243 17.8548 0.302204 17.9109C0.313161 17.9726 0.325231 18.034 0.336891 18.0955C0.347731 18.1528 0.358161 18.2103 0.369703 18.2674C0.381774 18.3273 0.395016 18.3869 0.407789 18.4466C0.420211 18.5048 0.432164 18.563 0.44523 18.621C0.458472 18.6799 0.472886 18.7382 0.486889 18.7969C0.500776 18.8553 0.514077 18.9138 0.528725 18.9719C0.543139 19.0297 0.558783 19.087 0.573842 19.1445C0.589193 19.2031 0.604076 19.2617 0.62013 19.3201C0.635657 19.3768 0.652356 19.433 0.668645 19.4894C0.68552 19.548 0.701867 19.6068 0.719328 19.6652C0.736027 19.7209 0.753839 19.7762 0.771183 19.8317C0.789464 19.8902 0.807335 19.9491 0.826319 20.0074C0.844131 20.0619 0.86294 20.1161 0.881279 20.1704C0.901084 20.229 0.920478 20.288 0.940986 20.3464C0.959794 20.3999 0.979716 20.453 0.999169 20.5062C1.02056 20.5648 1.04147 20.6237 1.06345 20.682C1.08343 20.7349 1.10452 20.7873 1.1252 20.8399C1.14794 20.898 1.17014 20.9563 1.19352 21.014C1.21473 21.0663 1.237 21.118 1.25879 21.1701C1.28288 21.2277 1.30649 21.2855 1.33122 21.3427C1.35325 21.3936 1.37639 21.4439 1.39895 21.4946C1.42473 21.5524 1.44998 21.6104 1.47647 21.6678C1.49967 21.7182 1.52405 21.768 1.54778 21.8181C1.57479 21.8751 1.60127 21.9322 1.62904 21.9888C1.65377 22.0392 1.67955 22.0891 1.70486 22.1393C1.73287 22.195 1.76047 22.2509 1.78924 22.3062C1.81537 22.3565 1.84256 22.4061 1.86933 22.4562C1.8984 22.5105 1.92693 22.5652 1.95675 22.6194C1.98441 22.6697 2.01318 22.7193 2.04148 22.7694C2.07154 22.8224 2.10095 22.8758 2.1316 22.9285C2.16054 22.9783 2.19066 23.0275 2.22025 23.0771C2.25136 23.1293 2.28201 23.1817 2.31376 23.2335C2.34353 23.2819 2.37441 23.3299 2.40482 23.3781C2.43763 23.4301 2.46985 23.4825 2.50325 23.5342C2.53396 23.5816 2.56571 23.6283 2.59694 23.6755C2.63116 23.727 2.66491 23.7789 2.69966 23.8301C2.73182 23.8773 2.76505 23.9238 2.79774 23.9706C2.8329 24.0209 2.86753 24.0716 2.90333 24.1215C2.93631 24.1675 2.97047 24.2128 3.00399 24.2585C3.04073 24.3084 3.07688 24.3588 3.1142 24.4083C3.14754 24.4525 3.18188 24.4959 3.21574 24.5397C3.25447 24.5899 3.29262 24.6404 3.33188 24.6901C3.36551 24.7324 3.40008 24.7741 3.43418 24.8161C3.4749 24.8664 3.51515 24.917 3.55664 24.9669C3.5884 25.0051 3.62121 25.0426 3.65338 25.0805C3.69832 25.1333 3.74279 25.1865 3.78843 25.2388C3.81509 25.2692 3.84257 25.2991 3.86941 25.3294C3.92173 25.3882 3.9737 25.4473 4.02691 25.5054C4.0398 25.5195 4.05304 25.533 4.06599 25.547C4.21481 25.7081 4.36716 25.8665 4.5236 26.0215L4.52442 26.0222C6.79777 28.273 9.70094 29.6511 12.7771 29.9577C12.8099 30.6117 12.8582 31.0269 12.8673 31.1005C12.9207 31.5368 13.2442 31.8803 13.6552 31.9371C13.7619 31.9518 14.6308 32.0657 15.9114 32.0657C18.6929 32.0657 23.416 31.5283 26.4833 28.2715C28.1046 26.55 29.1911 24.1481 29.7128 21.1322C29.8039 20.6055 29.4757 20.1001 28.9797 20.0033C28.4829 19.9062 28.0075 20.2551 27.9165 20.7819C27.4628 23.4036 26.5462 25.4622 25.1918 26.9002C22.0643 30.2212 16.5816 30.2039 14.6164 30.0786C14.5036 28.1324 14.4792 22.9407 17.0253 19.5495C17.0445 19.523 17.0643 19.4966 17.0843 19.4705ZM16.2065 17.6007C15.6843 16.8184 15.5392 15.7915 15.7071 14.2813C16.0523 11.1784 12.5957 9.85236 11.2944 9.35321C11.1875 9.31221 11.0939 9.27644 11.0165 9.24483C9.69537 8.70748 8.6717 6.2287 7.92434 4.41892C7.86973 4.28678 7.8163 4.15731 7.76391 4.03132C8.71218 3.41838 9.72649 2.95033 10.7832 2.63434C10.7946 2.63092 10.8061 2.62744 10.8177 2.62408C10.9383 2.58837 11.0595 2.55477 11.1812 2.52304C11.22 2.51296 11.2588 2.50406 11.2976 2.49442C11.3833 2.47308 11.469 2.45212 11.5552 2.43283C11.605 2.42157 11.6551 2.41118 11.7052 2.40073C11.7828 2.38436 11.8606 2.36856 11.9386 2.35369C11.9898 2.34399 12.041 2.33478 12.0923 2.32569C12.3251 2.28488 12.5592 2.25072 12.7947 2.22416C12.8202 2.22136 12.8456 2.21812 12.8711 2.21564C12.9864 2.20344 13.1021 2.19305 13.2181 2.18434C13.2462 2.18229 13.2745 2.18036 13.3029 2.17843C13.4067 2.17134 13.5106 2.1658 13.6147 2.16157C13.644 2.16033 13.6729 2.15883 13.7025 2.1579C13.8257 2.15373 13.9492 2.15149 14.0729 2.15118C14.0966 2.15118 14.1208 2.1513 14.1452 2.15149C14.2127 2.1518 14.2802 2.15267 14.3475 2.15423C14.3611 2.15454 14.3746 2.15442 14.388 2.1551C14.4007 2.15566 14.4133 2.15597 14.4261 2.15597C14.505 2.15821 14.5838 2.16151 14.6625 2.16537C14.6815 2.16636 14.7008 2.16698 14.7197 2.16798L14.7225 2.1681C14.8137 2.17302 14.9048 2.17918 14.9958 2.18621C15.0038 2.18689 15.0115 2.18727 15.0197 2.18795C16.3371 2.29353 17.6251 2.6242 18.836 3.16566C17.5337 3.86421 16.5937 4.75433 15.5641 6.17644C15.392 6.41012 15.2295 6.63074 15.3977 8.89245C15.5053 10.3401 15.6838 11.3438 15.9282 11.8758C16.2381 12.5504 16.7148 12.6513 16.9717 12.6513C17.1383 12.6513 17.2998 12.6098 17.451 12.5282C17.8105 12.3343 18.1348 12.2358 18.4154 12.2358C19.3038 12.2358 19.9133 13.3167 20.5623 14.6225C20.5787 14.6553 20.5949 14.6879 20.6109 14.7202C19.0683 15.2921 17.5587 16.1634 16.3194 17.4794L16.3163 17.4828C16.2793 17.5215 16.2427 17.5609 16.2065 17.6007ZM26.2332 13.6951C25.1226 13.7289 23.7913 13.8558 22.4114 14.1802C22.3353 14.0346 22.2559 13.8752 22.1773 13.7171C21.5002 12.3548 20.4771 10.2963 18.4151 10.2963C18.0918 10.2963 17.7582 10.3506 17.4173 10.4582C17.2457 9.51752 17.1325 7.82844 17.155 7.16342C18.2498 5.69788 19.1786 4.99734 20.8917 4.34383C23.9 6.48497 25.8426 9.90002 26.2332 13.6951ZM5.31168 24.1261C5.24986 24.0583 5.18857 23.9901 5.12828 23.9211C5.12453 23.9168 5.1209 23.9124 5.11715 23.908C5.0568 23.8388 4.99727 23.7688 4.93844 23.6984C4.91869 23.6747 4.89936 23.6506 4.87979 23.6268C4.83731 23.5752 4.79512 23.5235 4.75358 23.4713C4.7309 23.4428 4.70875 23.4143 4.68625 23.3857C4.64817 23.3371 4.61038 23.2883 4.57299 23.2391C4.55014 23.209 4.52753 23.179 4.50503 23.1488C4.46852 23.0998 4.43231 23.0506 4.39651 23.0011C4.37477 22.9711 4.35304 22.9412 4.33159 22.911C4.2945 22.8589 4.25806 22.8065 4.22185 22.7539C4.20274 22.7261 4.18341 22.6986 4.1646 22.6707C4.12148 22.6072 4.07923 22.5431 4.03728 22.4789C4.02614 22.4618 4.0146 22.4449 4.00359 22.4279C3.95091 22.3462 3.89923 22.2641 3.84831 22.1813C3.83507 22.1598 3.82236 22.1379 3.80935 22.1164C3.7722 22.055 3.73517 21.9935 3.69902 21.9315C3.68103 21.9006 3.66351 21.8697 3.64576 21.8387C3.61517 21.7852 3.58476 21.7317 3.555 21.6779C3.53607 21.6439 3.51756 21.6095 3.49892 21.5753C3.47098 21.5238 3.44338 21.4722 3.41607 21.4203C3.39762 21.3851 3.37916 21.3498 3.361 21.3144C3.33398 21.2618 3.3075 21.209 3.28119 21.1561C3.26414 21.1216 3.24697 21.0873 3.23016 21.0527C3.20233 20.9953 3.17508 20.9375 3.14807 20.8798C3.13389 20.8495 3.11948 20.8193 3.10553 20.789C3.06739 20.7058 3.03 20.6221 2.99356 20.538C2.98911 20.5277 2.98471 20.5174 2.9802 20.5071C2.9444 20.4238 2.90942 20.3401 2.87526 20.256C2.86237 20.2243 2.84995 20.1922 2.83729 20.1602C2.81409 20.1017 2.791 20.0432 2.76862 19.9844C2.75444 19.9472 2.74079 19.91 2.72696 19.8727C2.7068 19.8182 2.68677 19.7637 2.66731 19.7089C2.65354 19.67 2.63989 19.6311 2.62647 19.5921C2.60772 19.538 2.5895 19.4838 2.57151 19.4293C2.55862 19.3903 2.54573 19.3513 2.53313 19.3121C2.51503 19.2557 2.49763 19.1991 2.48028 19.1425C2.46898 19.1054 2.45737 19.0684 2.4463 19.0312C2.42714 18.9663 2.40868 18.901 2.39034 18.8358C2.3822 18.8067 2.37364 18.7777 2.36568 18.7486C2.34019 18.6553 2.3157 18.5616 2.29226 18.4676C2.28558 18.4407 2.27937 18.4136 2.27292 18.3867C2.25622 18.3181 2.23976 18.2495 2.22417 18.1806C2.21568 18.1433 2.20783 18.1058 2.19962 18.0683C2.18673 18.0091 2.17408 17.95 2.16189 17.8906C2.15369 17.8503 2.14583 17.8099 2.13804 17.7696C2.12691 17.7123 2.11613 17.655 2.1057 17.5977C2.09832 17.5565 2.09099 17.5154 2.0839 17.4742C2.07394 17.4161 2.06445 17.3579 2.05525 17.2996C2.04886 17.2595 2.04248 17.2194 2.03644 17.1791C2.02713 17.1167 2.01857 17.0541 2.01007 16.9915C2.00521 16.9555 2.00006 16.9196 1.99549 16.8835C1.985 16.8008 1.97539 16.7177 1.96636 16.6347C1.96461 16.6186 1.96256 16.6026 1.9608 16.5865C1.95113 16.4941 1.94263 16.4016 1.93478 16.3087C2.75778 15.9355 3.36 15.5513 3.76628 15.142C4.53948 14.3612 4.85143 14.3005 4.92871 14.3005C4.99914 14.3005 5.18488 14.46 5.40771 14.8989C5.55372 15.1869 5.68808 15.4742 5.81804 15.7519C6.45717 17.118 7.11798 18.5306 8.80406 18.8221C9.57432 18.9558 10.6516 19.6457 10.8341 20.3018C10.9286 20.6412 10.7441 21.037 10.2858 21.4783C9.30755 22.4203 7.93606 22.9935 6.72611 23.4994C6.22749 23.7076 5.74749 23.9083 5.31168 24.1261ZM12.7554 28.0059C10.6083 27.7553 8.56459 26.9042 6.83164 25.5417C7.01439 25.4632 7.20277 25.3841 7.39489 25.3039C8.75062 24.7372 10.2872 24.0949 11.5126 22.9148C12.7856 21.689 12.7988 20.5184 12.5857 19.7523C12.1342 18.1297 10.2748 17.1122 9.09802 16.908C8.369 16.782 8.04996 16.1637 7.45372 14.8892C7.3172 14.5974 7.17599 14.2956 7.01556 13.9793C6.47065 12.9056 5.76841 12.3611 4.9286 12.3611C3.9955 12.3611 3.18112 13.0564 2.50817 13.736C2.41413 13.8308 2.23595 13.9793 1.91603 14.167C2.15943 10.5966 3.76253 7.3803 6.24178 5.1739C6.24506 5.18193 6.24834 5.18971 6.25163 5.19786C7.17734 7.43922 8.32928 10.2286 10.3624 11.0557C10.4485 11.0908 10.5536 11.1312 10.6738 11.1772C12.2544 11.7836 14.0485 12.6584 13.8934 14.0539C13.7185 15.6259 13.713 17.5726 15.0405 19.1531C13.2763 22.0016 12.8224 25.5237 12.7554 28.0059Z" fill="#0EBED9"/>
<path d="M13.7725 31.9451C13.5387 31.9451 13.3051 31.8505 13.1267 31.6611C12.7701 31.2825 12.7701 30.6685 13.1267 30.2897L20.6123 22.3416C20.9691 21.9629 21.5472 21.963 21.9038 22.3416C22.2604 22.7202 22.2604 23.3342 21.9038 23.7129L14.4183 31.661C14.2399 31.8505 14.006 31.9451 13.7725 31.9451Z" fill="#0EBED9"/>
</g>
<defs>
<clipPath id="clip0_301_2788">
<rect width="30" height="31.8545" fill="white" transform="translate(0 0.210938)"/>
</clipPath>
</defs>
</svg>
