<svg width="32" height="35" viewBox="0 0 32 35" fill="none" xmlns="http://www.w3.org/2000/svg">
<g clip-path="url(#clip0_301_2734)">
<path d="M25.496 28.5611H6.50403C6.11566 28.5611 5.77766 28.2791 5.68578 27.8782L2.58078 14.3246C2.51153 14.0226 2.5951 13.704 2.80141 13.4834C3.00766 13.2627 3.30716 13.1715 3.59203 13.243L9.62653 14.7522L15.3028 5.85228C15.4595 5.60667 15.7207 5.45947 16.0001 5.45947C16.2795 5.45947 16.5407 5.60667 16.6973 5.85228L22.3737 14.7522L28.4082 13.243C28.6932 13.1715 28.9925 13.2626 29.1988 13.4834C29.4051 13.704 29.4887 14.0226 29.4194 14.3246L28.0286 20.3954C27.9186 20.8753 27.4632 21.1699 27.0112 21.053C26.5593 20.9362 26.2822 20.4527 26.392 19.9729L27.4585 15.3178L22.1947 16.6342C21.8545 16.7193 21.5003 16.5726 21.3045 16.2653L16 7.94824L10.6956 16.2651C10.4997 16.5724 10.1455 16.7192 9.80535 16.634L4.5416 15.3177L7.16591 26.7727H24.8343L25.3678 24.4436C25.4778 23.9638 25.9332 23.6691 26.3852 23.786C26.8371 23.9028 27.1143 24.3863 27.0044 24.8661L26.3144 27.8781C26.2224 28.279 25.8844 28.5611 25.496 28.5611Z" fill="#0EBED9"/>
<path d="M15.9998 9.03062C17.3215 9.03062 18.3929 7.89295 18.3929 6.48955C18.3929 5.08616 17.3215 3.94849 15.9998 3.94849C14.6781 3.94849 13.6067 5.08616 13.6067 6.48955C13.6067 7.89295 14.6781 9.03062 15.9998 9.03062Z" fill="#CEE8FA"/>
<path d="M16.0001 9.92485C14.216 9.92485 12.7646 8.38375 12.7646 6.4894C12.7646 4.59505 14.216 3.05396 16.0001 3.05396C17.7841 3.05396 19.2355 4.59505 19.2355 6.4894C19.2355 8.38375 17.7841 9.92485 16.0001 9.92485ZM16.0001 4.84226C15.1448 4.84226 14.4488 5.58121 14.4488 6.4894C14.4488 7.39759 15.1448 8.13655 16.0001 8.13655C16.8554 8.13655 17.5513 7.39759 17.5513 6.4894C17.5513 5.58121 16.8554 4.84226 16.0001 4.84226Z" fill="#0EBED9"/>
<path d="M28.7645 16.6544C30.0861 16.6544 31.1576 15.5167 31.1576 14.1133C31.1576 12.7099 30.0861 11.5723 28.7645 11.5723C27.4428 11.5723 26.3713 12.7099 26.3713 14.1133C26.3713 15.5167 27.4428 16.6544 28.7645 16.6544Z" fill="#CEE8FA"/>
<path d="M28.7645 17.5489C26.9804 17.5489 25.5291 16.0078 25.5291 14.1134C25.5291 12.2191 26.9805 10.678 28.7645 10.678C30.5485 10.678 31.9999 12.2191 31.9999 14.1133C31.9999 16.0076 30.5486 17.5489 28.7645 17.5489ZM28.7645 12.4663C27.9091 12.4663 27.2132 13.2053 27.2132 14.1135C27.2132 15.0217 27.9092 15.7606 28.7645 15.7606C29.6198 15.7606 30.3157 15.0217 30.3157 14.1135C30.3157 13.2053 29.6198 12.4663 28.7645 12.4663Z" fill="#0EBED9"/>
<path d="M3.23565 16.6544C4.55734 16.6544 5.62878 15.5167 5.62878 14.1133C5.62878 12.7099 4.55734 11.5723 3.23565 11.5723C1.91397 11.5723 0.842529 12.7099 0.842529 14.1133C0.842529 15.5167 1.91397 16.6544 3.23565 16.6544Z" fill="#CEE8FA"/>
<path d="M3.23544 17.5487C1.45137 17.5487 0 16.0076 0 14.1132C0 12.2188 1.45137 10.6777 3.23544 10.6777C5.0195 10.6777 6.47087 12.2188 6.47087 14.1132C6.47087 16.0075 5.01944 17.5487 3.23544 17.5487ZM3.23544 12.4662C2.38012 12.4662 1.68419 13.2051 1.68419 14.1133C1.68419 15.0215 2.38012 15.7605 3.23544 15.7605C4.09087 15.7605 4.78669 15.0215 4.78669 14.1133C4.78669 13.2051 4.09087 12.4662 3.23544 12.4662Z" fill="#0EBED9"/>
<path d="M16.1901 24.8242C15.6476 24.8242 15.1375 24.5998 14.7538 24.1925L12.092 21.3662C11.3001 20.5252 11.3001 19.157 12.092 18.316L14.7538 15.4897C15.1376 15.0823 15.6476 14.8582 16.1901 14.8582C16.7326 14.8582 17.2428 15.0824 17.6263 15.4897L20.2882 18.316C21.0801 19.157 21.0801 20.5252 20.2882 21.3662L17.6264 24.1925C17.2427 24.5998 16.7327 24.8242 16.1901 24.8242ZM16.1901 16.6463C16.1364 16.6463 16.0331 16.6602 15.9446 16.7541L13.2829 19.5805C13.1476 19.7241 13.1476 19.9579 13.2829 20.1015L15.9447 22.9278C16.0331 23.0218 16.1364 23.0357 16.1901 23.0357C16.2437 23.0357 16.347 23.0218 16.4354 22.9278L19.0972 20.1015C19.2326 19.9579 19.2326 19.7241 19.0972 19.5805L16.4354 16.7541C16.3472 16.6602 16.2438 16.6463 16.1901 16.6463Z" fill="#0EBED9"/>
<path d="M24.5362 31.0554H7.54103C6.96822 31.0554 6.50391 30.5624 6.50391 29.9541V27.667H25.5733V29.9541C25.5733 30.5623 25.109 31.0554 24.5362 31.0554Z" fill="#CEE8FA"/>
<path d="M24.5363 31.9496H7.54112C6.50493 31.9496 5.66187 31.0545 5.66187 29.9542V27.6671C5.66187 27.1734 6.03887 26.7729 6.50399 26.7729H25.5734C26.0385 26.7729 26.4155 27.1734 26.4155 27.6671V29.9542C26.4155 31.0545 25.5724 31.9496 24.5363 31.9496ZM7.34612 28.5613V29.9542C7.34612 30.0684 7.43362 30.1613 7.54118 30.1613H24.5362C24.6438 30.1613 24.7312 30.0684 24.7312 29.9542V28.5613H7.34612Z" fill="#0EBED9"/>
</g>
<defs>
<clipPath id="clip0_301_2734">
<rect width="32" height="33.9782" fill="white" transform="translate(0 0.512695)"/>
</clipPath>
</defs>
</svg>
