<svg width="32" height="35" viewBox="0 0 32 35" fill="none" xmlns="http://www.w3.org/2000/svg">
<g clip-path="url(#clip0_301_2783)">
<path d="M30.7522 23.377L27.3383 19.7521L30.7522 16.1271C31.1547 15.6997 31.1547 15.0066 30.7522 14.5791L28.93 12.6443C28.5274 12.2169 27.8747 12.2169 27.4721 12.6443L24.0582 16.2692L20.6444 12.6443C20.2418 12.2169 19.589 12.2169 19.1865 12.6443L17.3643 14.5791C16.9617 15.0066 16.9617 15.6997 17.3643 16.1271L20.7782 19.7521L17.3643 23.377C16.9617 23.8044 16.9617 24.4975 17.3643 24.925L19.1865 26.8598C19.589 27.2873 20.2418 27.2873 20.6444 26.8598L24.0582 23.2349L27.4721 26.8598C27.8747 27.2873 28.5274 27.2873 28.93 26.8598L30.7522 24.925C31.1547 24.4975 31.1547 23.8045 30.7522 23.377Z" fill="#CEE8FA"/>
<path d="M28.2011 28.1852C27.6731 28.1852 27.1766 27.9668 26.8033 27.5704L24.0583 24.6558L21.3134 27.5704C20.94 27.9668 20.4436 28.1852 19.9155 28.1852C19.3875 28.1852 18.891 27.9668 18.5176 27.5704L16.6955 25.6356C16.3221 25.2392 16.1165 24.712 16.1165 24.1513C16.1165 23.5906 16.3221 23.0634 16.6955 22.667L19.4404 19.7524L16.6955 16.8378C16.3221 16.4413 16.1165 15.9141 16.1165 15.3535C16.1165 14.7928 16.3221 14.2656 16.6955 13.8692L18.5177 11.9344C18.891 11.538 19.3875 11.3196 19.9155 11.3196C20.4435 11.3196 20.94 11.538 21.3133 11.9344L24.0583 14.849L26.8032 11.9344C27.1765 11.538 27.673 11.3196 28.2011 11.3196C28.7291 11.3196 29.2256 11.538 29.599 11.9344L31.421 13.8691C31.7944 14.2655 32.0001 14.7927 32.0001 15.3534C32.0001 15.9141 31.7945 16.4413 31.4211 16.8376L28.6761 19.7523L31.4211 22.667C31.7944 23.0634 32.0001 23.5905 32.0001 24.1513C32.0001 24.7119 31.7944 25.2391 31.421 25.6354L29.599 27.5703C29.2256 27.9668 28.7291 28.1852 28.2011 28.1852ZM24.0583 21.8145L28.1411 26.1497C28.1741 26.1847 28.2281 26.1847 28.2611 26.1497L30.0831 24.2148C30.0997 24.1974 30.108 24.1759 30.108 24.1513C30.108 24.1264 30.0997 24.1051 30.0832 24.0875L26.0004 19.7523L30.0832 15.4171C30.0996 15.3997 30.1081 15.3782 30.1081 15.3534C30.1081 15.3287 30.0998 15.3072 30.0833 15.2897L28.2611 13.3549C28.2281 13.3197 28.1741 13.3198 28.1411 13.3548L24.0582 17.6902L19.9754 13.355C19.9425 13.3199 19.8886 13.3199 19.8555 13.3548L18.0333 15.2897C18.0168 15.3072 18.0085 15.3287 18.0085 15.3534C18.0085 15.3781 18.0168 15.3996 18.0333 15.4172L22.1161 19.7523L18.0334 24.0875C18.0168 24.105 18.0085 24.1264 18.0085 24.1513C18.0085 24.1759 18.0168 24.1974 18.0334 24.215L19.8555 26.1497C19.8884 26.1847 19.9424 26.1847 19.9754 26.1497L24.0583 21.8145Z" fill="#0EBED9"/>
<path d="M9.22194 28.1853C8.39537 28.1853 7.67744 27.67 7.36825 26.841L5.25225 21.1678C5.11931 20.8113 4.80025 20.5811 4.43925 20.5811H0V18.5721H4.43913C5.58119 18.5721 6.59081 19.3006 7.01131 20.4281L9.12744 26.1014C9.13937 26.1332 9.15744 26.1805 9.23825 26.1758C9.31913 26.1701 9.33094 26.1198 9.33881 26.0865L13.3382 9.04572C13.6459 7.73431 14.7498 6.81836 16.0227 6.81836H31.4736V8.82739H16.0227C15.6203 8.82739 15.2714 9.11686 15.1741 9.53144L11.1747 26.5721C10.9601 27.4865 10.2493 28.1176 9.36375 28.1802C9.31619 28.1836 9.26888 28.1853 9.22194 28.1853Z" fill="#0EBED9"/>
</g>
<defs>
<clipPath id="clip0_301_2783">
<rect width="32" height="33.9782" fill="white" transform="translate(0 0.512695)"/>
</clipPath>
</defs>
</svg>
