<svg width="32" height="35" viewBox="0 0 32 35" fill="none" xmlns="http://www.w3.org/2000/svg">
<g clip-path="url(#clip0_301_2747)">
<path d="M21.3825 33.0321H2.78581C1.24975 33.0321 0 31.7052 0 30.0742V4.20203C0 2.57102 1.24975 1.24414 2.78581 1.24414H21.3825C22.9186 1.24414 24.1682 2.57108 24.1682 4.20203V12.7369C24.1682 13.2936 23.7432 13.7449 23.2189 13.7449C22.6947 13.7449 22.2697 13.2936 22.2697 12.7369V4.20203C22.2697 3.68254 21.8717 3.25994 21.3824 3.25994H2.78581C2.29656 3.25994 1.8985 3.68254 1.8985 4.20203V30.0741C1.8985 30.5936 2.2965 31.0162 2.78581 31.0162H21.3825C21.8717 31.0162 22.2698 30.5936 22.2698 30.0741V26.7135C22.2698 26.1568 22.6947 25.7056 23.219 25.7056C23.7432 25.7056 24.1682 26.1568 24.1682 26.7135V30.0741C24.1682 31.7052 22.9186 33.0321 21.3825 33.0321Z" fill="#0EBED9"/>
<path d="M17.4474 6.6897H6.72119V10.7886H17.4474V6.6897Z" fill="#CEE8FA"/>
<path d="M17.4472 11.7962H6.72098C6.19673 11.7962 5.77173 11.345 5.77173 10.7883V6.68957C5.77173 6.13291 6.19673 5.68164 6.72098 5.68164H17.4472C17.9714 5.68164 18.3964 6.13291 18.3964 6.68957V10.7885C18.3964 11.345 17.9714 11.7962 17.4472 11.7962ZM7.67023 9.78039H16.498V7.69744H7.67023V9.78039Z" fill="#0EBED9"/>
<path d="M31.0509 11.8093C30.8079 11.8093 30.5649 11.711 30.3797 11.5142L27.9237 8.9064L25.9971 10.9521C25.6265 11.3457 25.0255 11.3458 24.6547 10.9521C24.284 10.5585 24.284 9.9203 24.6547 9.52676L27.2526 6.7683C27.6233 6.37483 28.2242 6.37469 28.595 6.7683L31.7221 10.0887C32.0928 10.4823 32.0928 11.1206 31.7221 11.5142C31.5368 11.711 31.2938 11.8093 31.0509 11.8093Z" fill="#0EBED9"/>
<path d="M25.3256 10.2395L13.36 22.9448L12.8608 26.7952L16.4871 26.2653L28.4527 13.5599L25.3256 10.2395Z" fill="#CEE8FA"/>
<path d="M12.8611 27.8032C12.6111 27.8032 12.3691 27.6983 12.1899 27.508C11.9798 27.285 11.8802 26.9704 11.9207 26.6579L12.4199 22.8074C12.4481 22.5896 12.5426 22.3875 12.689 22.2321L24.6546 9.52687C24.8326 9.33787 25.074 9.23169 25.3257 9.23169C25.5775 9.23169 25.819 9.33794 25.9969 9.52687L29.1241 12.8473C29.4947 13.2409 29.4947 13.8791 29.1241 14.2727L17.1586 26.9781C17.0122 27.1335 16.8219 27.234 16.6167 27.2639L12.9906 27.7939C12.9473 27.8001 12.9041 27.8032 12.8611 27.8032ZM14.257 23.418L13.9721 25.6155L16.0416 25.3131L27.1104 13.5601L25.3256 11.665L14.257 23.418Z" fill="#0EBED9"/>
<path d="M12.861 27.8032H6.72098C6.19673 27.8032 5.77173 27.352 5.77173 26.7953C5.77173 26.2386 6.19673 25.7874 6.72098 25.7874H12.861C13.3853 25.7874 13.8103 26.2386 13.8103 26.7953C13.8103 27.352 13.3854 27.8032 12.861 27.8032Z" fill="#0EBED9"/>
</g>
<defs>
<clipPath id="clip0_301_2747">
<rect width="32" height="33.9782" fill="white" transform="translate(0 0.14917)"/>
</clipPath>
</defs>
</svg>
