<svg width="30" height="33" viewBox="0 0 30 33" fill="none" xmlns="http://www.w3.org/2000/svg">
<g clip-path="url(#clip0_301_2720)">
<path d="M27.5846 10.0537C26.1977 6.81954 19.4392 6.92183 12.4889 10.2821C5.5387 13.6425 1.02871 18.9883 2.41559 22.2224C3.80247 25.4566 10.561 25.3543 17.5113 21.994C24.4615 18.6337 28.9715 13.2878 27.5846 10.0537Z" fill="#CEE8FA"/>
<path d="M7.67287 25.4462C4.59764 25.4462 2.46752 24.4283 1.67504 22.58C0.862229 20.6846 1.5885 18.2494 3.71979 15.7232C5.69574 13.3812 8.6903 11.1696 12.1517 9.49622C15.7079 7.77694 19.3214 6.83008 22.3266 6.83008C25.4019 6.83008 27.532 7.84793 28.3245 9.69624C29.1373 11.5916 28.4111 14.0268 26.2797 16.5531C24.3038 18.8951 21.3093 21.1066 17.8478 22.7801C14.2917 24.4994 10.6782 25.4462 7.67287 25.4462ZM22.3267 8.55757C19.5893 8.55757 16.1264 9.47276 12.8259 11.0683C9.56446 12.6451 6.7608 14.7077 4.93151 16.8758C3.28186 18.8312 2.63457 20.6494 3.15559 21.8644C3.66096 23.043 5.3075 23.719 7.67287 23.719C10.4103 23.719 13.8732 22.8038 17.1737 21.2082C20.4352 19.6314 23.2387 17.5689 25.0681 15.4007C26.7178 13.4454 27.3651 11.6272 26.844 10.4121C26.3387 9.23348 24.6922 8.55757 22.3267 8.55757Z" fill="#0EBED9"/>
<path d="M4.46411 17.0019C4.24467 17.0019 4.026 16.9082 3.86563 16.7233C1.62014 14.1343 0.842194 11.6388 1.67516 9.69622C2.36118 8.09646 4.01757 7.12484 6.46508 6.88649C6.91268 6.84287 7.30842 7.19265 7.34938 7.66767C7.3904 8.14263 7.06104 8.56302 6.61374 8.60657C4.80764 8.78252 3.57952 9.42371 3.15571 10.412C2.61893 11.6635 3.31391 13.5375 5.06217 15.5531C5.36657 15.904 5.3453 16.4504 5.01489 16.7735C4.85868 16.9263 4.6611 17.0019 4.46411 17.0019Z" fill="#0EBED9"/>
<path d="M22.3399 25.4478C21.66 25.4478 20.935 25.3981 20.1686 25.297C18.4609 25.0719 16.6529 24.6058 14.7952 23.9118C14.3714 23.7535 14.1487 23.2604 14.2978 22.8105C14.4468 22.3606 14.9111 22.1239 15.3349 22.2823C17.0831 22.9354 18.7768 23.3729 20.3691 23.5828C23.7195 24.0245 26.2003 23.3661 26.8443 21.8645C27.3653 20.6495 26.718 18.8312 25.0684 16.8759C23.2391 14.7077 20.4355 12.6452 17.174 11.0684C16.3881 10.6886 15.5871 10.3433 14.7932 10.0424C14.3701 9.88208 14.1495 9.38784 14.3006 8.93858C14.4515 8.48938 14.9166 8.25507 15.3401 8.41553C16.1769 8.73277 17.0207 9.09636 17.8481 9.49641C21.3096 11.1698 24.3041 13.3812 26.28 15.7233C28.4114 18.2496 29.1376 20.6848 28.3248 22.5802C27.5249 24.4456 25.3907 25.4478 22.3399 25.4478Z" fill="#0EBED9"/>
<path d="M15.0001 31.6842C13.0387 31.6842 11.2523 29.9734 9.97026 26.8668C8.78156 23.9868 8.12695 20.1767 8.12695 16.1382C8.12695 12.0997 8.78156 8.28951 9.97026 5.40954C11.2524 2.30304 13.0387 0.592285 15.0001 0.592285C16.6756 0.592285 18.2088 1.81688 19.434 4.13349C19.6541 4.54934 19.5148 5.07581 19.1231 5.30937C18.7317 5.54305 18.2356 5.39523 18.0157 4.97925C17.1086 3.26421 16.0376 2.31959 15.0001 2.31959C13.7428 2.31959 12.4525 3.6986 11.4602 6.10293C10.3598 8.7692 9.75381 12.3332 9.75381 16.1382C9.75381 19.9433 10.3598 23.5073 11.4603 26.1735C12.4526 28.5778 13.7429 29.9568 15.0001 29.9568C16.1086 29.9568 17.0167 28.9131 17.5835 28.0374C18.1998 27.0853 18.7521 25.8025 19.1807 24.3279C19.3133 23.8722 19.7684 23.617 20.1978 23.7574C20.627 23.8981 20.8675 24.3817 20.7351 24.8374C20.2518 26.5002 19.6425 27.906 18.9241 29.0159C17.7943 30.7615 16.4374 31.6842 15.0001 31.6842Z" fill="#0EBED9"/>
<path d="M14.9994 18.6455C16.3038 18.6455 17.3613 17.5227 17.3613 16.1376C17.3613 14.7525 16.3038 13.6296 14.9994 13.6296C13.6949 13.6296 12.6375 14.7525 12.6375 16.1376C12.6375 17.5227 13.6949 18.6455 14.9994 18.6455Z" fill="white"/>
<path d="M14.9998 19.5097C13.2489 19.5097 11.8245 17.9972 11.8245 16.138C11.8245 14.2789 13.2489 12.7664 14.9998 12.7664C16.7507 12.7664 18.1752 14.2789 18.1752 16.138C18.1752 17.9972 16.7507 19.5097 14.9998 19.5097ZM14.9998 14.4937C14.1459 14.4937 13.4513 15.2314 13.4513 16.138C13.4513 17.0447 14.1459 17.7823 14.9998 17.7823C15.8537 17.7823 16.5484 17.0447 16.5484 16.138C16.5484 15.2314 15.8537 14.4937 14.9998 14.4937Z" fill="#0EBED9"/>
<path d="M27.4483 23.9949C28.4084 23.9949 29.1867 23.1685 29.1867 22.149C29.1867 21.1296 28.4084 20.3032 27.4483 20.3032C26.4883 20.3032 25.71 21.1296 25.71 22.149C25.71 23.1685 26.4883 23.9949 27.4483 23.9949Z" fill="#CEE8FA"/>
<path d="M27.4482 24.8585C26.0412 24.8585 24.8965 23.643 24.8965 22.149C24.8965 20.6549 26.0412 19.4395 27.4482 19.4395C28.8553 19.4395 30 20.6549 30 22.149C30 23.643 28.8553 24.8585 27.4482 24.8585ZM27.4482 21.1668C26.9382 21.1668 26.5233 21.6074 26.5233 22.149C26.5233 22.6905 26.9382 23.1312 27.4482 23.1312C27.9582 23.1312 28.3732 22.6906 28.3732 22.149C28.3733 21.6074 27.9583 21.1668 27.4482 21.1668Z" fill="#0EBED9"/>
<path d="M2.55159 11.9734C3.51166 11.9734 4.28995 11.147 4.28995 10.1276C4.28995 9.10814 3.51166 8.28174 2.55159 8.28174C1.59152 8.28174 0.813232 9.10814 0.813232 10.1276C0.813232 11.147 1.59152 11.9734 2.55159 11.9734Z" fill="#CEE8FA"/>
<path d="M2.55176 12.837C1.14469 12.837 0 11.6216 0 10.1275C0 8.63348 1.14469 7.41797 2.55176 7.41797C3.95883 7.41797 5.10357 8.63348 5.10357 10.1275C5.10357 11.6216 3.95883 12.837 2.55176 12.837ZM2.55176 9.14527C2.0417 9.14527 1.6268 9.58588 1.6268 10.1275C1.6268 10.6691 2.04176 11.1097 2.55176 11.1097C3.06182 11.1097 3.47684 10.6691 3.47684 10.1275C3.47678 9.58594 3.06182 9.14527 2.55176 9.14527Z" fill="#0EBED9"/>
</g>
<defs>
<clipPath id="clip0_301_2720">
<rect width="30" height="31.8545" fill="white" transform="translate(0 0.210938)"/>
</clipPath>
</defs>
</svg>
