<svg width="30" height="33" viewBox="0 0 30 33" fill="none" xmlns="http://www.w3.org/2000/svg">
<path d="M29.1866 20.2452H24.064C22.218 20.2452 20.7209 18.6557 20.7209 16.6955V16.1869C20.7209 14.2268 22.218 12.6372 24.064 12.6372H29.1866C27.3406 12.6372 25.8436 14.2268 25.8436 16.1869V16.6955C25.8436 18.6557 27.3406 20.2452 29.1866 20.2452Z" fill="#CEE8FA"/>
<path d="M29.1881 21.1071C29.1876 21.1071 29.187 21.1071 29.1864 21.1071H24.0638C21.7728 21.1071 19.9089 19.1281 19.9089 16.6954V16.1869C19.9089 13.7542 21.7728 11.7751 24.0638 11.7751H29.1864C29.6348 11.7751 29.9983 12.1611 29.9983 12.6371C29.9983 13.1132 29.6348 13.4991 29.1864 13.4991C27.7907 13.4991 26.6552 14.7048 26.6552 16.1869V16.6954C26.6552 18.1773 27.7907 19.3831 29.1864 19.3831C29.1867 19.3831 29.187 19.3831 29.1873 19.3831H29.1881C29.6364 19.3831 29.9999 19.7691 29.9999 20.2451C29.9999 20.7212 29.6364 21.1071 29.1881 21.1071ZM24.0638 13.4991C22.6681 13.4991 21.5326 14.7048 21.5326 16.1869V16.6954C21.5326 18.1773 22.6681 19.3831 24.0638 19.3831H25.8937C25.3533 18.6385 25.0316 17.7061 25.0316 16.6954V16.1869C25.0316 15.1762 25.3532 14.2438 25.8937 13.4991H24.0638Z" fill="#0EBED9"/>
<path d="M29.1881 28.8364C29.1876 28.8364 29.187 28.8364 29.1864 28.8364H24.0638C21.7728 28.8364 19.9089 26.8573 19.9089 24.4247V23.9161C19.9089 21.4835 21.7728 19.5044 24.0638 19.5044H29.1864C29.6348 19.5044 29.9983 19.8904 29.9983 20.3664C29.9983 20.8424 29.6348 21.2284 29.1864 21.2284C27.7907 21.2284 26.6552 22.4341 26.6552 23.9161V24.4247C26.6552 25.9066 27.7907 27.1124 29.1864 27.1124C29.1867 27.1123 29.187 27.1124 29.1873 27.1124H29.1881C29.6364 27.1124 29.9999 27.4984 29.9999 27.9744C29.9999 28.4504 29.6364 28.8364 29.1881 28.8364ZM24.0638 21.2284C22.6681 21.2284 21.5326 22.4341 21.5326 23.9161V24.4247C21.5326 25.9066 22.6681 27.1124 24.0638 27.1124H25.8937C25.3533 26.3677 25.0316 25.4354 25.0316 24.4247V23.9161C25.0316 22.9054 25.3532 21.9731 25.8937 21.2284H24.0638Z" fill="#0EBED9"/>
<path d="M20.7208 24.4247V23.9162C20.7208 21.956 22.2178 20.3665 24.0639 20.3665H4.15483C2.30878 20.3665 0.811768 21.956 0.811768 23.9162V24.4247C0.811768 26.3849 2.30878 27.9745 4.15483 27.9745H24.0639C22.2178 27.9745 20.7208 26.385 20.7208 24.4247Z" fill="#CEE8FA"/>
<path d="M24.0639 28.8364H4.15488C1.86387 28.8364 0 26.8573 0 24.4247V23.9161C0 21.4835 1.86387 19.5044 4.15488 19.5044H24.0639C24.5123 19.5044 24.8757 19.8904 24.8757 20.3664C24.8757 20.8424 24.5123 21.2284 24.0639 21.2284C22.6682 21.2284 21.5327 22.4341 21.5327 23.9161V24.4247C21.5327 25.9066 22.6682 27.1124 24.0639 27.1124C24.5123 27.1124 24.8757 27.4984 24.8757 27.9744C24.8757 28.4504 24.5123 28.8364 24.0639 28.8364ZM4.15488 21.2284C2.75912 21.2284 1.62363 22.4341 1.62363 23.9161V24.4247C1.62363 25.9066 2.75912 27.1124 4.15488 27.1124H20.7712C20.2308 26.3677 19.909 25.4354 19.909 24.4247V23.9161C19.909 22.9054 20.2307 21.9731 20.7712 21.2284H4.15488Z" fill="#0EBED9"/>
<path d="M29.1864 13.4993H24.0638C21.7728 13.4993 19.9089 11.5202 19.9089 9.08752V8.57897C19.9089 6.14632 21.7728 4.16724 24.0638 4.16724C24.5122 4.16724 24.8756 4.55322 24.8756 5.02924C24.8756 5.50525 24.5122 5.89124 24.0638 5.89124C22.6681 5.89124 21.5326 7.09692 21.5326 8.57897V9.08752C21.5326 10.5695 22.6681 11.7752 24.0638 11.7752H25.8937C25.3533 11.0306 25.0316 10.0982 25.0316 9.08752V8.57897C25.0316 6.14632 26.8954 4.16724 29.1864 4.16724C29.6348 4.16724 29.9983 4.55322 29.9983 5.02924C29.9983 5.50525 29.6348 5.89124 29.1864 5.89124C27.7907 5.89124 26.6552 7.09692 26.6552 8.57897V9.08752C26.6552 10.5695 27.7907 11.7752 29.1864 11.7752C29.6348 11.7752 29.9983 12.1612 29.9983 12.6372C29.9983 13.1133 29.6348 13.4993 29.1864 13.4993Z" fill="#0EBED9"/>
<path d="M6.19998 18.166C6.01113 18.1661 5.82299 18.1112 5.65435 18.0022C5.33871 17.7982 5.15039 17.4422 5.15039 17.0498V8.13031C5.15039 7.6543 5.51385 7.26831 5.96221 7.26831H11.752C12.2003 7.26831 12.5638 7.6543 12.5638 8.13031V12.6375C12.5638 13.1135 12.2003 13.4995 11.752 13.4995C11.3036 13.4995 10.9402 13.1135 10.9402 12.6375V8.99232H6.7739V16.0498L8.37486 15.1715C8.67691 15.0058 9.03714 15.006 9.33879 15.1713L10.9404 16.0499C10.953 15.5855 11.3115 15.2132 11.7519 15.2132C12.2003 15.2132 12.5637 15.5992 12.5637 16.0752V17.0497C12.5637 17.442 12.3753 17.7981 12.0598 18.0021C11.7441 18.2061 11.3597 18.2204 11.0314 18.0404L8.85697 16.8474L6.6825 18.0403C6.52969 18.1244 6.36457 18.166 6.19998 18.166Z" fill="#0EBED9"/>
<path d="M28.3747 21.1071H3.34295C1.82877 21.1071 0 19.1393 0 16.6954V16.1869C0 13.7542 1.86387 11.7751 4.15488 11.7751H5.96215C6.41051 11.7751 6.77396 12.1611 6.77396 12.6371C6.77396 13.1132 6.41051 13.4991 5.96215 13.4991H4.15488C2.75912 13.4991 1.62363 14.7048 1.62363 16.1869V16.6954C1.62363 18.2481 2.83014 19.3831 3.34295 19.3831H25.8219C25.346 18.6399 25.0317 17.7085 25.0317 16.6954V16.1869C25.0317 15.1737 25.346 14.2424 25.8219 13.4991H11.7519C11.3036 13.4991 10.9401 13.1132 10.9401 12.6371C10.9401 12.1611 11.3036 11.7751 11.7519 11.7751H28.3747C28.823 11.7751 29.1865 12.1611 29.1865 12.6371C29.1865 13.1132 28.823 13.4991 28.3747 13.4991C27.8619 13.4991 26.6553 14.6341 26.6553 16.1869V16.6954C26.6553 18.2481 27.8618 19.3831 28.3747 19.3831C28.823 19.3831 29.1865 19.7691 29.1865 20.2451C29.1865 20.7212 28.823 21.1071 28.3747 21.1071Z" fill="#0EBED9"/>
<path d="M20.7208 9.08734V8.57878C20.7208 6.61861 22.2178 5.02905 24.0639 5.02905H4.15483C2.30878 5.02905 0.811768 6.61861 0.811768 8.57878V9.08734C0.811768 11.0475 2.30878 12.6371 4.15483 12.6371H5.9621V8.13008H11.7519V12.6371H24.0639C22.2178 12.6371 20.7208 11.0475 20.7208 9.08734Z" fill="#CEE8FA"/>
<path d="M24.0639 13.4991H11.7519C11.3036 13.4991 10.9401 13.1131 10.9401 12.6371V8.99214H6.77396V12.6371C6.77396 13.1131 6.41051 13.4991 5.96215 13.4991H4.15488C1.86387 13.4991 0 11.52 0 9.08752V8.57897C0 6.14632 1.86387 4.16724 4.15488 4.16724H24.0639C24.5123 4.16724 24.8757 4.55322 24.8757 5.02924C24.8757 5.50525 24.5123 5.89124 24.0639 5.89124C22.6682 5.89124 21.5327 7.09692 21.5327 8.57897V9.08752C21.5327 10.5695 22.6682 11.7752 24.0639 11.7752C24.5123 11.7752 24.8757 12.1612 24.8757 12.6372C24.8757 13.1133 24.5123 13.4991 24.0639 13.4991ZM12.5637 11.7751H20.7712C20.2308 11.0305 19.909 10.0981 19.909 9.08739V8.57884C19.909 7.56814 20.2307 6.63578 20.7712 5.89111H4.15488C2.75912 5.89111 1.62363 7.09686 1.62363 8.57884V9.08739C1.62363 10.5694 2.75912 11.7751 4.15488 11.7751H5.15033V8.13014C5.15033 7.65413 5.51379 7.26814 5.96215 7.26814H11.7519C12.2003 7.26814 12.5637 7.65413 12.5637 8.13014V11.7751Z" fill="#0EBED9"/>
</svg>
