<svg width="110" height="110" viewBox="0 0 110 110" fill="none" xmlns="http://www.w3.org/2000/svg">
<g clip-path="url(#clip0_301_1122)">
<path d="M50.4574 4.77281L50.0536 0.569589C50.0403 0.486934 49.9979 0.411772 49.9338 0.357855C49.8698 0.303938 49.7885 0.274857 49.7048 0.275906C49.6204 0.285177 49.5429 0.32656 49.4882 0.391492C49.4335 0.456423 49.4059 0.539924 49.4111 0.624651L49.8149 4.77281H50.4574Z" fill="url(#paint0_linear_301_1122)"/>
<path d="M19.2167 19.4564L19.6756 18.9975L16.7021 16.0057C16.6385 15.9626 16.5619 15.9429 16.4854 15.9502C16.4089 15.9575 16.3374 15.9912 16.283 16.0455C16.2287 16.0998 16.195 16.1714 16.1878 16.2479C16.1805 16.3244 16.2001 16.401 16.2432 16.4645L19.2167 19.4564Z" fill="url(#paint1_linear_301_1122)"/>
<path d="M22.8147 16.1522L23.347 15.7851L20.6672 12.518C20.6463 12.472 20.6151 12.4315 20.576 12.3995C20.5369 12.3675 20.491 12.3449 20.4418 12.3334C20.3926 12.3219 20.3415 12.3218 20.2923 12.3332C20.2431 12.3446 20.1971 12.3671 20.1579 12.399C20.1188 12.4309 20.0875 12.4713 20.0664 12.5172C20.0453 12.5631 20.035 12.6133 20.0364 12.6638C20.0377 12.7142 20.0506 12.7638 20.074 12.8085C20.0975 12.8532 20.1309 12.892 20.1717 12.9218L22.8147 16.1522Z" fill="url(#paint2_linear_301_1122)"/>
<path d="M26.8528 13.124L27.4034 12.7752L25.0724 9.25113C25.0118 9.19695 24.9334 9.16699 24.8521 9.16699C24.7709 9.16699 24.6924 9.19695 24.6319 9.25113C24.5777 9.3117 24.5477 9.39011 24.5477 9.47137C24.5477 9.55264 24.5777 9.63105 24.6319 9.69162L26.8528 13.124Z" fill="url(#paint3_linear_301_1122)"/>
<path d="M45.6666 5.41494L44.859 1.28512C44.8526 1.24192 44.8373 1.20054 44.8139 1.16365C44.7905 1.12677 44.7597 1.09517 44.7234 1.07095C44.687 1.04673 44.646 1.03041 44.603 1.02303C44.56 1.01565 44.5159 1.01742 44.4735 1.02816C44.3887 1.04587 44.3143 1.09618 44.2662 1.16828C44.2181 1.24037 44.2003 1.32848 44.2166 1.41359L45.0242 5.54341L45.6666 5.41494Z" fill="url(#paint4_linear_301_1122)"/>
<path d="M36.195 8.18678L34.5982 4.29558C34.5841 4.25463 34.5616 4.21706 34.5323 4.18526C34.5029 4.15346 34.4672 4.12811 34.4275 4.11084C34.3878 4.09358 34.3449 4.08476 34.3016 4.08496C34.2583 4.08517 34.2155 4.09439 34.176 4.11202C34.0965 4.14469 34.0329 4.20704 33.9986 4.28586C33.9643 4.36468 33.9621 4.45375 33.9924 4.53417L35.5526 8.44374L36.195 8.18678Z" fill="url(#paint5_linear_301_1122)"/>
<path d="M40.7474 6.60808L39.536 2.57004C39.5256 2.52806 39.5066 2.4887 39.4802 2.45445C39.4537 2.42021 39.4205 2.39182 39.3825 2.37111C39.3446 2.35039 39.3027 2.33781 39.2596 2.33414C39.2165 2.33046 39.1731 2.33577 39.1322 2.34976C39.0502 2.37526 38.9814 2.43168 38.9402 2.50705C38.8991 2.58243 38.889 2.67084 38.9119 2.75357L40.1233 6.77327L40.7474 6.60808Z" fill="url(#paint6_linear_301_1122)"/>
<path d="M31.001 10.6096L31.57 10.3159L29.5877 6.64498C29.5727 6.59867 29.5478 6.55622 29.5145 6.52069C29.4813 6.48515 29.4406 6.45739 29.3954 6.43941C29.3501 6.42143 29.3015 6.41365 29.2529 6.41664C29.2044 6.41963 29.1571 6.43332 29.1144 6.45672C29.0717 6.48012 29.0348 6.51265 29.0061 6.552C28.9775 6.59134 28.9579 6.63654 28.9488 6.68433C28.9396 6.73213 28.9411 6.78135 28.9532 6.82849C28.9653 6.87562 28.9877 6.91951 29.0187 6.95701L31.001 10.6096Z" fill="url(#paint7_linear_301_1122)"/>
<path d="M2.62486 39.3529L6.64455 40.5826L6.8281 39.9586L2.80841 38.7288C2.72568 38.7059 2.63726 38.716 2.56188 38.7571C2.48651 38.7983 2.4301 38.8671 2.4046 38.9491C2.38165 39.0318 2.39181 39.1202 2.43292 39.1956C2.47403 39.271 2.54287 39.3274 2.62486 39.3529Z" fill="url(#paint8_linear_301_1122)"/>
<path d="M1.3211 44.4551L5.45092 45.2995L5.5794 44.657L1.44959 43.8127C1.3696 43.8074 1.29039 43.8313 1.22673 43.88C1.16307 43.9288 1.11931 43.999 1.10359 44.0776C1.08786 44.1562 1.10126 44.2379 1.14128 44.3073C1.1813 44.3768 1.24521 44.4293 1.3211 44.4551Z" fill="url(#paint9_linear_301_1122)"/>
<path d="M0.569055 49.8705L4.77229 50.2926C4.77229 50.0724 4.77229 49.8521 4.77229 49.6502L0.587407 49.2281C0.50371 49.227 0.422433 49.2561 0.358407 49.31C0.294381 49.3639 0.251879 49.4391 0.238669 49.5217C0.236171 49.5666 0.24287 49.6116 0.258351 49.6538C0.273832 49.696 0.297766 49.7347 0.328698 49.7673C0.35963 49.8 0.396905 49.8259 0.438234 49.8437C0.479563 49.8614 0.52408 49.8705 0.569055 49.8705Z" fill="url(#paint10_linear_301_1122)"/>
<path d="M10.389 31.4235L10.6826 30.8545L7.01168 28.8722C6.97418 28.8412 6.9303 28.8188 6.88317 28.8067C6.83603 28.7946 6.7868 28.7931 6.73901 28.8023C6.69121 28.8114 6.64603 28.831 6.60668 28.8596C6.56733 28.8883 6.5348 28.9252 6.5114 28.9679C6.488 29.0106 6.47432 29.0579 6.47133 29.1065C6.46834 29.155 6.47611 29.2037 6.49409 29.2489C6.51208 29.2941 6.53983 29.3348 6.57536 29.368C6.61089 29.4013 6.65334 29.4263 6.69965 29.4412L10.389 31.4235Z" fill="url(#paint11_linear_301_1122)"/>
<path d="M8.33291 35.8103L8.57153 35.2046L4.69867 33.5894C4.62022 33.5643 4.53524 33.5695 4.4604 33.6039C4.38555 33.6382 4.32622 33.6993 4.29406 33.7751C4.2619 33.8509 4.25921 33.936 4.28652 34.0137C4.31383 34.0914 4.36918 34.1561 4.44171 34.1951L8.33291 35.8103Z" fill="url(#paint12_linear_301_1122)"/>
<path d="M12.9769 27.0734L13.344 26.5412L9.85658 24.1918C9.82273 24.1561 9.78135 24.1285 9.73545 24.1108C9.68956 24.0932 9.64031 24.086 9.59129 24.0899C9.54228 24.0937 9.49474 24.1084 9.45213 24.1329C9.40953 24.1575 9.37294 24.1912 9.34503 24.2317C9.31712 24.2722 9.29859 24.3183 9.2908 24.3669C9.28301 24.4154 9.28614 24.4651 9.29998 24.5123C9.31383 24.5594 9.33802 24.6029 9.3708 24.6396C9.40358 24.6762 9.44413 24.7051 9.48949 24.724L12.9769 27.0734Z" fill="url(#paint13_linear_301_1122)"/>
<path d="M15.84 23.127L16.2438 22.6314L12.9951 19.9517C12.9286 19.9213 12.8539 19.9139 12.7828 19.9305C12.7116 19.9472 12.648 19.9869 12.6018 20.0436C12.5557 20.1002 12.5296 20.1705 12.5277 20.2436C12.5258 20.3166 12.5481 20.3882 12.5912 20.4472L15.84 23.127Z" fill="url(#paint14_linear_301_1122)"/>
<path d="M91.0392 19.6769L94.031 16.7034C94.0713 16.6761 94.105 16.6403 94.1298 16.5984C94.1546 16.5565 94.1699 16.5097 94.1745 16.4613C94.1791 16.4128 94.1729 16.3639 94.1565 16.3181C94.14 16.2724 94.1136 16.2308 94.0792 16.1964C94.0448 16.162 94.0032 16.1356 93.9574 16.1191C93.9116 16.1026 93.8628 16.0965 93.8143 16.1011C93.7659 16.1057 93.7191 16.1209 93.6772 16.1457C93.6353 16.1705 93.5995 16.2043 93.5721 16.2446L90.5803 19.218L91.0392 19.6769Z" fill="url(#paint15_linear_301_1122)"/>
<path d="M97.2434 27.3855L100.768 25.0544C100.822 24.9939 100.852 24.9154 100.852 24.8342C100.852 24.7529 100.822 24.6745 100.768 24.6139C100.707 24.5597 100.629 24.5298 100.547 24.5298C100.466 24.5298 100.388 24.5597 100.327 24.6139L96.8947 26.7981L97.2434 27.3855Z" fill="url(#paint16_linear_301_1122)"/>
<path d="M4.55179 55.1378C4.55179 55.1378 4.55179 55.046 4.55179 54.991C4.55179 54.9359 4.55179 54.6606 4.55179 54.4771H0.3302C0.258085 54.4944 0.193909 54.5356 0.148006 54.5938C0.102104 54.6521 0.0771484 54.7241 0.0771484 54.7983C0.0771484 54.8725 0.102104 54.9445 0.148006 55.0027C0.193909 55.061 0.258085 55.1021 0.3302 55.1195H4.55179V55.1378Z" fill="url(#paint17_linear_301_1122)"/>
<path d="M94.2697 23.3111L97.5368 20.6313C97.5799 20.5723 97.6023 20.5007 97.6004 20.4277C97.5984 20.3546 97.5724 20.2843 97.5262 20.2276C97.4801 20.171 97.4164 20.1313 97.3453 20.1146C97.2741 20.098 97.1995 20.1054 97.133 20.1357L93.8658 22.7972L94.2697 23.3111Z" fill="url(#paint18_linear_301_1122)"/>
<path d="M101.814 36.1591L105.705 34.5622C105.771 34.5217 105.821 34.4591 105.846 34.3853C105.871 34.3116 105.869 34.2314 105.84 34.159C105.812 34.0866 105.759 34.0266 105.69 33.9896C105.622 33.9525 105.542 33.9408 105.466 33.9565L101.575 35.5534L101.814 36.1591Z" fill="url(#paint19_linear_301_1122)"/>
<path d="M99.7024 31.5707L103.373 29.5884C103.433 29.5394 103.473 29.4713 103.487 29.3959C103.502 29.3204 103.489 29.2423 103.452 29.1749C103.416 29.1076 103.356 29.0552 103.285 29.0268C103.213 28.9984 103.134 28.9958 103.061 29.0194L99.3904 31.0017L99.7024 31.5707Z" fill="url(#paint20_linear_301_1122)"/>
<path d="M105.264 50.4575L109.468 50.0537C109.552 50.0444 109.63 50.003 109.684 49.9381C109.739 49.8732 109.767 49.7896 109.761 49.7049C109.752 49.6205 109.711 49.543 109.646 49.4883C109.581 49.4336 109.497 49.406 109.413 49.4113L105.228 49.815C105.228 50.0169 105.246 50.2372 105.264 50.4575Z" fill="url(#paint21_linear_301_1122)"/>
<path d="M103.411 40.7297L107.449 39.5183C107.531 39.4928 107.599 39.4364 107.641 39.361C107.682 39.2856 107.692 39.1972 107.669 39.1145C107.658 39.0725 107.639 39.0331 107.613 38.9989C107.587 38.9646 107.553 38.9363 107.515 38.9155C107.477 38.8948 107.436 38.8822 107.392 38.8786C107.349 38.8749 107.306 38.8802 107.265 38.8942L103.245 40.1056L103.411 40.7297Z" fill="url(#paint22_linear_301_1122)"/>
<path d="M104.586 45.6486L108.715 44.841C108.8 44.8233 108.875 44.7729 108.923 44.7008C108.971 44.6287 108.989 44.5406 108.972 44.4555C108.966 44.4123 108.951 44.3709 108.927 44.334C108.904 44.2972 108.873 44.2656 108.837 44.2414C108.8 44.2172 108.759 44.2008 108.716 44.1935C108.673 44.1861 108.629 44.1878 108.587 44.1985L104.457 45.0062C104.53 45.153 104.549 45.4283 104.586 45.6486Z" fill="url(#paint23_linear_301_1122)"/>
<path d="M70.0419 6.80955L71.2717 2.78986C71.2955 2.70949 71.288 2.62308 71.2505 2.5481C71.213 2.47312 71.1484 2.41518 71.0698 2.38605C70.987 2.3631 70.8986 2.37325 70.8232 2.41436C70.7479 2.45548 70.6915 2.52434 70.666 2.60632L69.4178 6.60765L70.0419 6.80955Z" fill="url(#paint24_linear_301_1122)"/>
<path d="M65.3429 5.59878L66.1688 1.46896C66.1807 1.38919 66.163 1.30784 66.1191 1.24022C66.0751 1.1726 66.0079 1.12339 65.9302 1.10187C65.8879 1.09113 65.8438 1.0894 65.8008 1.09677C65.7577 1.10415 65.7167 1.12047 65.6804 1.14469C65.6441 1.16891 65.6132 1.20048 65.5898 1.23737C65.5665 1.27426 65.5511 1.31564 65.5448 1.35883L64.7004 5.48865L65.3429 5.59878Z" fill="url(#paint25_linear_301_1122)"/>
<path d="M55.0088 4.5339H55.5227V0.312334C55.5227 0.22471 55.4879 0.140657 55.4259 0.0786982C55.364 0.0167389 55.2799 -0.0180664 55.1923 -0.0180664C55.1047 -0.0180664 55.0207 0.0167389 54.9587 0.0786982C54.8968 0.140657 54.8619 0.22471 54.8619 0.312334V4.5339H55.0088Z" fill="url(#paint26_linear_301_1122)"/>
<path d="M87.3314 16.244L90.0112 12.9952C90.0483 12.9644 90.0781 12.9259 90.0987 12.8823C90.1193 12.8388 90.1302 12.7913 90.1305 12.7431C90.1308 12.6949 90.1205 12.6473 90.1005 12.6035C90.0804 12.5597 90.051 12.5208 90.0143 12.4895C89.9777 12.4583 89.9346 12.4354 89.8882 12.4226C89.8417 12.4098 89.7931 12.4072 89.7455 12.4152C89.698 12.4231 89.6528 12.4414 89.6131 12.4687C89.5734 12.4959 89.5401 12.5315 89.5156 12.573L86.8358 15.7851L87.3314 16.244Z" fill="url(#paint27_linear_301_1122)"/>
<path d="M60.3507 4.77242L60.7728 0.587542C60.7781 0.502815 60.7505 0.419314 60.6958 0.354382C60.6411 0.289451 60.5635 0.248068 60.4792 0.238797C60.3955 0.237748 60.3142 0.266829 60.2501 0.320746C60.1861 0.374662 60.1436 0.449824 60.1304 0.53248L59.7083 4.77242H60.3507Z" fill="url(#paint28_linear_301_1122)"/>
<path d="M83.4587 13.3257L85.8081 9.83825C85.8373 9.76832 85.8417 9.69046 85.8203 9.61773C85.799 9.54499 85.7533 9.4818 85.6909 9.43876C85.6285 9.39572 85.5532 9.37547 85.4776 9.38137C85.402 9.38727 85.3308 9.41897 85.2758 9.47117L82.9264 12.9586L83.4587 13.3257Z" fill="url(#paint29_linear_301_1122)"/>
<path d="M79.1455 10.6828L81.1278 7.0119C81.1514 6.93878 81.1487 6.85973 81.1203 6.78834C81.0919 6.71696 81.0396 6.65772 80.9722 6.62078C80.9048 6.58384 80.8267 6.57153 80.7513 6.58596C80.6758 6.6004 80.6077 6.64067 80.5588 6.69987L78.5581 10.3708L79.1455 10.6828Z" fill="url(#paint30_linear_301_1122)"/>
<path d="M74.7406 8.5536L76.4109 4.77253C76.4327 4.73206 76.4458 4.68749 76.4493 4.64168C76.4529 4.59586 76.4469 4.54981 76.4316 4.50646C76.4164 4.46311 76.3923 4.4234 76.3608 4.38989C76.3294 4.35639 76.2913 4.32981 76.249 4.31187C76.2067 4.29392 76.1611 4.28501 76.1151 4.28568C76.0692 4.28635 76.0239 4.29659 75.9821 4.31576C75.9404 4.33493 75.9031 4.3626 75.8726 4.39701C75.8421 4.43141 75.8192 4.47178 75.8052 4.51556L74.1716 8.38842L74.7406 8.5536Z" fill="url(#paint31_linear_301_1122)"/>
<path d="M30.854 99.3179L28.8717 102.989C28.8318 103.065 28.823 103.153 28.847 103.235C28.8709 103.317 28.9258 103.387 29.0002 103.429H29.147C29.2063 103.431 29.2648 103.416 29.3165 103.387C29.3681 103.358 29.411 103.315 29.4407 103.264L31.4413 99.5932L30.854 99.3179Z" fill="url(#paint32_linear_301_1122)"/>
<path d="M83.165 96.8765L82.6144 97.2252L84.9454 100.749C85.006 100.804 85.0844 100.833 85.1657 100.833C85.247 100.833 85.3254 100.804 85.386 100.749C85.4401 100.689 85.4701 100.61 85.4701 100.529C85.4701 100.448 85.4401 100.369 85.386 100.309L83.165 96.8765Z" fill="url(#paint33_linear_301_1122)"/>
<path d="M87.2028 93.8481L86.6888 94.252L89.4237 97.5191C89.4541 97.5585 89.493 97.5905 89.5375 97.6128C89.582 97.635 89.6309 97.6469 89.6807 97.6476C89.7463 97.6687 89.8169 97.6687 89.8826 97.6476C89.942 97.586 89.9752 97.5038 89.9752 97.4182C89.9752 97.3326 89.942 97.2503 89.8826 97.1887L87.2028 93.8481Z" fill="url(#paint34_linear_301_1122)"/>
<path d="M90.7825 90.5811L90.3236 91.0399L93.2971 94.0318C93.3288 94.0622 93.3662 94.0859 93.4071 94.1017C93.4481 94.1174 93.4918 94.1248 93.5357 94.1235C93.6184 94.1233 93.6976 94.0903 93.7559 94.0318C93.8154 93.9702 93.8486 93.8879 93.8486 93.8023C93.8486 93.7167 93.8154 93.6345 93.7559 93.5729L90.7825 90.5811Z" fill="url(#paint35_linear_301_1122)"/>
<path d="M79.0174 99.3916L78.4484 99.6853L80.4307 103.356C80.4603 103.408 80.5032 103.45 80.5549 103.479C80.6066 103.508 80.6651 103.523 80.7244 103.521H80.8712C80.9455 103.479 81.0004 103.409 81.0244 103.327C81.0484 103.245 81.0395 103.157 80.9997 103.081L79.0174 99.3916Z" fill="url(#paint36_linear_301_1122)"/>
<path d="M69.2338 103.411L70.4452 107.449C70.4648 107.517 70.5057 107.577 70.5619 107.62C70.618 107.663 70.6865 107.687 70.7572 107.688H70.8857C70.9677 107.662 71.0365 107.606 71.0776 107.53C71.1187 107.455 71.1289 107.367 71.1059 107.284L69.8945 103.264L69.2338 103.411Z" fill="url(#paint37_linear_301_1122)"/>
<path d="M64.3512 104.586L65.1588 108.715C65.175 108.787 65.2145 108.851 65.2709 108.897C65.3274 108.944 65.3977 108.97 65.4708 108.972C65.5557 108.955 65.6301 108.904 65.6782 108.832C65.7263 108.76 65.7441 108.672 65.7278 108.587L64.9202 104.457L64.3512 104.586Z" fill="url(#paint38_linear_301_1122)"/>
<path d="M73.8596 101.814L75.4565 105.724C75.481 105.782 75.5217 105.832 75.5738 105.868C75.6258 105.903 75.687 105.924 75.7502 105.926H75.8787C75.9581 105.893 76.0218 105.831 76.0561 105.752C76.0903 105.673 76.0925 105.584 76.0622 105.503L74.4653 101.612L73.8596 101.814Z" fill="url(#paint39_linear_301_1122)"/>
<path d="M94.178 86.8184L93.7742 87.3139L97.023 89.9937C97.0886 90.0148 97.1592 90.0148 97.2249 89.9937C97.2886 89.9887 97.3495 89.9654 97.4002 89.9266C97.4509 89.8877 97.4893 89.835 97.5106 89.7748C97.532 89.7146 97.5355 89.6494 97.5206 89.5873C97.5057 89.5252 97.4731 89.4687 97.4268 89.4247L94.178 86.8184Z" fill="url(#paint40_linear_301_1122)"/>
<path d="M109.449 60.1121L105.246 59.6899C105.246 59.9102 105.246 60.1304 105.246 60.3323L109.431 60.7545C109.503 60.7393 109.569 60.7 109.617 60.6431C109.664 60.5861 109.691 60.5148 109.693 60.4405C109.696 60.3663 109.673 60.2935 109.628 60.2339C109.584 60.1743 109.521 60.1314 109.449 60.1121Z" fill="url(#paint41_linear_301_1122)"/>
<path d="M97.0415 82.9087L96.6744 83.4409L100.162 85.7904C100.196 85.8261 100.237 85.8537 100.283 85.8713C100.329 85.8889 100.378 85.8961 100.427 85.8922C100.476 85.8884 100.524 85.8737 100.566 85.8492C100.609 85.8246 100.645 85.7909 100.673 85.7505C100.701 85.71 100.72 85.6638 100.728 85.6153C100.735 85.5667 100.732 85.517 100.718 85.4698C100.705 85.4227 100.68 85.3792 100.648 85.3426C100.615 85.3059 100.574 85.2771 100.529 85.2581L97.0415 82.9087Z" fill="url(#paint42_linear_301_1122)"/>
<path d="M108.66 65.545L104.53 64.7007L104.402 65.3431L108.532 66.1874C108.612 66.1928 108.691 66.1689 108.754 66.1202C108.818 66.0714 108.862 66.0012 108.878 65.9226C108.893 65.844 108.88 65.7623 108.84 65.6929C108.8 65.6234 108.736 65.5708 108.66 65.545Z" fill="url(#paint43_linear_301_1122)"/>
<path d="M109.614 54.8623H105.393C105.393 54.8623 105.393 54.9541 105.393 55.0091C105.393 55.0642 105.393 55.3395 105.393 55.523H109.614C109.702 55.523 109.786 55.4883 109.848 55.4263C109.91 55.3644 109.945 55.2803 109.945 55.1927C109.945 55.1051 109.91 55.021 109.848 54.959C109.786 54.8971 109.702 54.8623 109.614 54.8623Z" fill="url(#paint44_linear_301_1122)"/>
<path d="M99.6296 78.5767L99.3359 79.1457L103.007 81.128H103.154C103.213 81.1293 103.272 81.1147 103.323 81.0857C103.375 81.0566 103.418 81.0142 103.447 80.9628C103.487 80.887 103.496 80.7987 103.472 80.7166C103.448 80.6344 103.393 80.5647 103.319 80.5223L99.6296 78.5767Z" fill="url(#paint45_linear_301_1122)"/>
<path d="M107.393 70.6478L103.374 69.418L103.19 70.042L107.21 71.2718H107.302C107.371 71.2608 107.435 71.2279 107.485 71.1778C107.535 71.1278 107.567 71.0632 107.577 70.9935C107.587 70.9239 107.575 70.8527 107.542 70.7905C107.509 70.7283 107.457 70.6783 107.393 70.6478Z" fill="url(#paint46_linear_301_1122)"/>
<path d="M101.685 74.1719L101.446 74.7776L105.319 76.3561H105.448C105.52 76.3514 105.589 76.3231 105.643 76.2755C105.698 76.228 105.735 76.1639 105.75 76.0931C105.764 76.0222 105.755 75.9484 105.724 75.8832C105.693 75.818 105.641 75.7649 105.576 75.732L101.685 74.1719Z" fill="url(#paint47_linear_301_1122)"/>
<path d="M12.7749 82.6152L9.2508 84.9463C9.19895 84.9878 9.16084 85.0441 9.14145 85.1076C9.12206 85.1712 9.12229 85.2392 9.14211 85.3026C9.16194 85.3661 9.20043 85.422 9.25257 85.4632C9.3047 85.5044 9.36805 85.529 9.43435 85.5336C9.4943 85.551 9.55795 85.551 9.6179 85.5336L13.1237 83.2026L12.7749 82.6152Z" fill="url(#paint48_linear_301_1122)"/>
<path d="M4.75378 59.5435L0.550544 59.9473C0.478429 59.9646 0.414253 60.0057 0.36835 60.064C0.322447 60.1223 0.297485 60.1943 0.297485 60.2684C0.297485 60.3426 0.322447 60.4147 0.36835 60.473C0.414253 60.5312 0.478429 60.5723 0.550544 60.5897L4.73542 60.1859C4.79049 59.984 4.77213 59.8371 4.75378 59.5435Z" fill="url(#paint49_linear_301_1122)"/>
<path d="M15.7485 86.6899L12.4813 89.3697C12.435 89.4137 12.4024 89.4702 12.3875 89.5323C12.3726 89.5945 12.3761 89.6596 12.3974 89.7198C12.4188 89.78 12.4572 89.8328 12.5079 89.8716C12.5586 89.9105 12.6195 89.9338 12.6832 89.9387C12.7489 89.9598 12.8195 89.9598 12.8851 89.9387L16.1523 87.2773L15.7485 86.6899Z" fill="url(#paint50_linear_301_1122)"/>
<path d="M10.3153 78.4302L6.64433 80.4125C6.58699 80.4497 6.54263 80.5039 6.51738 80.5675C6.49212 80.631 6.4872 80.7008 6.50332 80.7673C6.51943 80.8338 6.55578 80.8936 6.60734 80.9386C6.65889 80.9835 6.72312 81.0113 6.79117 81.0182H6.93801L10.609 79.0359L10.3153 78.4302Z" fill="url(#paint51_linear_301_1122)"/>
<path d="M8.18574 73.8418L4.29453 75.4387C4.23005 75.4715 4.17814 75.5246 4.14678 75.5898C4.11542 75.6551 4.10633 75.7288 4.12092 75.7997C4.13552 75.8706 4.17298 75.9347 4.22756 75.9822C4.28214 76.0297 4.3508 76.058 4.42301 76.0627H4.5515L8.44271 74.4659L8.18574 73.8418Z" fill="url(#paint52_linear_301_1122)"/>
<path d="M5.4144 64.3521L1.3213 65.1597C1.24918 65.177 1.18501 65.2181 1.1391 65.2764C1.0932 65.3347 1.06824 65.4067 1.06824 65.4809C1.06824 65.5551 1.0932 65.6271 1.1391 65.6854C1.18501 65.7436 1.24918 65.7847 1.3213 65.8021L5.45111 64.9945C5.48782 64.7742 5.46947 64.554 5.4144 64.3521Z" fill="url(#paint53_linear_301_1122)"/>
<path d="M6.60736 69.2529L2.56932 70.4644C2.49668 70.4894 2.43502 70.5388 2.39495 70.6044C2.35487 70.6699 2.33889 70.7474 2.34976 70.8235C2.36062 70.8995 2.39765 70.9694 2.45447 71.0211C2.51129 71.0728 2.58435 71.1031 2.66109 71.1068H2.75286L6.77256 69.8954L6.60736 69.2529Z" fill="url(#paint54_linear_301_1122)"/>
<path d="M18.9782 90.3242L16.0048 93.2977C15.9453 93.3593 15.9121 93.4416 15.9121 93.5272C15.9121 93.6128 15.9453 93.695 16.0048 93.7566C16.0364 93.787 16.0739 93.8108 16.1148 93.8265C16.1558 93.8423 16.1995 93.8497 16.2434 93.8484C16.3261 93.8482 16.4053 93.8152 16.4636 93.7566L19.4555 90.7831L18.9782 90.3242Z" fill="url(#paint55_linear_301_1122)"/>
<path d="M55.0089 105.467H54.55V109.688C54.55 109.776 54.5849 109.86 54.6468 109.922C54.7088 109.984 54.7928 110.019 54.8804 110.019C54.9681 110.019 55.0521 109.984 55.114 109.922C55.176 109.86 55.2108 109.776 55.2108 109.688V105.467H55.0089Z" fill="url(#paint56_linear_301_1122)"/>
<path d="M49.6674 105.173L49.2453 109.394C49.24 109.479 49.2676 109.563 49.3223 109.628C49.377 109.692 49.4546 109.734 49.5389 109.743C49.6206 109.744 49.6995 109.714 49.7605 109.66C49.8215 109.605 49.8603 109.531 49.8693 109.449L50.2915 105.246L49.6674 105.173Z" fill="url(#paint57_linear_301_1122)"/>
<path d="M44.6754 104.402L43.8494 108.514C43.8331 108.599 43.8509 108.687 43.899 108.759C43.9471 108.831 44.0215 108.882 44.1064 108.899C44.1795 108.897 44.2498 108.871 44.3063 108.824C44.3627 108.778 44.4022 108.714 44.4184 108.642L45.3728 104.512L44.6754 104.402Z" fill="url(#paint58_linear_301_1122)"/>
<path d="M22.6864 93.7378L20.0066 96.9866C19.9696 97.0173 19.9397 97.0559 19.9191 97.0994C19.8985 97.143 19.8876 97.1905 19.8873 97.2387C19.887 97.2869 19.8973 97.3345 19.9173 97.3783C19.9374 97.4221 19.9668 97.461 20.0035 97.4922C20.0401 97.5234 20.0832 97.5463 20.1296 97.5591C20.1761 97.572 20.2248 97.5745 20.2723 97.5666C20.3198 97.5586 20.365 97.5404 20.4047 97.5131C20.4444 97.4858 20.4777 97.4502 20.5022 97.4087L23.182 94.16L22.6864 93.7378Z" fill="url(#paint59_linear_301_1122)"/>
<path d="M59.5613 105.247L59.9651 109.395C59.9741 109.476 60.0129 109.551 60.0739 109.605C60.1349 109.659 60.2138 109.689 60.2955 109.689C60.3739 109.685 60.4484 109.653 60.5055 109.599C60.5627 109.545 60.5989 109.473 60.6075 109.395L60.2037 105.21L59.5613 105.247Z" fill="url(#paint60_linear_301_1122)"/>
<path d="M26.5593 96.6748L24.1915 100.217C24.1559 100.251 24.1282 100.292 24.1106 100.338C24.093 100.384 24.0858 100.434 24.0896 100.483C24.0935 100.532 24.1082 100.579 24.1327 100.622C24.1572 100.664 24.191 100.701 24.2314 100.729C24.2719 100.757 24.3181 100.775 24.3666 100.783C24.4152 100.791 24.4648 100.788 24.512 100.774C24.5592 100.76 24.6027 100.736 24.6393 100.703C24.676 100.67 24.7048 100.63 24.7238 100.584L27.0732 97.0969L26.5593 96.6748Z" fill="url(#paint61_linear_301_1122)"/>
<path d="M39.9765 103.191L38.7468 107.211C38.7238 107.293 38.734 107.382 38.7751 107.457C38.8162 107.532 38.885 107.589 38.967 107.614H39.0588C39.1295 107.613 39.198 107.589 39.2541 107.547C39.3103 107.504 39.3512 107.444 39.3708 107.376L40.6006 103.356L39.9765 103.191Z" fill="url(#paint62_linear_301_1122)"/>
<path d="M35.2227 101.429L33.6074 105.302C33.5759 105.38 33.5755 105.467 33.6062 105.545C33.6369 105.624 33.6965 105.688 33.7726 105.724H33.9011C33.9642 105.722 34.0255 105.702 34.0775 105.666C34.1296 105.63 34.1703 105.58 34.1948 105.522L35.81 101.649L35.2227 101.429Z" fill="url(#paint63_linear_301_1122)"/>
<path d="M30.7995 15.0505L31.3501 14.7201L27.2754 7.87379C27.2546 7.8367 27.2264 7.80424 27.1926 7.77843C27.1588 7.75261 27.1201 7.73399 27.0789 7.72367C27.0376 7.71336 26.9947 7.71159 26.9527 7.71846C26.9108 7.72534 26.8707 7.74073 26.8349 7.76367C26.7637 7.80911 26.7126 7.88006 26.6921 7.96198C26.6716 8.04391 26.6833 8.13057 26.7247 8.20416L30.7995 15.0505Z" fill="url(#paint64_linear_301_1122)"/>
<path d="M27.0179 17.6203L27.5318 17.2348L22.778 10.8291C22.7487 10.7974 22.7133 10.7721 22.6738 10.7548C22.6343 10.7375 22.5916 10.7285 22.5485 10.7285C22.5054 10.7285 22.4628 10.7375 22.4233 10.7548C22.3838 10.7721 22.3483 10.7974 22.3191 10.8291C22.2597 10.8906 22.2264 10.9729 22.2264 11.0585C22.2264 11.1441 22.2597 11.2263 22.3191 11.2879L27.0179 17.6203Z" fill="url(#paint65_linear_301_1122)"/>
<path d="M34.7452 12.903L35.3326 12.6277L31.937 5.43264C31.8918 5.37065 31.8264 5.32632 31.7521 5.30725C31.6778 5.28818 31.5992 5.29556 31.5298 5.32811C31.4603 5.36067 31.4043 5.41638 31.3715 5.48568C31.3386 5.55499 31.3309 5.63356 31.3496 5.70795L34.7452 12.903Z" fill="url(#paint66_linear_301_1122)"/>
<path d="M23.476 20.5382L23.9532 20.0977L18.6119 14.1875C18.5827 14.1558 18.5473 14.1305 18.5078 14.1132C18.4683 14.0959 18.4256 14.0869 18.3825 14.0869C18.3394 14.0869 18.2968 14.0959 18.2573 14.1132C18.2178 14.1305 18.1823 14.1558 18.1531 14.1875C18.0936 14.2491 18.0604 14.3313 18.0604 14.4169C18.0604 14.5025 18.0936 14.5848 18.1531 14.6464L23.476 20.5382Z" fill="url(#paint67_linear_301_1122)"/>
<path d="M39.6649 10.8656L37.0035 3.35853C36.9972 3.30935 36.98 3.26221 36.953 3.2206C36.9261 3.17899 36.8901 3.14399 36.8478 3.11817C36.8055 3.09236 36.7579 3.07638 36.7085 3.07146C36.6592 3.06653 36.6094 3.07278 36.5628 3.08972C36.5162 3.10666 36.474 3.13388 36.4394 3.16934C36.4047 3.2048 36.3785 3.24759 36.3627 3.29456C36.3468 3.34154 36.3418 3.39147 36.3478 3.44068C36.3539 3.48988 36.371 3.5371 36.3978 3.57881L39.0592 11.0859L39.6649 10.8656Z" fill="url(#paint68_linear_301_1122)"/>
<path d="M53.0455 8.3327L52.7151 0.366743C52.7104 0.282339 52.6735 0.202942 52.6121 0.144899C52.5506 0.0868555 52.4692 0.0545573 52.3847 0.0546879C52.3413 0.0570323 52.2988 0.0679478 52.2596 0.086756C52.2204 0.105564 52.1853 0.13191 52.1563 0.164308C52.1273 0.196705 52.105 0.234517 52.0907 0.275552C52.0763 0.316588 52.0702 0.360031 52.0727 0.403433L52.4031 8.44282L53.0455 8.3327Z" fill="url(#paint69_linear_301_1122)"/>
<path d="M43.9778 9.59931L42.0505 1.87195C42.0512 1.82176 42.0404 1.77208 42.019 1.72668C41.9976 1.68127 41.9662 1.64132 41.927 1.60989C41.8879 1.57846 41.8421 1.55636 41.7931 1.54527C41.7442 1.53418 41.6933 1.53439 41.6445 1.54589C41.5956 1.55739 41.55 1.57987 41.5111 1.61162C41.4723 1.64338 41.4411 1.68358 41.4201 1.72917C41.3991 1.77475 41.3888 1.82451 41.3898 1.87469C41.3909 1.92488 41.4035 1.97417 41.4264 2.01879L43.3537 9.74615L43.9778 9.59931Z" fill="url(#paint70_linear_301_1122)"/>
<path d="M48.5666 8.73652L47.4102 0.843978C47.4059 0.801083 47.3927 0.759545 47.3715 0.722007C47.3503 0.684468 47.3215 0.651755 47.287 0.625886C47.2525 0.600017 47.213 0.581569 47.1711 0.57172C47.1291 0.561872 47.0855 0.560839 47.0431 0.568668C46.9586 0.582274 46.8827 0.62813 46.8313 0.696604C46.78 0.765079 46.7572 0.850823 46.7678 0.935757L47.9242 8.8283L48.5666 8.73652Z" fill="url(#paint71_linear_301_1122)"/>
<path d="M3.41391 36.8743L10.921 39.6458L11.1413 39.0401L3.63416 36.3604C3.57901 36.3691 3.52696 36.3917 3.4829 36.426C3.43883 36.4603 3.40418 36.5052 3.38218 36.5565C3.36018 36.6078 3.35156 36.6639 3.3571 36.7195C3.36265 36.7751 3.3822 36.8283 3.41391 36.8743Z" fill="url(#paint72_linear_301_1122)"/>
<path d="M20.1898 23.879L20.6304 23.4018L14.7201 18.0422C14.6911 18.0033 14.6539 17.9712 14.6111 17.9483C14.5683 17.9254 14.521 17.9122 14.4725 17.9096C14.4241 17.9071 14.3756 17.9152 14.3306 17.9335C14.2857 17.9518 14.2453 17.9798 14.2124 18.0154C14.1794 18.0511 14.1548 18.0936 14.1401 18.1399C14.1255 18.1862 14.1212 18.2351 14.1277 18.2833C14.1341 18.3314 14.151 18.3775 14.1773 18.4183C14.2036 18.4591 14.2385 18.4937 14.2796 18.5195L20.1898 23.879Z" fill="url(#paint73_linear_301_1122)"/>
<path d="M0.881376 47.2812L8.77392 48.4559L8.86569 47.8135L0.973156 46.6388C0.888221 46.6282 0.802485 46.651 0.73401 46.7023C0.665535 46.7537 0.619666 46.8296 0.606059 46.9141C0.595461 46.999 0.618238 47.0848 0.669594 47.1532C0.72095 47.2217 0.796872 47.2676 0.881376 47.2812Z" fill="url(#paint74_linear_301_1122)"/>
<path d="M1.92715 41.9037L9.65449 43.8493L9.81969 43.2252L2.09233 41.2797C2.00977 41.2628 1.92389 41.2781 1.85224 41.3224C1.78058 41.3668 1.72858 41.4368 1.70689 41.5183C1.68917 41.5984 1.70192 41.6823 1.74263 41.7535C1.78334 41.8248 1.84912 41.8783 1.92715 41.9037Z" fill="url(#paint75_linear_301_1122)"/>
<path d="M12.683 35.2223L12.9583 34.6349L5.76325 31.2209C5.68886 31.2022 5.61028 31.2099 5.54097 31.2428C5.47167 31.2757 5.41596 31.3316 5.38341 31.4011C5.35085 31.4705 5.34348 31.5492 5.36255 31.6235C5.38162 31.6978 5.42595 31.7631 5.48793 31.8083L12.683 35.2223Z" fill="url(#paint76_linear_301_1122)"/>
<path d="M17.364 27.3481L17.8412 26.7975L11.4538 22.0436C11.3857 22.0142 11.3097 22.0086 11.238 22.0277C11.1663 22.0468 11.1031 22.0894 11.0586 22.1488C11.0141 22.2081 10.9909 22.2807 10.9926 22.3548C10.9944 22.429 11.0211 22.5004 11.0684 22.5575L17.364 27.3481Z" fill="url(#paint77_linear_301_1122)"/>
<path d="M14.7755 31.2579L15.1059 30.7072L8.27793 26.6141C8.20721 26.592 8.13113 26.5944 8.0619 26.6208C7.99267 26.6471 7.93432 26.696 7.8962 26.7595C7.85809 26.823 7.84243 26.8975 7.85174 26.971C7.86105 27.0445 7.89479 27.1127 7.94754 27.1648L14.7755 31.2579Z" fill="url(#paint78_linear_301_1122)"/>
<path d="M71.0692 11.1225L73.749 3.6154C73.7758 3.57369 73.7929 3.5265 73.7989 3.4773C73.805 3.42809 73.7999 3.37816 73.7841 3.33118C73.7682 3.28421 73.742 3.2414 73.7074 3.20594C73.6727 3.17047 73.6305 3.14328 73.584 3.12634C73.5374 3.1094 73.4876 3.10315 73.4382 3.10808C73.3889 3.113 73.3413 3.12895 73.299 3.15477C73.2567 3.18059 73.2207 3.21561 73.1937 3.25722C73.1668 3.29883 73.1495 3.34597 73.1433 3.39515L70.4635 10.8839L71.0692 11.1225Z" fill="url(#paint79_linear_301_1122)"/>
<path d="M99.1336 39.6458L106.641 36.9843C106.704 36.9438 106.751 36.883 106.775 36.812C106.799 36.741 106.798 36.6639 106.773 36.5935C106.747 36.523 106.698 36.4634 106.634 36.4243C106.57 36.3853 106.495 36.3692 106.42 36.3786L98.9133 39.04L99.1336 39.6458Z" fill="url(#paint80_linear_301_1122)"/>
<path d="M97.3722 35.314L104.567 31.9183C104.615 31.9064 104.659 31.8842 104.696 31.8533C104.734 31.8224 104.764 31.7835 104.785 31.7395C104.806 31.6955 104.817 31.6474 104.817 31.5987C104.817 31.55 104.806 31.5018 104.786 31.4577C104.765 31.4136 104.735 31.3746 104.697 31.3435C104.66 31.3125 104.616 31.2901 104.569 31.2779C104.522 31.2658 104.472 31.2643 104.424 31.2735C104.377 31.2827 104.331 31.3023 104.292 31.331L97.0969 34.745L97.3722 35.314Z" fill="url(#paint81_linear_301_1122)"/>
<path d="M95.2975 31.3496L102.144 27.2748C102.186 27.254 102.223 27.2245 102.252 27.1884C102.282 27.1522 102.303 27.1102 102.315 27.0651C102.327 27.02 102.33 26.9729 102.323 26.9268C102.315 26.8806 102.298 26.8366 102.272 26.7976C102.227 26.7264 102.156 26.6754 102.074 26.6549C101.992 26.6344 101.905 26.6461 101.832 26.6875L94.9304 30.7989L95.2975 31.3496Z" fill="url(#paint82_linear_301_1122)"/>
<path d="M92.7286 27.4404L99.1344 22.6865C99.1803 22.6667 99.2211 22.6367 99.2537 22.5989C99.2863 22.5611 99.31 22.5163 99.3228 22.4681C99.3357 22.4198 99.3374 22.3692 99.3279 22.3202C99.3183 22.2711 99.2978 22.2249 99.2678 22.1849C99.2379 22.1449 99.1992 22.1123 99.1548 22.0894C99.1104 22.0665 99.0613 22.054 99.0114 22.0528C98.9614 22.0516 98.9119 22.0618 98.8664 22.0825C98.821 22.1033 98.7808 22.134 98.749 22.1725L92.3431 26.9264L92.7286 27.4404Z" fill="url(#paint83_linear_301_1122)"/>
<path d="M101.667 53.0264L109.633 52.6409C109.705 52.6236 109.769 52.5825 109.815 52.5242C109.861 52.4659 109.886 52.3939 109.886 52.3197C109.886 52.2456 109.861 52.1736 109.815 52.1153C109.769 52.057 109.705 52.0159 109.633 51.9985L101.667 52.384C101.649 52.6043 101.649 52.8245 101.667 53.0264Z" fill="url(#paint84_linear_301_1122)"/>
<path d="M89.9013 23.9524L95.8115 18.6112C95.871 18.5496 95.9042 18.4673 95.9042 18.3817C95.9042 18.2961 95.871 18.2139 95.8115 18.1523C95.7823 18.1206 95.7468 18.0953 95.7073 18.078C95.6679 18.0607 95.6252 18.0518 95.5821 18.0518C95.539 18.0518 95.4963 18.0607 95.4568 18.078C95.4173 18.0953 95.3819 18.1206 95.3527 18.1523L89.4241 23.4752L89.9013 23.9524Z" fill="url(#paint85_linear_301_1122)"/>
<path d="M100.437 43.9772L108.165 42.0499C108.211 42.006 108.244 41.9495 108.259 41.8873C108.273 41.8252 108.27 41.7601 108.249 41.6999C108.227 41.6396 108.189 41.5869 108.138 41.5481C108.087 41.5092 108.027 41.4859 107.963 41.481L100.235 43.3164L100.437 43.9772Z" fill="url(#paint86_linear_301_1122)"/>
<path d="M101.263 48.5663L109.156 47.41C109.228 47.385 109.29 47.3355 109.33 47.2699C109.37 47.2044 109.386 47.1269 109.375 47.0509C109.365 46.9748 109.327 46.9049 109.271 46.8532C109.214 46.8015 109.141 46.7712 109.064 46.7676L101.172 47.9239C101.208 48.1442 101.245 48.3461 101.263 48.5663Z" fill="url(#paint87_linear_301_1122)"/>
<path d="M79.311 15.1057L83.4041 8.27768C83.4392 8.24207 83.4658 8.19894 83.4818 8.15157C83.4978 8.10419 83.5029 8.05381 83.4966 8.00419C83.4903 7.95458 83.4729 7.90702 83.4455 7.86514C83.4182 7.82326 83.3817 7.78814 83.3388 7.76241C83.296 7.73668 83.2478 7.72102 83.198 7.71662C83.1481 7.71221 83.098 7.71918 83.0512 7.73698C83.0045 7.75478 82.9624 7.78294 82.9282 7.81937C82.8939 7.85581 82.8684 7.89954 82.8535 7.94728L78.7604 14.7753L79.311 15.1057Z" fill="url(#paint88_linear_301_1122)"/>
<path d="M66.7746 9.80096L68.7202 2.0736C68.7312 2.03141 68.7338 1.98747 68.7277 1.94429C68.7217 1.90111 68.7071 1.85954 68.685 1.82201C68.6628 1.78447 68.6334 1.7517 68.5985 1.72558C68.5636 1.69945 68.5238 1.68048 68.4816 1.66979C68.399 1.6529 68.3131 1.6682 68.2415 1.71256C68.1698 1.75691 68.1178 1.82698 68.0961 1.90841L66.1505 9.63574L66.7746 9.80096Z" fill="url(#paint89_linear_301_1122)"/>
<path d="M62.186 8.84637L63.3607 0.953823C63.3713 0.868889 63.3485 0.783173 63.2972 0.714699C63.2458 0.646224 63.1699 0.600341 63.0854 0.586734C63.043 0.578905 62.9994 0.579939 62.9574 0.589787C62.9155 0.599635 62.876 0.618084 62.8415 0.643953C62.807 0.669822 62.7783 0.702563 62.757 0.740101C62.7358 0.77764 62.7226 0.81915 62.7183 0.862044L61.5436 8.75459L62.186 8.84637Z" fill="url(#paint90_linear_301_1122)"/>
<path d="M0.385505 52.4945L8.35147 52.8983C8.35147 52.678 8.35147 52.4639 8.35147 52.2559L0.385505 51.8521C0.31339 51.8694 0.249214 51.9105 0.203311 51.9688C0.157408 52.0271 0.132446 52.0991 0.132446 52.1733C0.132446 52.2474 0.157408 52.3195 0.203311 52.3777C0.249214 52.436 0.31339 52.4771 0.385505 52.4945Z" fill="url(#paint91_linear_301_1122)"/>
<path d="M83.1655 17.7305L87.9194 11.3431C87.9488 11.275 87.9544 11.199 87.9353 11.1273C87.9163 11.0556 87.8736 10.9924 87.8143 10.9479C87.755 10.9034 87.6824 10.8802 87.6082 10.8819C87.5341 10.8837 87.4627 10.9104 87.4055 10.9576L82.6516 17.3451L83.1655 17.7305Z" fill="url(#paint92_linear_301_1122)"/>
<path d="M86.6158 20.6121L91.9754 14.7018C92.0143 14.6728 92.0464 14.6356 92.0693 14.5928C92.0922 14.55 92.1054 14.5027 92.108 14.4542C92.1105 14.4057 92.1024 14.3573 92.0841 14.3123C92.0658 14.2674 92.0378 14.227 92.0021 14.1941C91.9665 14.1611 91.924 14.1365 91.8777 14.1218C91.8314 14.1072 91.7825 14.1029 91.7343 14.1093C91.6862 14.1158 91.6401 14.1327 91.5993 14.159C91.5585 14.1852 91.5239 14.2202 91.4981 14.2613L86.1385 20.1715L86.6158 20.6121Z" fill="url(#paint93_linear_301_1122)"/>
<path d="M75.3643 12.9579L78.7783 5.76279C78.807 5.72342 78.8266 5.67819 78.8358 5.63034C78.8449 5.58249 78.8434 5.53321 78.8313 5.48602C78.8192 5.43883 78.7968 5.3949 78.7657 5.35738C78.7346 5.31987 78.6956 5.2897 78.6515 5.26902C78.6074 5.24834 78.5593 5.23768 78.5105 5.23779C78.4618 5.2379 78.4137 5.24879 78.3697 5.26967C78.3257 5.29054 78.2868 5.3209 78.2559 5.35856C78.225 5.39622 78.2028 5.44023 78.1909 5.48748L74.7402 12.6825L75.3643 12.9579Z" fill="url(#paint94_linear_301_1122)"/>
<path d="M57.7261 8.44282L58.2216 0.403433C58.2241 0.360031 58.218 0.316588 58.2037 0.275552C58.1893 0.234517 58.167 0.196705 58.138 0.164308C58.109 0.13191 58.0739 0.105564 58.0347 0.086756C57.9955 0.0679478 57.953 0.0570323 57.9096 0.0546879C57.8251 0.0545573 57.7437 0.0868555 57.6822 0.144899C57.6208 0.202942 57.5839 0.282339 57.5792 0.366743L57.1754 8.3327L57.7261 8.44282Z" fill="url(#paint95_linear_301_1122)"/>
<path d="M47.8328 101.153L46.6581 109.045C46.6475 109.13 46.6702 109.216 46.7216 109.284C46.773 109.353 46.8489 109.399 46.9334 109.412C47.0091 109.409 47.0814 109.38 47.1382 109.33C47.195 109.28 47.2329 109.212 47.2454 109.137L48.4201 101.245L47.8328 101.153Z" fill="url(#paint96_linear_301_1122)"/>
<path d="M83.0921 92.3242L82.5781 92.7097L87.332 99.1154C87.3624 99.1548 87.4013 99.1869 87.4458 99.2091C87.4903 99.2314 87.5392 99.2433 87.589 99.2439C87.6544 99.2663 87.7254 99.2663 87.7909 99.2439C87.8503 99.1824 87.8835 99.1001 87.8835 99.0145C87.8835 98.9289 87.8503 98.8467 87.7909 98.7851L83.0921 92.3242Z" fill="url(#paint97_linear_301_1122)"/>
<path d="M79.2194 94.9487L78.6687 95.2791L82.7435 102.052C82.7715 102.101 82.8115 102.141 82.8597 102.17C82.9079 102.199 82.9626 102.215 83.0188 102.217H83.184C83.2552 102.172 83.3062 102.101 83.3267 102.019C83.3472 101.937 83.3355 101.85 83.2941 101.777L79.2194 94.9487Z" fill="url(#paint98_linear_301_1122)"/>
<path d="M86.5423 89.4424L86.0651 89.8829L91.4063 95.7931C91.4681 95.8391 91.544 95.8621 91.621 95.858C91.698 95.854 91.7711 95.8231 91.8277 95.7709C91.8843 95.7186 91.9209 95.6482 91.9311 95.5718C91.9413 95.4954 91.9244 95.4179 91.8835 95.3526L86.5423 89.4424Z" fill="url(#paint99_linear_301_1122)"/>
<path d="M75.2733 97.0776L74.6859 97.3529L78.0815 104.548C78.1087 104.603 78.1505 104.649 78.2024 104.681C78.2542 104.714 78.3141 104.731 78.3752 104.732H78.522C78.5995 104.692 78.6584 104.624 78.6859 104.541C78.7134 104.459 78.7073 104.369 78.6689 104.291L75.2733 97.0776Z" fill="url(#paint100_linear_301_1122)"/>
<path d="M89.8282 86.1201L89.3877 86.5973L95.2979 91.9569C95.3692 91.9821 95.4469 91.9821 95.5182 91.9569C95.5834 91.9553 95.6467 91.9344 95.7001 91.8969C95.7535 91.8593 95.7946 91.8068 95.8181 91.7459C95.8417 91.6851 95.8467 91.6186 95.8325 91.5549C95.8183 91.4911 95.7856 91.4331 95.7384 91.3879L89.8282 86.1201Z" fill="url(#paint101_linear_301_1122)"/>
<path d="M66.0406 100.381L67.9679 108.109C67.9875 108.177 68.0284 108.237 68.0846 108.28C68.1408 108.323 68.2092 108.346 68.2799 108.347C68.3614 108.326 68.4314 108.274 68.4758 108.202C68.5201 108.13 68.5354 108.045 68.5185 107.962L66.6647 100.216L66.0406 100.381Z" fill="url(#paint102_linear_301_1122)"/>
<path d="M70.3538 99.1336L73.0152 106.641C73.038 106.705 73.0803 106.761 73.1362 106.8C73.192 106.84 73.2588 106.861 73.3272 106.861H73.4374C73.4784 106.847 73.5161 106.824 73.5485 106.795C73.5809 106.766 73.6072 106.731 73.6259 106.692C73.6447 106.653 73.6555 106.61 73.6578 106.567C73.6601 106.523 73.6538 106.48 73.6393 106.439L70.9778 98.9316L70.3538 99.1336Z" fill="url(#paint103_linear_301_1122)"/>
<path d="M92.6552 82.6328L92.2698 83.1467L98.6022 87.9189C98.6678 87.94 98.7384 87.94 98.8041 87.9189C98.8719 87.9178 98.9377 87.8958 98.9926 87.8559C99.0475 87.816 99.0888 87.7602 99.1108 87.696C99.1329 87.6318 99.1346 87.5625 99.1159 87.4973C99.0971 87.4321 99.0587 87.3743 99.006 87.3316L92.6552 82.6328Z" fill="url(#paint104_linear_301_1122)"/>
<path d="M108.091 68.0774L100.437 66.1318L100.272 66.7559L107.999 68.7015C108.069 68.6905 108.133 68.6576 108.183 68.6076C108.232 68.5575 108.264 68.4929 108.275 68.4232C108.285 68.3535 108.273 68.2824 108.24 68.2202C108.207 68.158 108.154 68.108 108.091 68.0774Z" fill="url(#paint105_linear_301_1122)"/>
<path d="M109.138 62.6996L101.245 61.5249L101.153 62.1673L109.046 63.342C109.122 63.3383 109.196 63.3081 109.252 63.2563C109.309 63.2046 109.346 63.1347 109.357 63.0587C109.368 62.9826 109.352 62.9052 109.312 62.8397C109.272 62.7741 109.21 62.7246 109.138 62.6996Z" fill="url(#paint106_linear_301_1122)"/>
<path d="M109.614 57.4683L101.648 57.0645C101.648 57.2847 101.648 57.4989 101.648 57.7069L109.614 58.1291C109.702 58.1291 109.786 58.0942 109.848 58.0323C109.91 57.9703 109.945 57.8863 109.945 57.7987C109.945 57.7111 109.91 57.627 109.848 57.5651C109.786 57.5031 109.702 57.4683 109.614 57.4683Z" fill="url(#paint107_linear_301_1122)"/>
<path d="M106.586 73.1251L99.0973 70.4453L98.8771 71.051L106.384 73.7308H106.494C106.558 73.7156 106.616 73.6815 106.661 73.6331C106.705 73.5846 106.735 73.524 106.744 73.4589C106.754 73.3938 106.744 73.3273 106.716 73.2678C106.688 73.2083 106.643 73.1586 106.586 73.1251Z" fill="url(#paint108_linear_301_1122)"/>
<path d="M95.2427 78.7417L94.9124 79.2924L101.74 83.3855H101.906C101.975 83.3819 102.042 83.3566 102.096 83.3129C102.15 83.2693 102.189 83.2096 102.207 83.1425C102.226 83.0753 102.222 83.0041 102.198 82.939C102.173 82.8738 102.129 82.8181 102.071 82.7798L95.2427 78.7417Z" fill="url(#paint109_linear_301_1122)"/>
<path d="M61.4331 101.263L62.5894 109.155C62.602 109.23 62.6399 109.298 62.6967 109.348C62.7535 109.398 62.8258 109.427 62.9015 109.431C62.986 109.417 63.0619 109.371 63.1133 109.303C63.1646 109.234 63.1874 109.148 63.1768 109.063L62.0205 101.171L61.4331 101.263Z" fill="url(#paint110_linear_301_1122)"/>
<path d="M97.335 74.7769L97.0597 75.3642L104.255 78.7782H104.402C104.475 78.7772 104.547 78.7516 104.604 78.7054C104.661 78.6593 104.702 78.5952 104.719 78.5235C104.736 78.4517 104.728 78.3764 104.697 78.3095C104.666 78.2425 104.614 78.1879 104.548 78.1541L97.335 74.7769Z" fill="url(#paint111_linear_301_1122)"/>
<path d="M10.8843 70.335L3.37724 72.9964C3.31342 73.0282 3.26159 73.0797 3.22949 73.1434C3.19738 73.2071 3.18673 73.2794 3.19912 73.3496C3.21151 73.4198 3.24628 73.4841 3.29823 73.5329C3.35018 73.5817 3.41653 73.6125 3.48738 73.6205H3.59751L11.1046 70.959L10.8843 70.335Z" fill="url(#paint112_linear_301_1122)"/>
<path d="M14.7203 78.6494L7.87399 82.7242C7.81589 82.7625 7.77139 82.8182 7.74683 82.8834C7.72228 82.9485 7.71891 83.0197 7.73723 83.0869C7.75554 83.154 7.7946 83.2137 7.84882 83.2573C7.90305 83.301 7.96966 83.3263 8.03918 83.3299H8.20437L15.0507 79.2551L14.7203 78.6494Z" fill="url(#paint113_linear_301_1122)"/>
<path d="M12.647 74.6665L5.45191 78.0622C5.38639 78.0959 5.33404 78.1506 5.30318 78.2175C5.27232 78.2845 5.26473 78.3598 5.28161 78.4316C5.29849 78.5033 5.33887 78.5674 5.39634 78.6135C5.45381 78.6597 5.52506 78.6852 5.59876 78.6862H5.74559L12.9407 75.2722L12.647 74.6665Z" fill="url(#paint114_linear_301_1122)"/>
<path d="M17.2901 82.5596L10.9027 87.3685C10.8499 87.4111 10.8115 87.469 10.7928 87.5342C10.774 87.5994 10.7758 87.6688 10.7978 87.7329C10.8199 87.7971 10.8612 87.8529 10.9161 87.8928C10.9709 87.9327 11.0368 87.9547 11.1046 87.9559C11.17 87.9782 11.2411 87.9782 11.3065 87.9559L17.7123 83.202L17.2901 82.5596Z" fill="url(#paint115_linear_301_1122)"/>
<path d="M8.66354 61.4331L0.771003 62.5895C0.698888 62.6068 0.634712 62.6479 0.588809 62.7062C0.542906 62.7645 0.517944 62.8365 0.517944 62.9106C0.517944 62.9848 0.542906 63.0569 0.588809 63.1152C0.634712 63.1734 0.698888 63.2145 0.771003 63.2319L8.66354 62.0755C8.81038 61.8553 8.77367 61.6717 8.66354 61.4331Z" fill="url(#paint116_linear_301_1122)"/>
<path d="M20.1168 86.0469L14.1699 91.3881C14.1287 91.4139 14.0938 91.4484 14.0675 91.4893C14.0413 91.5301 14.0243 91.5762 14.0179 91.6243C14.0115 91.6724 14.0158 91.7214 14.0304 91.7677C14.045 91.814 14.0697 91.8565 14.1026 91.8921C14.1356 91.9278 14.1759 91.9557 14.2209 91.974C14.2659 91.9923 14.3143 92.0005 14.3628 91.9979C14.4113 91.9954 14.4586 91.9822 14.5014 91.9592C14.5442 91.9363 14.5814 91.9043 14.6104 91.8654L20.539 86.5241L20.1168 86.0469Z" fill="url(#paint117_linear_301_1122)"/>
<path d="M9.61822 66.0215L1.89088 67.9488C1.81876 67.9661 1.75459 68.0072 1.70868 68.0655C1.66278 68.1238 1.63782 68.1958 1.63782 68.27C1.63782 68.3441 1.66278 68.4161 1.70868 68.4744C1.75459 68.5327 1.81876 68.5738 1.89088 68.5911L9.61822 66.6639V66.0215Z" fill="url(#paint118_linear_301_1122)"/>
<path d="M56.973 101.649L57.3585 109.614C57.3632 109.699 57.4 109.778 57.4615 109.836C57.5229 109.894 57.6043 109.927 57.6888 109.927C57.7323 109.924 57.7748 109.913 57.814 109.894C57.8532 109.876 57.8883 109.849 57.9172 109.817C57.9462 109.784 57.9685 109.747 57.9829 109.706C57.9972 109.665 58.0033 109.621 58.0009 109.578L57.6154 101.612L56.973 101.649Z" fill="url(#paint119_linear_301_1122)"/>
<path d="M8.35146 56.9546L0.385505 57.3401C0.31339 57.3574 0.249214 57.3986 0.203311 57.4568C0.157408 57.5151 0.132446 57.5871 0.132446 57.6613C0.132446 57.7354 0.157408 57.8075 0.203311 57.8657C0.249214 57.924 0.31339 57.9651 0.385505 57.9825L8.35146 57.597C8.36982 57.3951 8.36982 57.1748 8.35146 56.9546Z" fill="url(#paint120_linear_301_1122)"/>
<path d="M43.2434 100.216L41.2978 107.944C41.281 108.026 41.2963 108.112 41.3406 108.184C41.385 108.255 41.455 108.307 41.5365 108.329C41.6071 108.328 41.6756 108.304 41.7318 108.261C41.7879 108.218 41.8289 108.158 41.8485 108.091L43.7941 100.363L43.2434 100.216Z" fill="url(#paint121_linear_301_1122)"/>
<path d="M38.9673 98.8584L36.1958 106.365C36.1812 106.406 36.1749 106.45 36.1772 106.493C36.1795 106.537 36.1903 106.579 36.2091 106.618C36.2279 106.658 36.2542 106.693 36.2865 106.722C36.3189 106.751 36.3566 106.773 36.3977 106.788H36.5078C36.5762 106.788 36.643 106.767 36.6989 106.727C36.7548 106.688 36.797 106.632 36.8198 106.567L39.4996 99.0786L38.9673 98.8584Z" fill="url(#paint122_linear_301_1122)"/>
<path d="M23.3471 89.3872L17.9876 95.2974C17.9486 95.3264 17.9165 95.3636 17.8936 95.4064C17.8707 95.4492 17.8575 95.4965 17.855 95.545C17.8524 95.5935 17.8605 95.6419 17.8788 95.6869C17.8971 95.7319 17.9251 95.7723 17.9608 95.8052C17.9965 95.8381 18.0389 95.8628 18.0852 95.8774C18.1315 95.892 18.1804 95.8963 18.2286 95.8899C18.2767 95.8835 18.3228 95.8665 18.3636 95.8403C18.4044 95.814 18.439 95.7791 18.4648 95.7379L23.8244 89.8277L23.3471 89.3872Z" fill="url(#paint123_linear_301_1122)"/>
<path d="M52.2924 101.612L51.8886 109.578C51.8861 109.621 51.8922 109.665 51.9066 109.706C51.9209 109.747 51.9432 109.784 51.9722 109.817C52.0012 109.849 52.0363 109.876 52.0755 109.894C52.1147 109.913 52.1572 109.924 52.2006 109.927C52.2852 109.927 52.3665 109.894 52.428 109.836C52.4895 109.778 52.5263 109.699 52.531 109.614L52.9348 101.649L52.2924 101.612Z" fill="url(#paint124_linear_301_1122)"/>
<path d="M34.6541 97.041L31.2401 104.236C31.2018 104.314 31.1956 104.404 31.2231 104.487C31.2506 104.569 31.3095 104.637 31.387 104.677H31.5338C31.595 104.676 31.6548 104.659 31.7066 104.626C31.7585 104.594 31.8003 104.548 31.8275 104.493L35.2415 97.298L34.6541 97.041Z" fill="url(#paint125_linear_301_1122)"/>
<path d="M26.8528 92.2505L22.0989 98.638C22.0604 98.6698 22.0297 98.71 22.0089 98.7554C21.9882 98.8009 21.978 98.8504 21.9792 98.9004C21.9804 98.9503 21.9929 98.9994 22.0158 99.0438C22.0387 99.0882 22.0713 99.1268 22.1113 99.1568C22.1513 99.1868 22.1975 99.2073 22.2466 99.2169C22.2956 99.2264 22.3462 99.2247 22.3945 99.2118C22.4427 99.199 22.4875 99.1753 22.5253 99.1427C22.5631 99.1101 22.5931 99.0693 22.6129 99.0234L27.3668 92.6359L26.8528 92.2505Z" fill="url(#paint126_linear_301_1122)"/>
<path d="M30.689 94.8936L26.5959 101.722C26.5545 101.795 26.5428 101.882 26.5633 101.964C26.5838 102.046 26.6349 102.117 26.7061 102.162H26.8713C26.9274 102.16 26.9822 102.144 27.0303 102.115C27.0785 102.086 27.1185 102.046 27.1466 101.997L31.2397 95.1689L30.689 94.8936Z" fill="url(#paint127_linear_301_1122)"/>
<path d="M55.0092 97.3169C43.7898 97.3023 33.0344 92.8376 25.1028 84.9026C17.1712 76.9676 12.7113 66.2102 12.7015 54.9908H14.537C14.537 62.9954 16.9107 70.8203 21.3578 77.476C25.805 84.1316 32.1258 89.319 39.5212 92.3822C46.9165 95.4455 55.0541 96.247 62.905 94.6854C70.7558 93.1237 77.9673 89.2691 83.6274 83.609C89.2875 77.9488 93.1421 70.7374 94.7038 62.8865C96.2654 55.0357 95.4639 46.8981 92.4007 39.5028C89.3374 32.1074 84.15 25.7865 77.4944 21.3394C70.8388 16.8922 63.0139 14.5186 55.0092 14.5186V12.6831C66.2324 12.6831 76.9958 17.1415 84.9318 25.0774C92.8677 33.0134 97.3261 43.7768 97.3261 55C97.3261 66.2231 92.8677 76.9866 84.9318 84.9225C76.9958 92.8585 66.2324 97.3169 55.0092 97.3169Z" fill="url(#paint128_linear_301_1122)"/>
<path d="M56.2512 19.0219C65.7907 19.3649 74.8045 23.4778 81.315 30.4581C87.8254 37.4383 91.3007 46.7158 90.9784 56.255L89.4176 56.2009C89.6535 49.3953 87.8658 42.6725 84.2805 36.8827C80.6952 31.0929 75.4734 26.4962 69.2754 23.6738C63.0773 20.8515 56.1815 19.9302 49.4598 21.0265C42.7382 22.1228 36.4927 25.1876 31.513 29.8331C26.5334 34.4786 23.0432 40.4962 21.484 47.1251C19.9248 53.754 20.3665 60.6963 22.7533 67.0742C25.14 73.4521 29.3646 78.9791 34.8929 82.9563C40.4212 86.9335 47.0048 89.1822 53.8112 89.4181L53.7571 90.9787C44.214 90.6479 35.1931 86.5401 28.679 79.5589C22.1649 72.5778 18.6911 63.2952 19.0218 53.7531C19.3526 44.211 23.4608 35.1912 30.4426 28.6778C37.4245 22.1644 46.7081 18.6911 56.2512 19.0219Z" fill="url(#paint129_linear_301_1122)"/>
</g>
<defs>
<linearGradient id="paint0_linear_301_1122" x1="49.9339" y1="0.275879" x2="49.9339" y2="4.77281" gradientUnits="userSpaceOnUse">
<stop stop-color="#0EBED9"/>
<stop offset="1" stop-color="#0E53D9"/>
</linearGradient>
<linearGradient id="paint1_linear_301_1122" x1="17.9309" y1="15.9487" x2="17.9309" y2="19.4564" gradientUnits="userSpaceOnUse">
<stop stop-color="#0EBED9"/>
<stop offset="1" stop-color="#0E53D9"/>
</linearGradient>
<linearGradient id="paint2_linear_301_1122" x1="21.6916" y1="12.3247" x2="21.6916" y2="16.1522" gradientUnits="userSpaceOnUse">
<stop stop-color="#0EBED9"/>
<stop offset="1" stop-color="#0E53D9"/>
</linearGradient>
<linearGradient id="paint3_linear_301_1122" x1="25.9756" y1="9.16699" x2="25.9756" y2="13.124" gradientUnits="userSpaceOnUse">
<stop stop-color="#0EBED9"/>
<stop offset="1" stop-color="#0E53D9"/>
</linearGradient>
<linearGradient id="paint4_linear_301_1122" x1="44.9386" y1="1.01855" x2="44.9386" y2="5.54341" gradientUnits="userSpaceOnUse">
<stop stop-color="#0EBED9"/>
<stop offset="1" stop-color="#0E53D9"/>
</linearGradient>
<linearGradient id="paint5_linear_301_1122" x1="35.0831" y1="4.08496" x2="35.0831" y2="8.44374" gradientUnits="userSpaceOnUse">
<stop stop-color="#0EBED9"/>
<stop offset="1" stop-color="#0E53D9"/>
</linearGradient>
<linearGradient id="paint6_linear_301_1122" x1="39.8237" y1="2.33301" x2="39.8237" y2="6.77327" gradientUnits="userSpaceOnUse">
<stop stop-color="#0EBED9"/>
<stop offset="1" stop-color="#0E53D9"/>
</linearGradient>
<linearGradient id="paint7_linear_301_1122" x1="30.2564" y1="6.41602" x2="30.2564" y2="10.6096" gradientUnits="userSpaceOnUse">
<stop stop-color="#0EBED9"/>
<stop offset="1" stop-color="#0E53D9"/>
</linearGradient>
<linearGradient id="paint8_linear_301_1122" x1="4.61034" y1="38.7168" x2="4.61034" y2="40.5826" gradientUnits="userSpaceOnUse">
<stop stop-color="#0EBED9"/>
<stop offset="1" stop-color="#0E53D9"/>
</linearGradient>
<linearGradient id="paint9_linear_301_1122" x1="3.33829" y1="43.812" x2="3.33829" y2="45.2995" gradientUnits="userSpaceOnUse">
<stop stop-color="#0EBED9"/>
<stop offset="1" stop-color="#0E53D9"/>
</linearGradient>
<linearGradient id="paint10_linear_301_1122" x1="2.50523" y1="49.228" x2="2.50523" y2="50.2926" gradientUnits="userSpaceOnUse">
<stop stop-color="#0EBED9"/>
<stop offset="1" stop-color="#0E53D9"/>
</linearGradient>
<linearGradient id="paint11_linear_301_1122" x1="8.57666" y1="28.7964" x2="8.57666" y2="31.4235" gradientUnits="userSpaceOnUse">
<stop stop-color="#0EBED9"/>
<stop offset="1" stop-color="#0E53D9"/>
</linearGradient>
<linearGradient id="paint12_linear_301_1122" x1="6.41967" y1="33.5737" x2="6.41967" y2="35.8103" gradientUnits="userSpaceOnUse">
<stop stop-color="#0EBED9"/>
<stop offset="1" stop-color="#0E53D9"/>
</linearGradient>
<linearGradient id="paint13_linear_301_1122" x1="11.3153" y1="24.0889" x2="11.3153" y2="27.0734" gradientUnits="userSpaceOnUse">
<stop stop-color="#0EBED9"/>
<stop offset="1" stop-color="#0E53D9"/>
</linearGradient>
<linearGradient id="paint14_linear_301_1122" x1="14.3857" y1="19.9219" x2="14.3857" y2="23.127" gradientUnits="userSpaceOnUse">
<stop stop-color="#0EBED9"/>
<stop offset="1" stop-color="#0E53D9"/>
</linearGradient>
<linearGradient id="paint15_linear_301_1122" x1="92.3782" y1="16.0996" x2="92.3782" y2="19.6769" gradientUnits="userSpaceOnUse">
<stop stop-color="#0EBED9"/>
<stop offset="1" stop-color="#0E53D9"/>
</linearGradient>
<linearGradient id="paint16_linear_301_1122" x1="98.8731" y1="24.5298" x2="98.8731" y2="27.3855" gradientUnits="userSpaceOnUse">
<stop stop-color="#0EBED9"/>
<stop offset="1" stop-color="#0E53D9"/>
</linearGradient>
<linearGradient id="paint17_linear_301_1122" x1="2.31447" y1="54.4771" x2="2.31447" y2="55.1378" gradientUnits="userSpaceOnUse">
<stop stop-color="#0EBED9"/>
<stop offset="1" stop-color="#0E53D9"/>
</linearGradient>
<linearGradient id="paint18_linear_301_1122" x1="95.7332" y1="20.106" x2="95.7332" y2="23.3111" gradientUnits="userSpaceOnUse">
<stop stop-color="#0EBED9"/>
<stop offset="1" stop-color="#0E53D9"/>
</linearGradient>
<linearGradient id="paint19_linear_301_1122" x1="103.719" y1="33.9497" x2="103.719" y2="36.1591" gradientUnits="userSpaceOnUse">
<stop stop-color="#0EBED9"/>
<stop offset="1" stop-color="#0E53D9"/>
</linearGradient>
<linearGradient id="paint20_linear_301_1122" x1="101.442" y1="29.0034" x2="101.442" y2="31.5707" gradientUnits="userSpaceOnUse">
<stop stop-color="#0EBED9"/>
<stop offset="1" stop-color="#0E53D9"/>
</linearGradient>
<linearGradient id="paint21_linear_301_1122" x1="107.495" y1="49.4106" x2="107.495" y2="50.4575" gradientUnits="userSpaceOnUse">
<stop stop-color="#0EBED9"/>
<stop offset="1" stop-color="#0E53D9"/>
</linearGradient>
<linearGradient id="paint22_linear_301_1122" x1="105.463" y1="38.8774" x2="105.463" y2="40.7297" gradientUnits="userSpaceOnUse">
<stop stop-color="#0EBED9"/>
<stop offset="1" stop-color="#0E53D9"/>
</linearGradient>
<linearGradient id="paint23_linear_301_1122" x1="106.718" y1="44.189" x2="106.718" y2="45.6486" gradientUnits="userSpaceOnUse">
<stop stop-color="#0EBED9"/>
<stop offset="1" stop-color="#0E53D9"/>
</linearGradient>
<linearGradient id="paint24_linear_301_1122" x1="70.3516" y1="2.37402" x2="70.3516" y2="6.80955" gradientUnits="userSpaceOnUse">
<stop stop-color="#0EBED9"/>
<stop offset="1" stop-color="#0E53D9"/>
</linearGradient>
<linearGradient id="paint25_linear_301_1122" x1="65.4364" y1="1.09229" x2="65.4364" y2="5.59878" gradientUnits="userSpaceOnUse">
<stop stop-color="#0EBED9"/>
<stop offset="1" stop-color="#0E53D9"/>
</linearGradient>
<linearGradient id="paint26_linear_301_1122" x1="55.1923" y1="-0.0180664" x2="55.1923" y2="4.5339" gradientUnits="userSpaceOnUse">
<stop stop-color="#0EBED9"/>
<stop offset="1" stop-color="#0E53D9"/>
</linearGradient>
<linearGradient id="paint27_linear_301_1122" x1="88.4832" y1="12.4106" x2="88.4832" y2="16.244" gradientUnits="userSpaceOnUse">
<stop stop-color="#0EBED9"/>
<stop offset="1" stop-color="#0E53D9"/>
</linearGradient>
<linearGradient id="paint28_linear_301_1122" x1="60.2409" y1="0.23877" x2="60.2409" y2="4.77242" gradientUnits="userSpaceOnUse">
<stop stop-color="#0EBED9"/>
<stop offset="1" stop-color="#0E53D9"/>
</linearGradient>
<linearGradient id="paint29_linear_301_1122" x1="84.38" y1="9.38037" x2="84.38" y2="13.3257" gradientUnits="userSpaceOnUse">
<stop stop-color="#0EBED9"/>
<stop offset="1" stop-color="#0E53D9"/>
</linearGradient>
<linearGradient id="paint30_linear_301_1122" x1="79.8509" y1="6.58008" x2="79.8509" y2="10.6828" gradientUnits="userSpaceOnUse">
<stop stop-color="#0EBED9"/>
<stop offset="1" stop-color="#0E53D9"/>
</linearGradient>
<linearGradient id="paint31_linear_301_1122" x1="75.311" y1="4.28564" x2="75.311" y2="8.5536" gradientUnits="userSpaceOnUse">
<stop stop-color="#0EBED9"/>
<stop offset="1" stop-color="#0E53D9"/>
</linearGradient>
<linearGradient id="paint32_linear_301_1122" x1="30.1375" y1="99.3179" x2="30.1375" y2="103.429" gradientUnits="userSpaceOnUse">
<stop stop-color="#0EBED9"/>
<stop offset="1" stop-color="#0E53D9"/>
</linearGradient>
<linearGradient id="paint33_linear_301_1122" x1="84.0422" y1="96.8765" x2="84.0422" y2="100.833" gradientUnits="userSpaceOnUse">
<stop stop-color="#0EBED9"/>
<stop offset="1" stop-color="#0E53D9"/>
</linearGradient>
<linearGradient id="paint34_linear_301_1122" x1="88.332" y1="93.8481" x2="88.332" y2="97.6634" gradientUnits="userSpaceOnUse">
<stop stop-color="#0EBED9"/>
<stop offset="1" stop-color="#0E53D9"/>
</linearGradient>
<linearGradient id="paint35_linear_301_1122" x1="92.0861" y1="90.5811" x2="92.0861" y2="94.1237" gradientUnits="userSpaceOnUse">
<stop stop-color="#0EBED9"/>
<stop offset="1" stop-color="#0E53D9"/>
</linearGradient>
<linearGradient id="paint36_linear_301_1122" x1="79.743" y1="99.3916" x2="79.743" y2="103.522" gradientUnits="userSpaceOnUse">
<stop stop-color="#0EBED9"/>
<stop offset="1" stop-color="#0E53D9"/>
</linearGradient>
<linearGradient id="paint37_linear_301_1122" x1="70.1759" y1="103.264" x2="70.1759" y2="107.688" gradientUnits="userSpaceOnUse">
<stop stop-color="#0EBED9"/>
<stop offset="1" stop-color="#0E53D9"/>
</linearGradient>
<linearGradient id="paint38_linear_301_1122" x1="65.0424" y1="104.457" x2="65.0424" y2="108.972" gradientUnits="userSpaceOnUse">
<stop stop-color="#0EBED9"/>
<stop offset="1" stop-color="#0E53D9"/>
</linearGradient>
<linearGradient id="paint39_linear_301_1122" x1="74.9715" y1="101.612" x2="74.9715" y2="105.926" gradientUnits="userSpaceOnUse">
<stop stop-color="#0EBED9"/>
<stop offset="1" stop-color="#0E53D9"/>
</linearGradient>
<linearGradient id="paint40_linear_301_1122" x1="95.6519" y1="86.8184" x2="95.6519" y2="90.0095" gradientUnits="userSpaceOnUse">
<stop stop-color="#0EBED9"/>
<stop offset="1" stop-color="#0E53D9"/>
</linearGradient>
<linearGradient id="paint41_linear_301_1122" x1="107.47" y1="59.6899" x2="107.47" y2="60.7545" gradientUnits="userSpaceOnUse">
<stop stop-color="#0EBED9"/>
<stop offset="1" stop-color="#0E53D9"/>
</linearGradient>
<linearGradient id="paint42_linear_301_1122" x1="98.7031" y1="82.9087" x2="98.7031" y2="85.8932" gradientUnits="userSpaceOnUse">
<stop stop-color="#0EBED9"/>
<stop offset="1" stop-color="#0E53D9"/>
</linearGradient>
<linearGradient id="paint43_linear_301_1122" x1="106.643" y1="64.7007" x2="106.643" y2="66.1882" gradientUnits="userSpaceOnUse">
<stop stop-color="#0EBED9"/>
<stop offset="1" stop-color="#0E53D9"/>
</linearGradient>
<linearGradient id="paint44_linear_301_1122" x1="107.669" y1="54.8623" x2="107.669" y2="55.523" gradientUnits="userSpaceOnUse">
<stop stop-color="#0EBED9"/>
<stop offset="1" stop-color="#0E53D9"/>
</linearGradient>
<linearGradient id="paint45_linear_301_1122" x1="101.411" y1="78.5767" x2="101.411" y2="81.1281" gradientUnits="userSpaceOnUse">
<stop stop-color="#0EBED9"/>
<stop offset="1" stop-color="#0E53D9"/>
</linearGradient>
<linearGradient id="paint46_linear_301_1122" x1="105.385" y1="69.418" x2="105.385" y2="71.2718" gradientUnits="userSpaceOnUse">
<stop stop-color="#0EBED9"/>
<stop offset="1" stop-color="#0E53D9"/>
</linearGradient>
<linearGradient id="paint47_linear_301_1122" x1="103.601" y1="74.1719" x2="103.601" y2="76.3561" gradientUnits="userSpaceOnUse">
<stop stop-color="#0EBED9"/>
<stop offset="1" stop-color="#0E53D9"/>
</linearGradient>
<linearGradient id="paint48_linear_301_1122" x1="11.1254" y1="82.6152" x2="11.1254" y2="85.5466" gradientUnits="userSpaceOnUse">
<stop stop-color="#0EBED9"/>
<stop offset="1" stop-color="#0E53D9"/>
</linearGradient>
<linearGradient id="paint49_linear_301_1122" x1="2.53481" y1="59.5435" x2="2.53481" y2="60.5897" gradientUnits="userSpaceOnUse">
<stop stop-color="#0EBED9"/>
<stop offset="1" stop-color="#0E53D9"/>
</linearGradient>
<linearGradient id="paint50_linear_301_1122" x1="14.2653" y1="86.6899" x2="14.2653" y2="89.9545" gradientUnits="userSpaceOnUse">
<stop stop-color="#0EBED9"/>
<stop offset="1" stop-color="#0E53D9"/>
</linearGradient>
<linearGradient id="paint51_linear_301_1122" x1="8.55149" y1="78.4302" x2="8.55149" y2="81.0182" gradientUnits="userSpaceOnUse">
<stop stop-color="#0EBED9"/>
<stop offset="1" stop-color="#0E53D9"/>
</linearGradient>
<linearGradient id="paint52_linear_301_1122" x1="6.27842" y1="73.8418" x2="6.27842" y2="76.0627" gradientUnits="userSpaceOnUse">
<stop stop-color="#0EBED9"/>
<stop offset="1" stop-color="#0E53D9"/>
</linearGradient>
<linearGradient id="paint53_linear_301_1122" x1="3.26922" y1="64.3521" x2="3.26922" y2="65.8021" gradientUnits="userSpaceOnUse">
<stop stop-color="#0EBED9"/>
<stop offset="1" stop-color="#0E53D9"/>
</linearGradient>
<linearGradient id="paint54_linear_301_1122" x1="4.5595" y1="69.2529" x2="4.5595" y2="71.1068" gradientUnits="userSpaceOnUse">
<stop stop-color="#0EBED9"/>
<stop offset="1" stop-color="#0E53D9"/>
</linearGradient>
<linearGradient id="paint55_linear_301_1122" x1="17.6838" y1="90.3242" x2="17.6838" y2="93.8485" gradientUnits="userSpaceOnUse">
<stop stop-color="#0EBED9"/>
<stop offset="1" stop-color="#0E53D9"/>
</linearGradient>
<linearGradient id="paint56_linear_301_1122" x1="54.8804" y1="105.467" x2="54.8804" y2="110.019" gradientUnits="userSpaceOnUse">
<stop stop-color="#0EBED9"/>
<stop offset="1" stop-color="#0E53D9"/>
</linearGradient>
<linearGradient id="paint57_linear_301_1122" x1="49.7681" y1="105.173" x2="49.7681" y2="109.743" gradientUnits="userSpaceOnUse">
<stop stop-color="#0EBED9"/>
<stop offset="1" stop-color="#0E53D9"/>
</linearGradient>
<linearGradient id="paint58_linear_301_1122" x1="44.6082" y1="104.402" x2="44.6082" y2="108.899" gradientUnits="userSpaceOnUse">
<stop stop-color="#0EBED9"/>
<stop offset="1" stop-color="#0E53D9"/>
</linearGradient>
<linearGradient id="paint59_linear_301_1122" x1="21.5347" y1="93.7378" x2="21.5347" y2="97.5711" gradientUnits="userSpaceOnUse">
<stop stop-color="#0EBED9"/>
<stop offset="1" stop-color="#0E53D9"/>
</linearGradient>
<linearGradient id="paint60_linear_301_1122" x1="60.0844" y1="105.21" x2="60.0844" y2="109.689" gradientUnits="userSpaceOnUse">
<stop stop-color="#0EBED9"/>
<stop offset="1" stop-color="#0E53D9"/>
</linearGradient>
<linearGradient id="paint61_linear_301_1122" x1="25.5809" y1="96.6748" x2="25.5809" y2="100.787" gradientUnits="userSpaceOnUse">
<stop stop-color="#0EBED9"/>
<stop offset="1" stop-color="#0E53D9"/>
</linearGradient>
<linearGradient id="paint62_linear_301_1122" x1="39.6677" y1="103.191" x2="39.6677" y2="107.614" gradientUnits="userSpaceOnUse">
<stop stop-color="#0EBED9"/>
<stop offset="1" stop-color="#0E53D9"/>
</linearGradient>
<linearGradient id="paint63_linear_301_1122" x1="34.6968" y1="101.429" x2="34.6968" y2="105.724" gradientUnits="userSpaceOnUse">
<stop stop-color="#0EBED9"/>
<stop offset="1" stop-color="#0E53D9"/>
</linearGradient>
<linearGradient id="paint64_linear_301_1122" x1="29.0162" y1="7.71436" x2="29.0162" y2="15.0505" gradientUnits="userSpaceOnUse">
<stop stop-color="#0EBED9"/>
<stop offset="1" stop-color="#0E53D9"/>
</linearGradient>
<linearGradient id="paint65_linear_301_1122" x1="24.8791" y1="10.7285" x2="24.8791" y2="17.6203" gradientUnits="userSpaceOnUse">
<stop stop-color="#0EBED9"/>
<stop offset="1" stop-color="#0E53D9"/>
</linearGradient>
<linearGradient id="paint66_linear_301_1122" x1="33.3361" y1="5.29687" x2="33.3361" y2="12.903" gradientUnits="userSpaceOnUse">
<stop stop-color="#0EBED9"/>
<stop offset="1" stop-color="#0E53D9"/>
</linearGradient>
<linearGradient id="paint67_linear_301_1122" x1="21.0068" y1="14.0869" x2="21.0068" y2="20.5382" gradientUnits="userSpaceOnUse">
<stop stop-color="#0EBED9"/>
<stop offset="1" stop-color="#0E53D9"/>
</linearGradient>
<linearGradient id="paint68_linear_301_1122" x1="38.0051" y1="3.06982" x2="38.0051" y2="11.0859" gradientUnits="userSpaceOnUse">
<stop stop-color="#0EBED9"/>
<stop offset="1" stop-color="#0E53D9"/>
</linearGradient>
<linearGradient id="paint69_linear_301_1122" x1="52.5588" y1="0.0546875" x2="52.5588" y2="8.44282" gradientUnits="userSpaceOnUse">
<stop stop-color="#0EBED9"/>
<stop offset="1" stop-color="#0E53D9"/>
</linearGradient>
<linearGradient id="paint70_linear_301_1122" x1="42.6838" y1="1.53711" x2="42.6838" y2="9.74615" gradientUnits="userSpaceOnUse">
<stop stop-color="#0EBED9"/>
<stop offset="1" stop-color="#0E53D9"/>
</linearGradient>
<linearGradient id="paint71_linear_301_1122" x1="47.6659" y1="0.563477" x2="47.6659" y2="8.8283" gradientUnits="userSpaceOnUse">
<stop stop-color="#0EBED9"/>
<stop offset="1" stop-color="#0E53D9"/>
</linearGradient>
<linearGradient id="paint72_linear_301_1122" x1="7.24836" y1="36.3604" x2="7.24836" y2="39.6458" gradientUnits="userSpaceOnUse">
<stop stop-color="#0EBED9"/>
<stop offset="1" stop-color="#0E53D9"/>
</linearGradient>
<linearGradient id="paint73_linear_301_1122" x1="17.3776" y1="17.9092" x2="17.3776" y2="23.879" gradientUnits="userSpaceOnUse">
<stop stop-color="#0EBED9"/>
<stop offset="1" stop-color="#0E53D9"/>
</linearGradient>
<linearGradient id="paint74_linear_301_1122" x1="4.73461" y1="46.6362" x2="4.73461" y2="48.4559" gradientUnits="userSpaceOnUse">
<stop stop-color="#0EBED9"/>
<stop offset="1" stop-color="#0E53D9"/>
</linearGradient>
<linearGradient id="paint75_linear_301_1122" x1="5.75939" y1="41.2729" x2="5.75939" y2="43.8493" gradientUnits="userSpaceOnUse">
<stop stop-color="#0EBED9"/>
<stop offset="1" stop-color="#0E53D9"/>
</linearGradient>
<linearGradient id="paint76_linear_301_1122" x1="9.15524" y1="31.2109" x2="9.15524" y2="35.2223" gradientUnits="userSpaceOnUse">
<stop stop-color="#0EBED9"/>
<stop offset="1" stop-color="#0E53D9"/>
</linearGradient>
<linearGradient id="paint77_linear_301_1122" x1="14.4169" y1="22.0166" x2="14.4169" y2="27.3481" gradientUnits="userSpaceOnUse">
<stop stop-color="#0EBED9"/>
<stop offset="1" stop-color="#0E53D9"/>
</linearGradient>
<linearGradient id="paint78_linear_301_1122" x1="11.4775" y1="26.5991" x2="11.4775" y2="31.2579" gradientUnits="userSpaceOnUse">
<stop stop-color="#0EBED9"/>
<stop offset="1" stop-color="#0E53D9"/>
</linearGradient>
<linearGradient id="paint79_linear_301_1122" x1="72.1325" y1="3.10645" x2="72.1325" y2="11.1225" gradientUnits="userSpaceOnUse">
<stop stop-color="#0EBED9"/>
<stop offset="1" stop-color="#0E53D9"/>
</linearGradient>
<linearGradient id="paint80_linear_301_1122" x1="102.853" y1="36.376" x2="102.853" y2="39.6458" gradientUnits="userSpaceOnUse">
<stop stop-color="#0EBED9"/>
<stop offset="1" stop-color="#0E53D9"/>
</linearGradient>
<linearGradient id="paint81_linear_301_1122" x1="100.957" y1="31.2676" x2="100.957" y2="35.314" gradientUnits="userSpaceOnUse">
<stop stop-color="#0EBED9"/>
<stop offset="1" stop-color="#0E53D9"/>
</linearGradient>
<linearGradient id="paint82_linear_301_1122" x1="98.6286" y1="26.645" x2="98.6286" y2="31.3496" gradientUnits="userSpaceOnUse">
<stop stop-color="#0EBED9"/>
<stop offset="1" stop-color="#0E53D9"/>
</linearGradient>
<linearGradient id="paint83_linear_301_1122" x1="95.8385" y1="22.0527" x2="95.8385" y2="27.4404" gradientUnits="userSpaceOnUse">
<stop stop-color="#0EBED9"/>
<stop offset="1" stop-color="#0E53D9"/>
</linearGradient>
<linearGradient id="paint84_linear_301_1122" x1="105.77" y1="51.9985" x2="105.77" y2="53.0264" gradientUnits="userSpaceOnUse">
<stop stop-color="#0EBED9"/>
<stop offset="1" stop-color="#0E53D9"/>
</linearGradient>
<linearGradient id="paint85_linear_301_1122" x1="92.6641" y1="18.0518" x2="92.6641" y2="23.9524" gradientUnits="userSpaceOnUse">
<stop stop-color="#0EBED9"/>
<stop offset="1" stop-color="#0E53D9"/>
</linearGradient>
<linearGradient id="paint86_linear_301_1122" x1="104.252" y1="41.481" x2="104.252" y2="43.9772" gradientUnits="userSpaceOnUse">
<stop stop-color="#0EBED9"/>
<stop offset="1" stop-color="#0E53D9"/>
</linearGradient>
<linearGradient id="paint87_linear_301_1122" x1="105.275" y1="46.7676" x2="105.275" y2="48.5663" gradientUnits="userSpaceOnUse">
<stop stop-color="#0EBED9"/>
<stop offset="1" stop-color="#0E53D9"/>
</linearGradient>
<linearGradient id="paint88_linear_301_1122" x1="81.1298" y1="7.71533" x2="81.1298" y2="15.1057" gradientUnits="userSpaceOnUse">
<stop stop-color="#0EBED9"/>
<stop offset="1" stop-color="#0E53D9"/>
</linearGradient>
<linearGradient id="paint89_linear_301_1122" x1="67.4407" y1="1.66309" x2="67.4407" y2="9.80096" gradientUnits="userSpaceOnUse">
<stop stop-color="#0EBED9"/>
<stop offset="1" stop-color="#0E53D9"/>
</linearGradient>
<linearGradient id="paint90_linear_301_1122" x1="62.4534" y1="0.581543" x2="62.4534" y2="8.84637" gradientUnits="userSpaceOnUse">
<stop stop-color="#0EBED9"/>
<stop offset="1" stop-color="#0E53D9"/>
</linearGradient>
<linearGradient id="paint91_linear_301_1122" x1="4.24196" y1="51.8521" x2="4.24196" y2="52.8983" gradientUnits="userSpaceOnUse">
<stop stop-color="#0EBED9"/>
<stop offset="1" stop-color="#0E53D9"/>
</linearGradient>
<linearGradient id="paint92_linear_301_1122" x1="85.299" y1="10.8818" x2="85.299" y2="17.7305" gradientUnits="userSpaceOnUse">
<stop stop-color="#0EBED9"/>
<stop offset="1" stop-color="#0E53D9"/>
</linearGradient>
<linearGradient id="paint93_linear_301_1122" x1="89.1235" y1="14.1064" x2="89.1235" y2="20.6121" gradientUnits="userSpaceOnUse">
<stop stop-color="#0EBED9"/>
<stop offset="1" stop-color="#0E53D9"/>
</linearGradient>
<linearGradient id="paint94_linear_301_1122" x1="76.791" y1="5.23779" x2="76.791" y2="12.9579" gradientUnits="userSpaceOnUse">
<stop stop-color="#0EBED9"/>
<stop offset="1" stop-color="#0E53D9"/>
</linearGradient>
<linearGradient id="paint95_linear_301_1122" x1="57.6988" y1="0.0546875" x2="57.6988" y2="8.44282" gradientUnits="userSpaceOnUse">
<stop stop-color="#0EBED9"/>
<stop offset="1" stop-color="#0E53D9"/>
</linearGradient>
<linearGradient id="paint96_linear_301_1122" x1="47.5378" y1="101.153" x2="47.5378" y2="109.412" gradientUnits="userSpaceOnUse">
<stop stop-color="#0EBED9"/>
<stop offset="1" stop-color="#0E53D9"/>
</linearGradient>
<linearGradient id="paint97_linear_301_1122" x1="85.2308" y1="92.3242" x2="85.2308" y2="99.2607" gradientUnits="userSpaceOnUse">
<stop stop-color="#0EBED9"/>
<stop offset="1" stop-color="#0E53D9"/>
</linearGradient>
<linearGradient id="paint98_linear_301_1122" x1="81.0026" y1="94.9487" x2="81.0026" y2="102.217" gradientUnits="userSpaceOnUse">
<stop stop-color="#0EBED9"/>
<stop offset="1" stop-color="#0E53D9"/>
</linearGradient>
<linearGradient id="paint99_linear_301_1122" x1="88.9995" y1="89.4424" x2="88.9995" y2="95.8585" gradientUnits="userSpaceOnUse">
<stop stop-color="#0EBED9"/>
<stop offset="1" stop-color="#0E53D9"/>
</linearGradient>
<linearGradient id="paint100_linear_301_1122" x1="76.6944" y1="97.0776" x2="76.6944" y2="104.732" gradientUnits="userSpaceOnUse">
<stop stop-color="#0EBED9"/>
<stop offset="1" stop-color="#0E53D9"/>
</linearGradient>
<linearGradient id="paint101_linear_301_1122" x1="92.6141" y1="86.1201" x2="92.6141" y2="91.9758" gradientUnits="userSpaceOnUse">
<stop stop-color="#0EBED9"/>
<stop offset="1" stop-color="#0E53D9"/>
</linearGradient>
<linearGradient id="paint102_linear_301_1122" x1="67.2829" y1="100.216" x2="67.2829" y2="108.347" gradientUnits="userSpaceOnUse">
<stop stop-color="#0EBED9"/>
<stop offset="1" stop-color="#0E53D9"/>
</linearGradient>
<linearGradient id="paint103_linear_301_1122" x1="72.006" y1="98.9316" x2="72.006" y2="106.861" gradientUnits="userSpaceOnUse">
<stop stop-color="#0EBED9"/>
<stop offset="1" stop-color="#0E53D9"/>
</linearGradient>
<linearGradient id="paint104_linear_301_1122" x1="95.6993" y1="82.6328" x2="95.6993" y2="87.9347" gradientUnits="userSpaceOnUse">
<stop stop-color="#0EBED9"/>
<stop offset="1" stop-color="#0E53D9"/>
</linearGradient>
<linearGradient id="paint105_linear_301_1122" x1="104.275" y1="66.1318" x2="104.275" y2="68.7015" gradientUnits="userSpaceOnUse">
<stop stop-color="#0EBED9"/>
<stop offset="1" stop-color="#0E53D9"/>
</linearGradient>
<linearGradient id="paint106_linear_301_1122" x1="105.257" y1="61.5249" x2="105.257" y2="63.342" gradientUnits="userSpaceOnUse">
<stop stop-color="#0EBED9"/>
<stop offset="1" stop-color="#0E53D9"/>
</linearGradient>
<linearGradient id="paint107_linear_301_1122" x1="105.797" y1="57.0645" x2="105.797" y2="58.1291" gradientUnits="userSpaceOnUse">
<stop stop-color="#0EBED9"/>
<stop offset="1" stop-color="#0E53D9"/>
</linearGradient>
<linearGradient id="paint108_linear_301_1122" x1="102.813" y1="70.4453" x2="102.813" y2="73.7308" gradientUnits="userSpaceOnUse">
<stop stop-color="#0EBED9"/>
<stop offset="1" stop-color="#0E53D9"/>
</linearGradient>
<linearGradient id="paint109_linear_301_1122" x1="98.5657" y1="78.7417" x2="98.5657" y2="83.3855" gradientUnits="userSpaceOnUse">
<stop stop-color="#0EBED9"/>
<stop offset="1" stop-color="#0E53D9"/>
</linearGradient>
<linearGradient id="paint110_linear_301_1122" x1="62.3062" y1="101.171" x2="62.3062" y2="109.431" gradientUnits="userSpaceOnUse">
<stop stop-color="#0EBED9"/>
<stop offset="1" stop-color="#0E53D9"/>
</linearGradient>
<linearGradient id="paint111_linear_301_1122" x1="100.894" y1="74.7769" x2="100.894" y2="78.7782" gradientUnits="userSpaceOnUse">
<stop stop-color="#0EBED9"/>
<stop offset="1" stop-color="#0E53D9"/>
</linearGradient>
<linearGradient id="paint112_linear_301_1122" x1="7.14935" y1="70.335" x2="7.14935" y2="73.6205" gradientUnits="userSpaceOnUse">
<stop stop-color="#0EBED9"/>
<stop offset="1" stop-color="#0E53D9"/>
</linearGradient>
<linearGradient id="paint113_linear_301_1122" x1="11.3881" y1="78.6494" x2="11.3881" y2="83.3299" gradientUnits="userSpaceOnUse">
<stop stop-color="#0EBED9"/>
<stop offset="1" stop-color="#0E53D9"/>
</linearGradient>
<linearGradient id="paint114_linear_301_1122" x1="9.10674" y1="74.6665" x2="9.10674" y2="78.6862" gradientUnits="userSpaceOnUse">
<stop stop-color="#0EBED9"/>
<stop offset="1" stop-color="#0E53D9"/>
</linearGradient>
<linearGradient id="paint115_linear_301_1122" x1="14.2461" y1="82.5596" x2="14.2461" y2="87.9726" gradientUnits="userSpaceOnUse">
<stop stop-color="#0EBED9"/>
<stop offset="1" stop-color="#0E53D9"/>
</linearGradient>
<linearGradient id="paint116_linear_301_1122" x1="4.63917" y1="61.4331" x2="4.63917" y2="63.2319" gradientUnits="userSpaceOnUse">
<stop stop-color="#0EBED9"/>
<stop offset="1" stop-color="#0E53D9"/>
</linearGradient>
<linearGradient id="paint117_linear_301_1122" x1="17.277" y1="86.0469" x2="17.277" y2="91.9984" gradientUnits="userSpaceOnUse">
<stop stop-color="#0EBED9"/>
<stop offset="1" stop-color="#0E53D9"/>
</linearGradient>
<linearGradient id="paint118_linear_301_1122" x1="5.62802" y1="66.0215" x2="5.62802" y2="68.5911" gradientUnits="userSpaceOnUse">
<stop stop-color="#0EBED9"/>
<stop offset="1" stop-color="#0E53D9"/>
</linearGradient>
<linearGradient id="paint119_linear_301_1122" x1="57.4872" y1="101.612" x2="57.4872" y2="109.927" gradientUnits="userSpaceOnUse">
<stop stop-color="#0EBED9"/>
<stop offset="1" stop-color="#0E53D9"/>
</linearGradient>
<linearGradient id="paint120_linear_301_1122" x1="4.24884" y1="56.9546" x2="4.24884" y2="57.9825" gradientUnits="userSpaceOnUse">
<stop stop-color="#0EBED9"/>
<stop offset="1" stop-color="#0E53D9"/>
</linearGradient>
<linearGradient id="paint121_linear_301_1122" x1="42.5426" y1="100.216" x2="42.5426" y2="108.329" gradientUnits="userSpaceOnUse">
<stop stop-color="#0EBED9"/>
<stop offset="1" stop-color="#0E53D9"/>
</linearGradient>
<linearGradient id="paint122_linear_301_1122" x1="37.8382" y1="98.8584" x2="37.8382" y2="106.788" gradientUnits="userSpaceOnUse">
<stop stop-color="#0EBED9"/>
<stop offset="1" stop-color="#0E53D9"/>
</linearGradient>
<linearGradient id="paint123_linear_301_1122" x1="20.8394" y1="89.3872" x2="20.8394" y2="95.8928" gradientUnits="userSpaceOnUse">
<stop stop-color="#0EBED9"/>
<stop offset="1" stop-color="#0E53D9"/>
</linearGradient>
<linearGradient id="paint124_linear_301_1122" x1="52.4114" y1="101.612" x2="52.4114" y2="109.927" gradientUnits="userSpaceOnUse">
<stop stop-color="#0EBED9"/>
<stop offset="1" stop-color="#0E53D9"/>
</linearGradient>
<linearGradient id="paint125_linear_301_1122" x1="33.2238" y1="97.041" x2="33.2238" y2="104.677" gradientUnits="userSpaceOnUse">
<stop stop-color="#0EBED9"/>
<stop offset="1" stop-color="#0E53D9"/>
</linearGradient>
<linearGradient id="paint126_linear_301_1122" x1="24.6729" y1="92.2505" x2="24.6729" y2="99.2229" gradientUnits="userSpaceOnUse">
<stop stop-color="#0EBED9"/>
<stop offset="1" stop-color="#0E53D9"/>
</linearGradient>
<linearGradient id="paint127_linear_301_1122" x1="28.8966" y1="94.8936" x2="28.8966" y2="102.162" gradientUnits="userSpaceOnUse">
<stop stop-color="#0EBED9"/>
<stop offset="1" stop-color="#0E53D9"/>
</linearGradient>
<linearGradient id="paint128_linear_301_1122" x1="55.0138" y1="12.6831" x2="55.0138" y2="97.3169" gradientUnits="userSpaceOnUse">
<stop stop-color="#0EBED9"/>
<stop offset="1" stop-color="#0E53D9"/>
</linearGradient>
<linearGradient id="paint129_linear_301_1122" x1="53.7532" y1="90.9785" x2="56.2473" y2="19.0217" gradientUnits="userSpaceOnUse">
<stop stop-color="#0EBED9"/>
<stop offset="1" stop-color="#0E53D9"/>
</linearGradient>
<clipPath id="clip0_301_1122">
<rect width="110" height="110" fill="white"/>
</clipPath>
</defs>
</svg>
