<svg width="100" height="107" viewBox="0 0 100 107" fill="none" xmlns="http://www.w3.org/2000/svg">
<ellipse cx="50" cy="53.1346" rx="50" ry="53.0909" fill="#DCF1FF"/>
<g clip-path="url(#clip0_582_6)">
<path d="M32.0498 31.0002H43.2463V76.2606H32.0498V31.0002Z" fill="#F5F8F9"/>
<path d="M32.0498 31.0005H43.2463V37.6096H32.0498V31.0005Z" fill="#E8EDF2"/>
<path d="M32.0498 31.0005H35.6837V76.2608H32.0498V31.0005Z" fill="#E8EDF2"/>
<path d="M31.9826 33.9956H43.3137C44.8715 33.9956 46.1344 32.6547 46.1344 31.0005C46.1344 29.3463 44.8715 28.0054 43.3137 28.0054H31.9826C30.4247 28.0054 29.1619 29.3463 29.1619 31.0005C29.1618 32.6546 30.4246 33.9956 31.9826 33.9956Z" fill="#E8EDF2"/>
<path d="M35.2715 33.1188C35.7821 33.661 36.4871 33.9957 37.2664 33.9957H31.9827C31.2034 33.9957 30.4985 33.661 29.9878 33.1188C29.4771 32.5764 29.1619 31.828 29.1619 31.0004C29.1619 29.3468 30.4241 28.0051 31.9828 28.0051H37.2666C35.708 28.0051 34.4456 29.3468 34.4456 31.0004C34.4455 31.8279 34.7608 32.5764 35.2715 33.1188Z" fill="#D9E7EC"/>
<path d="M72.0164 49.913V76.6285H60.8196V45.1033L64.4538 45.8156L68.382 49.9879L72.0164 49.913Z" fill="#F5F8F9"/>
<path d="M64.4538 45.8156V76.6285H60.8196V45.1033L64.4538 45.8156Z" fill="#E8EDF2"/>
<path d="M27.3459 74.0736L30.0204 64.7992C30.2671 63.9438 31.0109 63.3597 31.8534 63.3597H34.7861C35.5123 63.3597 36.176 62.924 36.5007 62.2345L38.712 57.5387C39.0367 56.8491 39.7005 56.4136 40.4266 56.4136H45.7959C46.5535 56.4136 47.24 56.8873 47.5476 57.6224L50.5614 64.8226C50.8691 65.5577 51.5556 66.0314 52.3131 66.0314H54.2131C55.0389 66.0314 55.772 66.593 56.0323 67.4252L58.1123 74.0737L39.074 77.1631L27.3459 74.0736Z" fill="#F5F8F9"/>
<path d="M43.7808 56.4146C43.0544 56.4146 42.3911 56.8497 42.0658 57.5393L39.8551 62.235C39.5298 62.9246 38.8665 63.3597 38.1401 63.3597H35.2082C34.3645 63.3597 33.6218 63.9449 33.3746 64.7991L30.6999 74.0744H27.3457L30.0204 64.7991C30.2662 63.9449 31.0103 63.3597 31.8527 63.3597H34.7859C35.5123 63.3597 36.1755 62.9246 36.5009 62.235L38.7115 57.5393C39.0369 56.8497 39.7002 56.4146 40.4266 56.4146H43.7808Z" fill="#E8EDF2"/>
<path d="M74.2361 74.0737H25.7639C24.6743 74.0737 23.791 75.0116 23.791 76.1686C23.791 77.3255 24.6743 78.2635 25.7639 78.2635H74.2362C75.3258 78.2635 76.2091 77.3255 76.2091 76.1686C76.209 75.0115 75.3257 74.0737 74.2361 74.0737Z" fill="#9BE69D"/>
<path d="M29.4199 77.649C29.7764 78.0287 30.2689 78.2627 30.8142 78.2627H25.7643C25.2191 78.2627 24.7255 78.0287 24.369 77.649C24.0114 77.2705 23.791 76.7475 23.791 76.1686C23.791 75.0106 24.6738 74.0732 25.7643 74.0732H30.8142C29.7247 74.0732 28.8419 75.0106 28.8419 76.1686C28.8419 76.7475 29.0623 77.2705 29.4199 77.649Z" fill="#6FD7A3"/>
<path d="M53.8807 74.0739L51.409 70.2135C51.1517 69.8115 50.7459 69.5442 50.2923 69.478L46.8077 68.9693C45.9997 68.8513 45.2354 69.3909 45.0254 70.2278L44.0603 74.0739" fill="#E8EDF2"/>
<path d="M47.7886 69.1133C47.3667 69.3216 47.0356 69.7203 46.908 70.2276L45.9419 74.0744H44.0603L45.0253 70.2276C45.2352 69.391 45.9999 68.8512 46.8078 68.9699L47.7886 69.1133Z" fill="#D9E7EC"/>
<path d="M76.1912 74.0946C75.6701 73.5396 74.9756 73.2339 74.2357 73.2339H72.8076V49.9135C72.8076 49.6879 72.7221 49.4719 72.5705 49.3139C72.4189 49.1559 72.2125 49.0695 72.0013 49.0738L68.7035 49.1419L65.0128 45.2221C64.8997 45.1018 64.7547 45.0209 64.5971 44.99L60.9626 44.2777C60.7315 44.2326 60.4937 44.2985 60.313 44.4581C60.1325 44.6177 60.0281 44.8542 60.0281 45.1037V60.8628C60.0281 61.3266 60.3821 61.7027 60.8191 61.7027C61.256 61.7027 61.6101 61.3266 61.6101 60.8628V46.1126L63.6628 46.5149V70.4599C63.6628 70.9237 64.0169 71.2998 64.4539 71.2998C64.8908 71.2998 65.2449 70.9237 65.2449 70.4599V47.8442L67.591 50.3361V70.4599C67.591 70.9237 67.9451 71.2998 68.382 71.2998C68.819 71.2998 69.1731 70.9237 69.1731 70.4599V50.8122L71.2257 50.7699V73.2341H61.6101V64.7823C61.6101 64.3184 61.256 63.9424 60.8191 63.9424C60.3821 63.9424 60.0281 64.3184 60.0281 64.7823V73.2341H58.6832L56.7832 67.1605C56.4148 65.9828 55.3821 65.1915 54.2133 65.1915H52.3134C51.8688 65.1915 51.465 64.9128 51.2844 64.4815L48.2706 57.2812C47.8363 56.2439 46.8649 55.5737 45.796 55.5737H44.0379V34.758C45.6837 34.401 46.9257 32.8518 46.9257 31.0004C46.9257 28.8858 45.3055 27.1653 43.3138 27.1653H31.9828C29.9911 27.1653 28.3709 28.8857 28.3709 31.0004C28.3709 32.8521 29.6131 34.4013 31.2593 34.7581V40.2331C31.2593 40.697 31.6133 41.073 32.0503 41.073C32.4872 41.073 32.8413 40.697 32.8413 40.2331V34.8355H42.4558V55.5736H40.4266C40.4188 55.5736 40.4112 55.5743 40.4034 55.5744V37.6092C40.4034 37.1454 40.0493 36.7693 39.6124 36.7693C39.1754 36.7693 38.8214 37.1454 38.8214 37.6092V56.1311C38.4832 56.3957 38.2013 56.7452 38.0045 57.163L36.4747 60.4117V37.6092C36.4747 37.1454 36.1206 36.7693 35.6837 36.7693C35.2467 36.7693 34.8927 37.1454 34.8927 37.6092V62.5119C34.8573 62.5154 34.8222 62.5198 34.7861 62.5198H32.8413V44.1505C32.8413 43.6866 32.4872 43.3106 32.0503 43.3106C31.6133 43.3106 31.2593 43.6866 31.2593 44.1505V62.5904C30.3221 62.811 29.5552 63.5439 29.2641 64.5534L26.7609 73.2341H25.7643C24.2401 73.2341 23 74.5503 23 76.1682C23 76.9522 23.2876 77.6893 23.8089 78.2427C24.33 78.7978 25.0245 79.1034 25.7643 79.1034H37.2341C37.671 79.1034 38.0251 78.7273 38.0251 78.2635C38.0251 77.7996 37.671 77.4235 37.2341 77.4235H25.7643C25.4479 77.4235 25.1514 77.2933 24.9283 77.0558C24.705 76.8187 24.582 76.5034 24.582 76.1682C24.582 75.4765 25.1123 74.9139 25.7643 74.9139H74.2357C74.5521 74.9139 74.8486 75.0441 75.0726 75.2825C75.2953 75.5183 75.418 75.8329 75.418 76.1683C75.418 76.8605 74.8877 77.4237 74.2357 77.4237H40.9255C40.4885 77.4237 40.1345 77.7997 40.1345 78.2636C40.1345 78.7274 40.4885 79.1035 40.9255 79.1035H74.2357C75.7599 79.1035 77 77.7867 77 76.1683C77 75.383 76.7122 74.646 76.1912 74.0946ZM29.9529 31.0004C29.9529 29.812 30.8635 28.8451 31.9828 28.8451H43.3138C44.433 28.8451 45.3437 29.8119 45.3437 31.0004C45.3437 32.1889 44.433 33.1557 43.3138 33.1557H43.2509C43.2496 33.1557 43.2482 33.1554 43.2468 33.1554H32.0503C32.0489 33.1554 32.0475 33.1557 32.0462 33.1557H31.9828C30.8635 33.1557 29.9529 32.1889 29.9529 31.0004ZM30.7766 65.0451C30.9225 64.5394 31.3551 64.1996 31.8534 64.1996H34.7861C35.8185 64.1996 36.7465 63.5906 37.2082 62.6101L39.4195 57.9143C39.6114 57.5066 39.9973 57.2534 40.4266 57.2534H45.7959C46.2404 57.2534 46.6443 57.5321 46.8249 57.9634L49.8386 65.1636C50.2727 66.2009 51.2441 66.8712 52.3132 66.8712H54.2132C54.6991 66.8712 55.1286 67.2002 55.2818 67.6898L57.0163 73.2339H54.2999L52.0635 69.7411C51.6809 69.1434 51.0747 68.7442 50.4004 68.6457L46.9157 68.1369C45.7153 67.9617 44.5735 68.7673 44.2613 70.0112L43.4527 73.2339H28.4153L30.7766 65.0451ZM52.3867 73.2339H45.0897L45.7898 70.4437C45.8968 70.0172 46.2886 69.7409 46.7 69.801L50.1847 70.3098C50.4158 70.3435 50.6236 70.4804 50.7548 70.6854L52.3867 73.2339Z" fill="black"/>
</g>
<path d="M83.5545 4.29102C83.5545 4.29102 84.7572 12.668 94.1091 13.2472C84.7572 13.8264 83.5545 22.2034 83.5545 22.2034C83.5545 22.2034 82.3518 13.8264 73 13.2472C82.3518 12.668 83.5545 4.29102 83.5545 4.29102Z" fill="#0EBED9"/>
<path d="M15.5 86.0508C15.5 86.0508 16.2407 91.5131 22 91.8908C16.2407 92.2684 15.5 97.7308 15.5 97.7308C15.5 97.7308 14.7593 92.2684 9 91.8908C14.7593 91.5131 15.5 86.0508 15.5 86.0508Z" fill="#0EBED9"/>
<defs>
<clipPath id="clip0_582_6">
<rect width="54" height="57.3382" fill="white" transform="translate(23 24.4653)"/>
</clipPath>
</defs>
</svg>
