<svg width="100" height="107" viewBox="0 0 100 107" fill="none" xmlns="http://www.w3.org/2000/svg">
<ellipse cx="50" cy="53.1346" rx="50" ry="53.0909" fill="#DCF1FF"/>
<g clip-path="url(#clip0_582_7)">
<path d="M57.6625 62.7118C57.9128 62.091 58.164 61.4776 58.4157 60.872C58.0759 57.9385 56.861 55.1001 54.9878 52.7251C53.6608 51.0426 52.8035 48.9426 52.8035 46.3249C52.8035 40.313 56.8217 37.2477 61.6094 35.7292C66.3116 34.2376 65.9573 27.0536 61.145 26.0316C44.3537 22.4657 25.839 31.5871 24.0959 50.273C23.2182 59.682 27.088 67.4993 32.3918 73.6478C37.999 80.148 47.3231 80.3518 53.2431 74.9877C54.3763 71.3443 55.8786 67.1368 57.6625 62.7118Z" fill="#DBEDFF"/>
<path d="M40.2512 73.6477C34.9474 67.4993 31.0775 59.682 31.9553 50.273C33.3132 35.716 44.8498 26.9642 57.8205 25.4929C41.9947 23.7052 25.7245 32.8139 24.0959 50.273C23.2182 59.682 27.088 67.4993 32.3918 73.6477C36.3642 78.2529 42.2021 79.6969 47.3736 78.2405C44.741 77.4937 42.258 75.9742 40.2512 73.6477Z" fill="#B5DCFF"/>
<path d="M45.4138 38.9552C47.3305 38.9552 48.8843 37.3054 48.8843 35.2702C48.8843 33.235 47.3305 31.5852 45.4138 31.5852C43.4971 31.5852 41.9434 33.235 41.9434 35.2702C41.9434 37.3054 43.4971 38.9552 45.4138 38.9552Z" fill="#F4DD45"/>
<path d="M43.8463 72.5263C46.1028 72.5263 47.932 70.5839 47.932 68.1879C47.932 65.7919 46.1028 63.8496 43.8463 63.8496C41.5898 63.8496 39.7605 65.7919 39.7605 68.1879C39.7605 70.5839 41.5898 72.5263 43.8463 72.5263Z" fill="#64D465"/>
<path d="M36.8619 49.3078C39.2805 49.3078 41.2412 47.2259 41.2412 44.6578C41.2412 42.0897 39.2805 40.0078 36.8619 40.0078C34.4433 40.0078 32.4827 42.0897 32.4827 44.6578C32.4827 47.2259 34.4433 49.3078 36.8619 49.3078Z" fill="#F87C68"/>
<path d="M35.3812 62.6396C37.7998 62.6396 39.7605 60.5577 39.7605 57.9896C39.7605 55.4215 37.7998 53.3396 35.3812 53.3396C32.9626 53.3396 31.002 55.4215 31.002 57.9896C31.002 60.5577 32.9626 62.6396 35.3812 62.6396Z" fill="#7FB3FA"/>
<path d="M45.8465 35.2703C45.8465 34.0036 46.4487 32.8864 47.3654 32.2232C46.8093 31.8208 46.1375 31.5854 45.4138 31.5854C43.4971 31.5854 41.9434 33.2353 41.9434 35.2704C41.9434 37.3056 43.4971 38.9554 45.4138 38.9554C46.1375 38.9554 46.8093 38.7199 47.3654 38.3175C46.4487 37.6542 45.8465 36.537 45.8465 35.2703Z" fill="#FCC101"/>
<path d="M43.6636 68.1876C43.6636 66.5421 44.5264 65.1107 45.7978 64.3752C45.218 64.0398 44.5531 63.8491 43.8463 63.8491C41.5897 63.8491 39.7605 65.7915 39.7605 68.1874C39.7605 70.5834 41.5897 72.5259 43.8463 72.5259C44.5531 72.5259 45.218 72.3352 45.7978 71.9998C44.5264 71.2644 43.6636 69.833 43.6636 68.1876Z" fill="#40C140"/>
<path d="M36.3857 44.6579C36.3857 42.8346 37.3746 41.2573 38.8135 40.4952C38.2258 40.1839 37.5634 40.0078 36.8619 40.0078C34.4433 40.0078 32.4827 42.0897 32.4827 44.6578C32.4827 47.2259 34.4433 49.3078 36.8619 49.3078C37.5634 49.3078 38.2258 49.1317 38.8135 48.8204C37.3746 48.0586 36.3857 46.4813 36.3857 44.6579Z" fill="#EC625E"/>
<path d="M34.905 57.9897C34.905 56.1663 35.8939 54.5891 37.3328 53.827C36.745 53.5156 36.0827 53.3396 35.3812 53.3396C32.9626 53.3396 31.002 55.4215 31.002 57.9896C31.002 60.5577 32.9626 62.6396 35.3812 62.6396C36.0827 62.6396 36.745 62.4635 37.3328 62.1522C35.8939 61.3904 34.905 59.813 34.905 57.9897Z" fill="#64A6F4"/>
<path d="M66.8053 55.8241L62.0593 53.7336L61.3807 53.9134C60.125 56.5861 58.8291 59.556 57.5569 62.7117C55.3741 68.1264 53.612 73.2165 52.4333 77.3445C52.0591 78.6551 52.644 80.0591 53.8065 80.6523C55.0499 81.2868 56.5424 80.7883 57.2212 79.5131C59.2196 75.7587 61.4705 70.8931 63.652 65.4821C64.9242 62.3262 66.0536 59.2806 67.008 56.4711L66.8053 55.8241Z" fill="#CE775F"/>
<path d="M55.4391 77.7635C56.6179 73.6355 58.3799 68.5455 60.5628 63.1308C61.7793 60.1131 63.0173 57.2662 64.2212 54.6859L62.0593 53.7336L61.3807 53.9134C60.125 56.5861 58.8291 59.556 57.5569 62.7117C55.3741 68.1264 53.612 73.2165 52.4333 77.3445C52.0591 78.6551 52.644 80.059 53.8065 80.6522C54.5825 81.0482 55.4556 81.0029 56.1674 80.6029C55.4498 79.8969 55.1427 78.8018 55.4391 77.7635Z" fill="#C0694E"/>
<path d="M67.2222 42.6869L70.6259 44.2341C70.7807 44.3045 70.9101 44.4114 71.0104 44.5408C72.225 43.8054 74.3841 42.2063 75.4127 39.6549C76.5459 36.8438 75.6807 31.7423 75.218 29.5261C75.1043 28.9815 74.5241 28.7178 74.0746 29.0064C72.2452 30.1807 68.1716 33.0373 67.0382 35.8484C66.0096 38.3998 66.4104 41.1623 66.7476 42.6032C66.9052 42.591 67.0673 42.6165 67.2222 42.6869Z" fill="#FFE97B"/>
<path d="M69.7104 37.6029C70.6421 35.2918 73.5603 32.9508 75.5858 31.5383C75.4621 30.7504 75.3288 30.0554 75.2182 29.5261C75.1045 28.9815 74.5244 28.7178 74.0748 29.0064C72.2454 30.1807 68.1718 33.0373 67.0384 35.8484C66.0098 38.3998 66.4106 41.1623 66.7479 42.6032C66.9053 42.591 67.0675 42.6165 67.2224 42.6869L69.2673 43.6164C68.9938 42.0839 68.8376 39.7677 69.7104 37.6029Z" fill="#F4DD45"/>
<path d="M65.5007 45.9331C64.2479 48.0793 62.8419 50.7974 61.3809 53.9134L67.0082 56.4712C68.1231 53.1978 69.0047 50.2413 69.6025 47.7974C69.4757 47.7947 69.3477 47.7675 69.2243 47.7114L65.8206 46.1642C65.697 46.1081 65.59 46.0285 65.5007 45.9331Z" fill="#477B9E"/>
<path d="M64.3866 54.3326C65.6676 51.6006 66.9063 49.1746 68.0365 47.1717L65.8204 46.1644C65.697 46.1083 65.59 46.0286 65.5007 45.9331C64.2479 48.0793 62.8419 50.7974 61.3809 53.9134L64.0225 55.1142C64.1442 54.8513 64.2656 54.5902 64.3866 54.3326Z" fill="#3F6D8E"/>
<path d="M70.6711 44.1221L67.2674 42.575C66.7465 42.3382 66.1434 42.5947 65.9205 43.1478L65.2359 44.846C65.0129 45.3991 65.2544 46.0395 65.7753 46.2762L69.179 47.8233C69.6999 48.0601 70.303 47.8036 70.526 47.2505L71.2106 45.5523C71.4335 44.9992 71.192 44.3588 70.6711 44.1221Z" fill="#DBEDFF"/>
<path d="M67.7751 46.007L68.5102 44.1835C68.6575 43.8183 68.9592 43.5742 69.2998 43.499L67.2674 42.5752C66.7465 42.3385 66.1434 42.5949 65.9205 43.148L65.2359 44.8462C65.0129 45.3994 65.2544 46.0397 65.7753 46.2764L68.0053 47.2901C67.6994 46.9616 67.5934 46.4575 67.7751 46.007Z" fill="#B5DCFF"/>
<path d="M45.4335 39.8334C47.7832 39.8334 49.6949 37.8036 49.6949 35.3086C49.6949 32.8136 47.7832 30.7837 45.4335 30.7837C43.0837 30.7837 41.1721 32.8136 41.1721 35.3086C41.1721 37.8036 43.0837 39.8334 45.4335 39.8334ZM45.4335 32.4635C46.911 32.4635 48.1129 33.7397 48.1129 35.3086C48.1129 36.8773 46.911 38.1536 45.4335 38.1536C43.9561 38.1536 42.7542 36.8773 42.7542 35.3086C42.7542 33.7399 43.9561 32.4635 45.4335 32.4635Z" fill="black"/>
<path d="M43.8658 73.4043C46.5548 73.4043 48.7426 71.0814 48.7426 68.2261C48.7426 65.3708 46.5548 63.0479 43.8658 63.0479C41.1768 63.0479 38.989 65.3708 38.989 68.2261C38.989 71.0814 41.1768 73.4043 43.8658 73.4043ZM43.8658 64.7277C45.6826 64.7277 47.1605 66.2971 47.1605 68.2261C47.1605 70.1551 45.6825 71.7245 43.8658 71.7245C42.0491 71.7245 40.571 70.1551 40.571 68.2261C40.571 66.2971 42.049 64.7277 43.8658 64.7277Z" fill="black"/>
<path d="M36.8815 39.2065C34.0305 39.2065 31.7112 41.6693 31.7112 44.6965C31.7112 47.7236 34.0305 50.1864 36.8815 50.1864C39.7324 50.1864 42.0518 47.7236 42.0518 44.6965C42.0518 41.6693 39.7324 39.2065 36.8815 39.2065ZM36.8815 48.5066C34.9029 48.5066 33.2932 46.7975 33.2932 44.6966C33.2932 42.5957 34.903 40.8865 36.8815 40.8865C38.86 40.8865 40.4697 42.5957 40.4697 44.6966C40.4697 46.7975 38.8601 48.5066 36.8815 48.5066Z" fill="black"/>
<path d="M35.4008 63.5181C38.2517 63.5181 40.571 61.0554 40.571 58.0282C40.571 55.0011 38.2517 52.5383 35.4008 52.5383C32.5498 52.5383 30.2305 55.0011 30.2305 58.0282C30.2305 61.0554 32.5498 63.5181 35.4008 63.5181ZM35.4008 54.218C37.3794 54.218 38.989 55.9272 38.989 58.0281C38.989 60.129 37.3792 61.8382 35.4008 61.8382C33.4223 61.8382 31.8125 60.129 31.8125 58.0281C31.8125 55.9272 33.4222 54.218 35.4008 54.218Z" fill="black"/>
<path d="M40.5541 79.39C40.9833 79.4739 41.3958 79.171 41.4743 78.7146C41.5529 78.2583 41.268 77.8208 40.8383 77.7375C37.8064 77.1497 35.0942 75.5526 32.9948 73.1189C26.8799 66.0302 24.1573 58.3846 24.9027 50.3943C26.5846 32.3617 44.4935 23.3861 61.0095 26.8937C63.2408 27.3675 64.1099 29.2986 64.1758 30.8082C64.2411 32.2983 63.5539 34.2804 61.4026 34.9628C58.623 35.8445 56.4253 37.1313 54.8704 38.7875C51.3069 42.5836 50.9982 48.9885 54.4009 53.3028C56.0811 55.4332 57.1559 58.0165 57.5168 60.7866C55.7256 65.1097 53.8938 70.0053 52.4762 74.5367C50.1986 76.5343 47.3169 77.7448 44.336 77.9515C43.9 77.9818 43.5697 78.3815 43.5981 78.8444C43.6256 79.2887 43.9734 79.6297 44.3868 79.6297C44.4041 79.6297 44.4215 79.6291 44.4391 79.6278C47.0059 79.4498 49.5073 78.6004 51.682 77.1927C51.222 78.8945 51.973 80.6772 53.4835 81.4479C55.0966 82.271 57.0493 81.6188 57.9295 79.9651C59.4527 77.1035 61.1032 73.6303 62.7022 69.921C62.8841 69.4993 62.7093 69.0008 62.3123 68.8077C61.9149 68.6146 61.4456 68.8002 61.2638 69.2219C59.6832 72.8887 58.0539 76.3177 56.5523 79.1386C56.0802 80.0257 55.0334 80.3747 54.1688 79.9339C53.3507 79.5164 52.9474 78.5462 53.2101 77.6269C55.252 70.4747 58.6575 61.7687 61.7771 55.0369L66.0287 56.9694C65.0374 59.8379 63.9082 62.8246 62.756 65.6564C62.5829 66.0823 62.7678 66.5765 63.1689 66.7603C63.5706 66.9443 64.0355 66.7477 64.2086 66.3218C66.3789 60.974 68.8012 54.2942 70.2148 48.6747C70.7172 48.4831 71.0803 48.0972 71.2728 47.6197L71.9574 45.9215C72.1041 45.5576 72.1365 45.1721 72.0725 44.8094C73.3891 43.917 75.2321 42.3251 76.1871 39.9561C77.367 37.0299 76.5829 32.0723 76.0105 29.3777C75.901 28.8614 75.5618 28.4287 75.1035 28.2204C74.6451 28.0121 74.1163 28.05 73.6888 28.3223C71.4575 29.7428 67.538 32.5627 66.3583 35.4887C65.4036 37.8567 65.5906 40.3707 65.8911 41.9983C65.5918 42.2045 65.3566 42.4998 65.213 42.8559L64.5285 44.5541C64.3344 45.0353 64.325 45.5789 64.5398 46.0952C62.4173 49.7884 60.3101 54.2708 58.6102 58.2036C58.0132 56.0152 56.9996 53.9816 55.6139 52.2245C54.287 50.5421 53.6142 48.5702 53.6142 46.3635C53.6142 41.6013 56.387 38.3072 61.8555 36.5725C64.3459 35.7826 65.877 33.4894 65.7562 30.7305C65.6563 28.4486 64.2458 25.8681 61.3198 25.2467C43.9089 21.549 25.1076 31.1567 23.3283 50.2288C22.5367 58.7145 25.3965 66.7977 31.8282 74.2536C34.1626 76.9597 37.1799 78.7359 40.5541 79.39ZM65.7532 47.2093C66.7898 47.6805 67.5812 48.0403 68.6179 48.5114C68.1008 50.5309 67.4002 52.8777 66.5657 55.3861L62.4851 53.5314C63.6187 51.1583 64.7342 49.0001 65.7532 47.2093ZM70.503 45.2603L69.8184 46.9585C69.763 47.0956 69.6184 47.139 69.5099 47.0896L66.1062 45.5425C65.9958 45.4923 65.928 45.3506 65.9826 45.2151L66.6672 43.5168C66.7206 43.3847 66.8617 43.3337 66.9759 43.3857L70.3795 44.9327C70.4892 44.9827 70.5567 45.1272 70.503 45.2603ZM67.8125 36.1497C68.1589 35.2905 69.5014 32.952 74.4742 29.7806C75.7462 35.7906 75.0789 38.4357 74.7326 39.2949C73.9158 41.321 72.2729 42.6966 71.1315 43.4541C71.0892 43.4304 71.0458 43.4085 71.0019 43.3885L67.5982 41.8414H67.5981C67.5541 41.8215 67.5094 41.8034 67.4641 41.7872C67.1926 40.3873 66.9959 38.1755 67.8125 36.1497Z" fill="black"/>
</g>
<path d="M83.5545 4.29102C83.5545 4.29102 84.7572 12.668 94.1091 13.2472C84.7572 13.8264 83.5545 22.2034 83.5545 22.2034C83.5545 22.2034 82.3518 13.8264 73 13.2472C82.3518 12.668 83.5545 4.29102 83.5545 4.29102Z" fill="#0EBED9"/>
<path d="M15.5 86.0508C15.5 86.0508 16.2407 91.5131 22 91.8908C16.2407 92.2684 15.5 97.7308 15.5 97.7308C15.5 97.7308 14.7593 92.2684 9 91.8908C14.7593 91.5131 15.5 86.0508 15.5 86.0508Z" fill="#0EBED9"/>
<defs>
<clipPath id="clip0_582_7">
<rect width="54" height="57.3382" fill="white" transform="translate(23 24.4653)"/>
</clipPath>
</defs>
</svg>
