<svg width="100" height="107" viewBox="0 0 100 107" fill="none" xmlns="http://www.w3.org/2000/svg">
<ellipse cx="50" cy="53.8255" rx="50" ry="53.0909" fill="#DCF1FF"/>
<g clip-path="url(#clip0_582_2)">
<path d="M74.8379 64.1862C74.8379 66.0464 73.7146 67.6276 72.1484 68.2055C71.7361 68.3589 71.292 68.4418 70.8301 68.4418C70.3681 68.4418 69.9241 68.3589 69.5117 68.2055C67.9455 67.6276 66.8223 66.0464 66.8223 64.1862C66.8223 61.8356 68.6163 59.9307 70.8301 59.9307C73.0439 59.9307 74.8379 61.8356 74.8379 64.1862Z" fill="#BFD749"/>
<path d="M71.6738 68.0915C70.1076 67.5136 68.9844 65.9324 68.9844 64.0722C68.9844 62.1943 70.13 60.6019 71.7193 60.0371C71.4331 59.9682 71.1358 59.9307 70.8301 59.9307C68.6163 59.9307 66.8223 61.8356 66.8223 64.1862C66.8223 66.0464 67.9455 67.6276 69.5117 68.2055C69.9241 68.3589 70.3681 68.4418 70.8301 68.4418C71.2748 68.4418 71.7027 68.3643 72.1021 68.2216C71.9562 68.1864 71.813 68.1434 71.6738 68.0915Z" fill="#84C341"/>
<path d="M71.3258 62.259C71.7171 62.9108 71.5357 63.7765 70.9219 64.1908C70.307 64.6063 69.4928 64.4137 69.1015 63.7619L67.7947 61.5815L66.1611 58.8448C67.0133 58.5358 67.77 58.003 68.3806 57.3289L70.0465 60.1245L71.3258 62.259Z" fill="#B3B5BC"/>
<path d="M70.233 63.0451L68.9262 60.8647L67.353 58.2292C66.9834 58.4828 66.5841 58.6915 66.1611 58.8448L67.7947 61.5815L69.1015 63.7619C69.4928 64.4137 70.307 64.6063 70.9219 64.1908C71.1134 64.0616 71.2628 63.8884 71.3658 63.6914C70.9234 63.6984 70.4882 63.4703 70.233 63.0451Z" fill="#9C9FA7"/>
<path d="M39.875 50.4097H30.6992H30.4355V71.2396C30.4355 74.0852 32.6071 76.391 35.2871 76.391C35.903 76.391 36.4916 76.269 37.0337 76.0461C37.5758 75.8244 38.0704 75.5007 38.4986 75.0998L40.1387 72.6877V67.8441V50.4097H39.875Z" fill="#B4E3F5"/>
<path d="M33.9772 71.2396V50.4097H30.6992H30.4355V71.2396C30.4355 74.0852 32.6071 76.391 35.2871 76.391C35.903 76.391 36.4916 76.269 37.0337 76.0461C37.0418 76.0427 37.0497 76.0389 37.0578 76.0356C35.2544 75.2844 33.9772 73.4213 33.9772 71.2396Z" fill="#83D3F0"/>
<path d="M60.549 55.0741L53.6914 55.0876V52.2879L60.5416 52.2744C60.4414 52.7179 60.3887 53.1815 60.3887 53.6575C60.3887 54.1457 60.4446 54.6206 60.549 55.0741Z" fill="#B3B5BC"/>
<path d="M56.2142 52.5472V52.2827L53.6914 52.2876V55.0874L60.549 55.0739C60.4565 54.6723 60.4047 54.2533 60.3934 53.8238L57.4242 53.8296C56.7563 53.831 56.2142 53.2563 56.2142 52.5472Z" fill="#9C9FA7"/>
<path d="M76.209 77.6263V79.6354C76.209 80.3174 75.688 80.8707 75.0457 80.8707H24.9543C24.312 80.8707 23.791 80.3174 23.791 79.6354V77.6263C23.791 76.9443 24.312 76.3911 24.9543 76.3911H35.2871H58.8541H75.0457C75.688 76.3911 76.209 76.9443 76.209 77.6263Z" fill="#BB7A58"/>
<path d="M27.5911 78.6309C26.9487 78.6309 26.4277 78.0777 26.4277 77.3957V76.3911H24.9543C24.312 76.3911 23.791 76.9443 23.791 77.6263V79.6354C23.791 80.3174 24.312 80.8707 24.9543 80.8707H75.0457C75.688 80.8707 76.209 80.3174 76.209 79.6354V78.6309H27.5911V78.6309Z" fill="#AA624F"/>
<path d="M41.2988 50.0177C41.2988 50.4354 41.1396 50.8128 40.8822 51.0872C40.6238 51.3605 40.2684 51.5296 39.875 51.5296H30.6992C29.9124 51.5296 29.2754 50.8531 29.2754 50.0177C29.2754 49.6 29.4346 49.2226 29.692 48.9482C29.9504 48.675 30.3058 48.5059 30.6992 48.5059H39.875C40.6618 48.5059 41.2988 49.1823 41.2988 50.0177Z" fill="#4CB8E9"/>
<path d="M33.3201 50.0177C33.3201 49.6 33.4794 49.2226 33.7367 48.9482C33.9951 48.675 34.3505 48.5059 34.7439 48.5059H30.6992C30.3058 48.5059 29.9504 48.675 29.692 48.9482C29.4346 49.2226 29.2754 49.6 29.2754 50.0177C29.2754 50.8531 29.9124 51.5296 30.6992 51.5296H34.7439C33.9571 51.5296 33.3201 50.8531 33.3201 50.0177Z" fill="#0AA5DC"/>
<path d="M33.0723 42.1224C34.412 42.1224 35.498 40.9692 35.498 39.5467C35.498 38.1241 34.412 36.9709 33.0723 36.9709C31.7325 36.9709 30.6465 38.1241 30.6465 39.5467C30.6465 40.9692 31.7325 42.1224 33.0723 42.1224Z" fill="#EF5227"/>
<path d="M32.3182 39.5467C32.3182 38.4363 32.9803 37.4898 33.9081 37.1281C33.6475 37.0265 33.366 36.9709 33.0723 36.9709C31.7328 36.9709 30.6465 38.1244 30.6465 39.5467C30.6465 40.9689 31.7328 42.1224 33.0723 42.1224C33.366 42.1224 33.6475 42.0669 33.9081 41.9653C32.9803 41.6036 32.3182 40.6571 32.3182 39.5467Z" fill="#E43A26"/>
<path d="M44.3574 26.78C46.5712 26.78 48.3652 28.685 48.3652 31.0356C48.3652 33.3862 46.5712 35.2912 44.3574 35.2912C42.1436 35.2912 40.3496 33.3862 40.3496 31.0356C40.3496 28.685 42.1436 26.78 44.3574 26.78Z" fill="#BFD749"/>
<path d="M43.1973 31.0356C43.1973 29.2176 44.2708 27.6671 45.7812 27.0573C45.3387 26.8787 44.859 26.78 44.3574 26.78C42.1436 26.78 40.3496 28.685 40.3496 31.0356C40.3496 33.3862 42.1436 35.2912 44.3574 35.2912C44.859 35.2912 45.3387 35.1925 45.7812 35.0139C44.2708 34.4041 43.1973 32.8536 43.1973 31.0356Z" fill="#84C341"/>
<path d="M55.1152 35.1792C55.8142 35.1792 56.3809 34.5775 56.3809 33.8353C56.3809 33.0931 55.8142 32.4915 55.1152 32.4915C54.4162 32.4915 53.8496 33.0931 53.8496 33.8353C53.8496 34.5775 54.4162 35.1792 55.1152 35.1792Z" fill="#BFD749"/>
<path d="M54.9486 33.8353C54.9486 33.3023 55.2413 32.8433 55.6647 32.6261C55.4984 32.5407 55.3125 32.4915 55.1152 32.4915C54.416 32.4915 53.8496 33.0928 53.8496 33.8353C53.8496 34.5778 54.416 35.1792 55.1152 35.1792C55.3125 35.1792 55.4984 35.1299 55.6647 35.0446C55.2413 34.8273 54.9486 34.3684 54.9486 33.8353Z" fill="#84C341"/>
<path d="M37.502 60.3257V71.1817C37.502 72.4553 36.571 73.5414 35.3724 73.5894C34.1124 73.6401 33.0723 72.5664 33.0723 71.2395V60.3257C33.0723 60.2301 33.1452 60.1526 33.2353 60.1526H37.3388C37.429 60.1526 37.502 60.2301 37.502 60.3257Z" fill="#EF5227"/>
<path d="M33.9772 71.2395V60.1526H33.2353C33.1452 60.1526 33.0723 60.2301 33.0723 60.3257V71.2395C33.0723 72.2123 33.6318 73.0484 34.4268 73.4058C34.1387 72.7473 33.9772 72.0136 33.9772 71.2395Z" fill="#E43A26"/>
<path d="M61.6195 70.7167L54.9106 60.3779C54.6659 60.0016 54.5351 59.5559 54.5351 59.099V55.0876V52.2879V41.4675H45.3593V59.099C45.3593 59.5559 45.2286 60.0016 44.9839 60.3779L40.1386 67.8442L38.275 70.7167C37.3342 72.1658 37.562 73.9386 38.4986 75.1C39.0966 75.8424 39.9836 76.3352 41.0404 76.3352H58.8541C61.5646 76.3352 63.1614 73.092 61.6195 70.7167Z" fill="#A3DCEF"/>
<path d="M42.4008 75.1C41.4643 73.9386 41.2365 72.1658 42.1773 70.7167L44.0409 67.8442L48.8861 60.3779C49.1308 60.0016 49.2616 59.5559 49.2616 59.099V41.4675H45.3594V59.099C45.3594 59.5559 45.2286 60.0016 44.9839 60.3779L40.1386 67.8442L38.275 70.7167C37.3342 72.1658 37.562 73.9386 38.4986 75.1C39.0966 75.8424 39.9836 76.3352 41.0404 76.3352H44.9426C43.8858 76.3352 42.9989 75.8424 42.4008 75.1Z" fill="#83D3F0"/>
<path d="M49.5254 46.7141C50.4577 46.7141 51.2129 47.5159 51.2129 48.5059C51.2129 49.4959 50.4577 50.2977 49.5254 50.2977C48.593 50.2977 47.8379 49.4959 47.8379 48.5059C47.8379 47.5159 48.593 46.7141 49.5254 46.7141Z" fill="#BFD749"/>
<path d="M50.3691 60.4885C51.6506 60.4885 52.6895 59.3855 52.6895 58.0248C52.6895 56.6641 51.6506 55.561 50.3691 55.561C49.0877 55.561 48.0488 56.6641 48.0488 58.0248C48.0488 59.3855 49.0877 60.4885 50.3691 60.4885Z" fill="#BFD749"/>
<path d="M49.328 48.3939C49.328 47.7339 49.6647 47.1589 50.1648 46.848C49.9675 46.7623 49.7519 46.7141 49.5254 46.7141C48.593 46.7141 47.8379 47.5159 47.8379 48.5059C47.8379 49.4959 48.593 50.2977 49.5254 50.2977C49.8361 50.2977 50.1261 50.2071 50.376 50.0518C49.7612 49.7843 49.328 49.1435 49.328 48.3939Z" fill="#84C341"/>
<path d="M49.8945 57.5208C49.8945 56.7426 50.2348 56.0491 50.7655 55.5975C50.6366 55.574 50.5044 55.561 50.3691 55.561C49.0877 55.561 48.0488 56.6641 48.0488 58.0248C48.0488 59.3854 49.0877 60.4885 50.3691 60.4885C50.9177 60.4885 51.4214 60.2859 51.8185 59.9481C50.7259 59.7483 49.8945 58.7379 49.8945 57.5208Z" fill="#84C341"/>
<path d="M59.0166 72.533C59.0472 72.58 59.0851 72.6383 59.0292 72.7503C58.9733 72.8634 58.9069 72.8634 58.8542 72.8634H41.0405C40.9878 72.8634 40.9213 72.8634 40.8654 72.7503C40.8095 72.6383 40.8475 72.58 40.8781 72.533L46.0313 64.6188C46.2538 64.2761 46.6208 64.0723 47.0132 64.0723H52.8815C53.2738 64.0723 53.6408 64.2761 53.8634 64.6188L59.0166 72.533Z" fill="#BFD749"/>
<path d="M64.6074 59.5928C67.7092 59.5928 70.2236 56.9229 70.2236 53.6294C70.2236 50.3359 67.7092 47.666 64.6074 47.666C61.5057 47.666 58.9912 50.3359 58.9912 53.6294C58.9912 56.9229 61.5057 59.5928 64.6074 59.5928Z" fill="#4CB8E9"/>
<path d="M62.0234 53.6294C62.0234 50.894 63.7586 48.5904 66.1235 47.8876C65.641 47.7443 65.133 47.666 64.6074 47.666C61.5057 47.666 58.9912 50.3359 58.9912 53.6294C58.9912 56.9229 61.5057 59.5928 64.6074 59.5928C65.133 59.5928 65.641 59.5145 66.1235 59.3712C63.7586 58.6685 62.0234 56.3648 62.0234 53.6294Z" fill="#0AA5DC"/>
<path d="M65.9258 47.89V49.5138C65.9258 50.2866 65.3352 50.9137 64.6074 50.9137C63.8797 50.9137 63.2891 50.2866 63.2891 49.5138V47.89V43.1182C63.7014 43.2716 64.1455 43.3545 64.6074 43.3545C65.0694 43.3545 65.5134 43.2716 65.9258 43.1182V47.89Z" fill="#B3B5BC"/>
<path d="M64.43 49.5138V47.89V43.3502C64.0318 43.3318 63.6484 43.2518 63.2891 43.1182V47.89V49.5138C63.2891 50.2866 63.8797 50.9137 64.6074 50.9137C64.812 50.9137 65.005 50.8626 65.1779 50.7743C64.736 50.548 64.43 50.0693 64.43 49.5138Z" fill="#9C9FA7"/>
<path d="M68.6152 39.9946C68.6152 41.8547 67.492 43.436 65.9258 44.0139C65.5134 44.1673 65.0694 44.2501 64.6074 44.2501C64.1455 44.2501 63.7014 44.1673 63.2891 44.0139C61.7229 43.436 60.5996 41.8547 60.5996 39.9946C60.5996 37.6439 62.3936 35.739 64.6074 35.739C66.8212 35.739 68.6152 37.6439 68.6152 39.9946Z" fill="#EF5227"/>
<path d="M63.2891 39.9946C63.2891 38.145 64.4002 36.572 65.9521 35.9852C65.5317 35.8263 65.0793 35.739 64.6074 35.739C62.3936 35.739 60.5996 37.6439 60.5996 39.9946C60.5996 41.8547 61.7229 43.436 63.2891 44.0139C63.7014 44.1673 64.1455 44.2501 64.6074 44.2501C65.0694 44.2501 65.5134 44.1673 65.9258 44.0139C65.9346 44.0106 65.9433 44.0068 65.9521 44.0036C64.3999 43.4176 63.2891 41.8442 63.2891 39.9946Z" fill="#E43A26"/>
<path d="M56.2142 40.7787V40.9635C56.2142 41.7989 55.5772 42.4753 54.7904 42.4753H54.5351H45.3594H45.1041C44.3173 42.4753 43.6803 41.7989 43.6803 40.9635V40.7787C43.6803 39.9433 44.3173 39.2668 45.1041 39.2668H54.7904C55.5772 39.2668 56.2142 39.9433 56.2142 40.7787Z" fill="#4CB8E9"/>
<path d="M48.3652 40.9635V40.7787C48.3652 39.9433 49.0023 39.2668 49.789 39.2668H45.1041C44.3173 39.2668 43.6803 39.9433 43.6803 40.7787V40.9635C43.6803 41.7989 44.3173 42.4753 45.1041 42.4753H45.3594H49.789C49.0023 42.4753 48.3652 41.7989 48.3652 40.9635Z" fill="#0AA5DC"/>
<path d="M45.7344 68.3544L47.8687 64.0723H47.0132C46.6209 64.0723 46.2538 64.2761 46.0313 64.6188L40.8781 72.533C40.8475 72.58 40.8095 72.6383 40.8654 72.7503C40.9213 72.8634 40.9878 72.8634 41.0405 72.8634H51.0155C49.7183 72.4134 48.1745 71.8853 46.9246 71.4594C45.7038 71.0434 45.1347 69.5575 45.7344 68.3544Z" fill="#84C341"/>
<path d="M45.3804 64.1413L40.2272 72.0554C39.931 72.5102 40.0609 72.9306 40.1646 73.1405C40.2683 73.3507 40.5201 73.7032 41.0407 73.7032H58.854C59.3747 73.7032 59.6263 73.3507 59.73 73.1408C59.8338 72.9307 59.9636 72.5102 59.6676 72.0557L54.5144 64.1413C54.1439 63.5722 53.5335 63.2324 52.8819 63.2324H47.0129C46.3612 63.2324 45.7509 63.5722 45.3804 64.1413ZM53.2131 65.0966L57.7234 72.0235H42.1714L46.6816 65.0966C46.7568 64.9811 46.8807 64.9123 47.0128 64.9123H52.8818C53.0141 64.9123 53.1379 64.9812 53.2131 65.0966Z" fill="black"/>
<path d="M50.3691 54.7212C48.6536 54.7212 47.2578 56.2032 47.2578 58.0249C47.2578 59.8465 48.6536 61.3285 50.3691 61.3285C52.0847 61.3285 53.4805 59.8465 53.4805 58.0249C53.4805 56.2032 52.0847 54.7212 50.3691 54.7212ZM50.3691 59.6487C49.5259 59.6487 48.8398 58.9202 48.8398 58.0249C48.8398 57.1295 49.5259 56.401 50.3691 56.401C51.2124 56.401 51.8984 57.1295 51.8984 58.0249C51.8984 58.9202 51.2124 59.6487 50.3691 59.6487Z" fill="black"/>
<path d="M49.5254 51.1377C50.8921 51.1377 52.0039 49.9571 52.0039 48.506C52.0039 47.0549 50.8921 45.8743 49.5254 45.8743C48.1587 45.8743 47.0469 47.0549 47.0469 48.506C47.0469 49.9571 48.1587 51.1377 49.5254 51.1377ZM49.5254 47.5541C50.0197 47.5541 50.4219 47.9811 50.4219 48.506C50.4219 49.0309 50.0197 49.4579 49.5254 49.4579C49.0311 49.4579 48.6289 49.0309 48.6289 48.506C48.6289 47.9811 49.0311 47.5541 49.5254 47.5541Z" fill="black"/>
<path d="M75.0461 75.551H62.0749C62.245 75.3257 62.3971 75.0795 62.5284 74.814C63.2518 73.3518 63.1531 71.5991 62.2709 70.2394L55.5619 59.9015C55.4081 59.6644 55.3268 59.3867 55.3268 59.0983V55.925L58.591 55.9152C59.4687 58.5443 61.8342 60.4326 64.6074 60.4326C65.1076 60.4326 65.5945 60.3711 66.0617 60.255L66.8424 61.5574C66.3845 62.3422 66.1367 63.2551 66.1367 64.1842C66.1367 66.9322 68.2421 69.1677 70.8301 69.1677C73.4181 69.1677 75.5234 66.9322 75.5234 64.1842C75.5234 61.4362 73.4181 59.2007 70.8301 59.2007C70.7001 59.2007 70.5702 59.2065 70.4408 59.2178L69.619 57.8466C70.4761 56.6931 70.9883 55.2374 70.9883 53.6573C70.9883 50.7435 69.2608 48.2019 66.7168 47.262V44.571C68.3083 43.7406 69.4062 42.0013 69.4062 39.9947C69.4062 37.185 67.2535 34.8992 64.6074 34.8992C61.9613 34.8992 59.8086 37.185 59.8086 39.9947C59.8086 42.0012 60.9065 43.7404 62.498 44.571V47.262C60.6303 47.952 59.2027 49.5055 58.5758 51.4357L55.3267 51.4455V49.1433C55.3267 48.6795 54.9725 48.3034 54.5357 48.3034C54.0988 48.3034 53.7447 48.6795 53.7447 49.1433V59.0983C53.7447 59.7286 53.9226 60.336 54.2591 60.8548L60.9681 71.1927C61.5241 72.0495 61.5838 73.1113 61.1279 74.0329C60.6749 74.9485 59.8248 75.4952 58.8539 75.4952H41.0406C40.2918 75.4952 39.615 75.1699 39.1367 74.6012C39.1227 74.581 39.1078 74.5613 39.0919 74.5421C39.082 74.5303 39.0719 74.5187 39.0614 74.5076C38.9505 74.3632 38.8516 74.2045 38.7667 74.0329C38.3107 73.1113 38.3705 72.0495 38.9265 71.1928L40.79 68.3213C40.7918 68.3186 40.7936 68.3158 40.7953 68.3131L45.6355 60.8548C45.972 60.3362 46.15 59.7287 46.15 59.0985V43.315H53.7448V45.7836C53.7448 46.2474 54.0989 46.6235 54.5358 46.6235C54.9726 46.6235 55.3268 46.2474 55.3268 45.7836V43.2452C56.2898 42.99 57.0056 42.0638 57.0056 40.9631V40.7786C57.0056 39.4817 56.012 38.4268 54.7907 38.4268H45.1041C43.8828 38.4268 42.8893 39.4817 42.8893 40.7786V40.9632C42.8893 42.0638 43.6049 42.9901 44.568 43.2453V59.0982C44.568 59.3866 44.4867 59.6643 44.333 59.9014L40.9297 65.1452V52.0853C41.6202 51.6866 42.0898 50.9093 42.0898 50.0176C42.0898 48.7208 41.0963 47.6659 39.875 47.6659H30.6992C29.4779 47.6659 28.4844 48.7208 28.4844 50.0176C28.4844 50.9093 28.954 51.6866 29.6445 52.0853V64.7441C29.6445 65.208 29.9987 65.5841 30.4355 65.5841C30.8724 65.5841 31.2266 65.208 31.2266 64.7441V52.3694H39.3477V67.5829L38.293 69.2081V60.1526C38.293 59.6887 37.9388 59.3127 37.502 59.3127H33.0723C32.6354 59.3127 32.2812 59.6887 32.2812 60.1526V71.2395C32.2812 72.9994 33.6297 74.4312 35.2871 74.4312C35.9302 74.4312 36.5266 74.2156 37.016 73.849C37.0958 74.1794 37.2123 74.5033 37.3661 74.814C37.3821 74.8465 37.3986 74.8788 37.4153 74.9106C36.7792 75.3271 36.0436 75.551 35.2871 75.551C33.0481 75.551 31.2266 73.6169 31.2266 71.2395V68.1038C31.2266 67.6399 30.8724 67.2639 30.4355 67.2639C29.9987 67.2639 29.6445 67.6399 29.6445 68.1038V71.2395C29.6445 72.9307 30.3079 74.4606 31.373 75.551H24.9539C23.8766 75.551 23 76.4818 23 77.6257V79.6357C23 80.7797 23.8766 81.7104 24.9539 81.7104H75.0461C76.1234 81.7104 77 80.7797 77 79.6357V77.6257C77 76.4818 76.1234 75.551 75.0461 75.551ZM68.4654 59.0506L69.3718 60.5628C69.3762 60.5705 69.3808 60.5782 69.3855 60.5857L70.6586 62.7098C70.7342 62.8359 70.7591 62.9858 70.7285 63.1318C70.6979 63.2779 70.6157 63.4025 70.4968 63.4828C70.378 63.5632 70.2369 63.5893 70.0993 63.5571C69.9618 63.5246 69.8444 63.4372 69.7687 63.311L68.4701 61.1445C68.4643 61.1344 68.4584 61.1244 68.4522 61.1146L67.5764 59.6534C67.8889 59.4783 68.1861 59.2764 68.4654 59.0506ZM73.9414 64.1842C73.9414 66.0059 72.5457 67.4879 70.8301 67.4879C69.1144 67.4879 67.7188 66.0059 67.7188 64.1842C67.7188 63.8573 67.7625 63.5389 67.8481 63.2351L68.4342 64.213C68.7367 64.7177 69.2063 65.0671 69.7563 65.1969C69.9099 65.2332 70.0644 65.251 70.2179 65.251C70.6145 65.251 71.0037 65.1315 71.3465 64.8999C71.8218 64.5786 72.1508 64.0802 72.273 63.4961C72.3952 62.9121 72.2959 62.3125 71.9933 61.8078L71.481 60.9532C72.8852 61.2719 73.9414 62.5996 73.9414 64.1842ZM61.3906 39.9947C61.3906 38.1112 62.8336 36.579 64.6074 36.579C66.3812 36.579 67.8242 38.1112 67.8242 39.9947C67.8242 41.4776 66.9296 42.7427 65.6834 43.2138C65.6711 43.218 65.6587 43.2225 65.6467 43.2274C65.3206 43.3459 64.971 43.4103 64.6075 43.4103C64.2441 43.4103 63.8945 43.3459 63.5683 43.2274C63.5562 43.2226 63.544 43.218 63.5316 43.2138C62.2852 42.7427 61.3906 41.4776 61.3906 39.9947ZM64.6074 45.0901C64.7857 45.0901 64.9616 45.0797 65.1348 45.0595V47.8743C65.1346 47.8851 65.1346 47.896 65.1348 47.9068V49.5137C65.1348 49.8224 64.8982 50.0736 64.6074 50.0736C64.3166 50.0736 64.0801 49.8224 64.0801 49.5137V47.9068C64.0803 47.8959 64.0803 47.8851 64.0801 47.8743V45.0595C64.2533 45.0797 64.4292 45.0901 64.6074 45.0901ZM62.498 49.0782V49.5137C62.498 50.7487 63.4443 51.7535 64.6074 51.7535C65.7705 51.7535 66.7168 50.7487 66.7168 49.5137V49.0782C68.34 49.9161 69.4062 51.6718 69.4062 53.6573C69.4062 55.881 68.0577 57.7765 66.1833 58.4704C66.1652 58.4762 66.1472 58.4827 66.1293 58.49C65.6509 58.6604 65.1392 58.7527 64.6074 58.7527C62.3658 58.7527 60.4783 57.1123 59.9536 54.9027C59.9496 54.8822 59.945 54.8619 59.9396 54.842C59.8539 54.4617 59.8086 54.065 59.8086 53.6573C59.8086 53.2692 59.8493 52.89 59.9269 52.5246C59.9376 52.4882 59.946 52.4508 59.952 52.4125C60.2941 50.9577 61.2247 49.7355 62.498 49.0782ZM58.2466 53.1165C58.2334 53.2951 58.2266 53.4754 58.2266 53.6573C58.2266 53.8524 58.2344 54.0455 58.2497 54.2364L55.3267 54.2452V53.1253L58.2466 53.1165ZM44.4712 40.7786C44.4712 40.408 44.755 40.1066 45.104 40.1066H54.7906C55.1396 40.1066 55.4234 40.408 55.4234 40.7786V40.9632C55.4234 41.3338 55.1396 41.6352 54.7906 41.6352H45.104C44.755 41.6352 44.4712 41.3338 44.4712 40.9632V40.7786ZM30.6992 50.6896C30.3502 50.6896 30.0664 50.3882 30.0664 50.0176C30.0664 49.6471 30.3502 49.3457 30.6992 49.3457H39.875C40.224 49.3457 40.5078 49.6471 40.5078 50.0176C40.5078 50.3882 40.224 50.6896 39.875 50.6896H30.6992ZM36.7109 71.2395C36.7109 72.0731 36.0722 72.7513 35.2871 72.7513C34.502 72.7513 33.8633 72.0731 33.8633 71.2395V60.9925H36.7109V71.2395ZM75.418 79.6357C75.418 79.8534 75.2511 80.0306 75.0461 80.0306H24.9539C24.7489 80.0306 24.582 79.8534 24.582 79.6357V77.6257C24.582 77.408 24.7489 77.2309 24.9539 77.2309H75.0461C75.2511 77.2309 75.418 77.408 75.418 77.6257V79.6357Z" fill="black"/>
<path d="M33.0723 42.9624C34.846 42.9624 36.2891 41.4302 36.2891 39.5468C36.2891 37.6633 34.846 36.1311 33.0723 36.1311C31.2985 36.1311 29.8555 37.6633 29.8555 39.5468C29.8555 41.4302 31.2985 42.9624 33.0723 42.9624ZM33.0723 37.8109C33.9737 37.8109 34.707 38.5896 34.707 39.5468C34.707 40.5039 33.9737 41.2826 33.0723 41.2826C32.1708 41.2826 31.4375 40.5039 31.4375 39.5468C31.4375 38.5896 32.1708 37.8109 33.0723 37.8109Z" fill="black"/>
<path d="M55.1152 36.0192C56.2492 36.0192 57.1719 35.0395 57.1719 33.8354C57.1719 32.6313 56.2492 31.6516 55.1152 31.6516C53.9812 31.6516 53.0586 32.6313 53.0586 33.8354C53.0586 35.0395 53.9812 36.0192 55.1152 36.0192ZM55.1152 33.3314C55.3769 33.3314 55.5898 33.5575 55.5898 33.8354C55.5898 34.1132 55.3769 34.3393 55.1152 34.3393C54.8536 34.3393 54.6406 34.1132 54.6406 33.8354C54.6406 33.5575 54.8536 33.3314 55.1152 33.3314Z" fill="black"/>
<path d="M44.3574 36.1312C47.0035 36.1312 49.1562 33.8454 49.1562 31.0357C49.1562 28.226 47.0035 25.9402 44.3574 25.9402C41.7113 25.9402 39.5586 28.226 39.5586 31.0357C39.5586 33.8454 41.7113 36.1312 44.3574 36.1312ZM44.3574 27.62C46.1312 27.62 47.5742 29.1522 47.5742 31.0357C47.5742 32.9191 46.1312 34.4513 44.3574 34.4513C42.5836 34.4513 41.1406 32.9191 41.1406 31.0357C41.1406 29.1522 42.5836 27.62 44.3574 27.62Z" fill="black"/>
</g>
<path d="M83.5545 4.98193C83.5545 4.98193 84.7572 13.3589 94.1091 13.9381C84.7572 14.5173 83.5545 22.8943 83.5545 22.8943C83.5545 22.8943 82.3518 14.5173 73 13.9381C82.3518 13.3589 83.5545 4.98193 83.5545 4.98193Z" fill="#0EBED9"/>
<path d="M15.5 86.7417C15.5 86.7417 16.2407 92.204 22 92.5817C16.2407 92.9594 15.5 98.4217 15.5 98.4217C15.5 98.4217 14.7593 92.9594 9 92.5817C14.7593 92.204 15.5 86.7417 15.5 86.7417Z" fill="#0EBED9"/>
<defs>
<clipPath id="clip0_582_2">
<rect width="54" height="57.3382" fill="white" transform="translate(23 25.1562)"/>
</clipPath>
</defs>
</svg>
