<svg width="100" height="107" viewBox="0 0 100 107" fill="none" xmlns="http://www.w3.org/2000/svg">
<ellipse cx="50" cy="53.8255" rx="50" ry="53.0909" fill="#DCF1FF"/>
<g clip-path="url(#clip0_582_3)">
<path d="M69.4577 38.6443C68.7236 38.6443 30.7549 38.6443 30.5421 38.6443C28.5151 38.6443 26.866 40.3953 26.866 42.5477V71.8266C26.866 73.7303 28.1945 75.492 29.9625 75.7928H70.0374C71.8053 75.492 73.1339 73.7303 73.1339 71.8266C73.1339 70.8524 73.1339 43.429 73.1339 42.5477C73.1339 40.3953 71.4847 38.6443 69.4577 38.6443Z" fill="#695D67"/>
<path d="M31.1638 71.8266V42.5477C31.1638 40.3954 32.8129 38.6443 34.8399 38.6443C32.2389 38.6443 30.586 38.6443 30.5421 38.6443C28.5151 38.6443 26.866 40.3953 26.866 42.5477V71.8266C26.866 73.7303 28.1945 75.492 29.9625 75.7928H34.2603C32.4924 75.492 31.1638 73.7302 31.1638 71.8266Z" fill="#544E55"/>
<path d="M75.595 75.6804H24.4047C24.0658 75.6804 23.791 75.9751 23.791 76.3385V78.6021C23.791 80.2817 25.0727 81.6559 26.6392 81.6559H73.3606C74.9271 81.6559 76.2088 80.2817 76.2088 78.6021V76.3385C76.2087 75.9751 75.9339 75.6804 75.595 75.6804Z" fill="#DFEBFA"/>
<path d="M75.595 75.6804H24.4047C24.0658 75.6804 23.791 75.9751 23.791 76.3385V78.6021C23.791 80.2817 25.0727 81.6559 26.6392 81.6559H73.3606C74.9271 81.6559 76.2088 80.2817 76.2088 78.6021V76.3385C76.2087 75.9751 75.9339 75.6804 75.595 75.6804Z" fill="#DFEBFA"/>
<path d="M32.647 78.6021V76.3385C32.647 75.9751 32.9218 75.6804 33.2607 75.6804H24.4047C24.0658 75.6804 23.791 75.9751 23.791 76.3385V78.6021C23.791 80.2817 25.0727 81.6559 26.6392 81.6559H35.4953C33.9288 81.656 32.647 80.2817 32.647 78.6021Z" fill="#B1DBFC"/>
<path d="M42.354 75.6804V77.1991C42.354 77.9455 42.9235 78.5562 43.6197 78.5562H56.3797C57.0759 78.5562 57.6454 77.9455 57.6454 77.1991V75.6804" fill="#B1DBFC"/>
<path d="M49.2622 77.1991V75.6804H42.354V77.1991C42.354 77.9455 42.9235 78.5562 43.6197 78.5562H50.5279C49.8318 78.5562 49.2622 77.9455 49.2622 77.1991Z" fill="#8BCAFF"/>
<path d="M69.1717 42.1245C67.7109 42.1245 32.3757 42.1245 30.8277 42.1245C30.4634 42.1245 30.1682 42.4381 30.1682 42.8249V71.5052C30.1682 71.892 30.4635 72.2055 30.8277 72.2055H69.1717C69.5359 72.2055 69.8312 71.892 69.8312 71.5052C69.8312 70.0838 69.8312 43.9589 69.8312 42.8249C69.8312 42.4381 69.5359 42.1245 69.1717 42.1245Z" fill="#8BCAFF"/>
<path d="M34.466 71.5052C34.466 70.6028 34.466 44.6454 34.466 42.8249C34.466 42.4381 34.7613 42.1245 35.1255 42.1245C32.734 42.1245 31.1312 42.1245 30.8277 42.1245C30.4634 42.1245 30.1682 42.4381 30.1682 42.8249V71.5052C30.1682 71.892 30.4635 72.2055 30.8277 72.2055H35.1255C34.7613 72.2055 34.466 71.892 34.466 71.5052Z" fill="#5CB3F8"/>
<path d="M63.011 25.9978H41.7452L35.6047 32.5178V66.1696C35.6047 66.9674 36.2138 67.6141 36.9652 67.6141H63.035C63.7864 67.6141 64.3955 66.9674 64.3955 66.1696V27.4679C64.3955 26.656 63.7756 25.9978 63.011 25.9978Z" fill="#8479C2"/>
<path d="M38.1887 66.0556V29.7742L35.6047 32.5179V66.1696C35.6047 66.9674 36.2138 67.6142 36.9652 67.6142H39.1992C38.6087 67.3735 38.1887 66.7674 38.1887 66.0556Z" fill="#6E60B8"/>
<path d="M35.6047 32.5179H40.3607C41.1254 32.5179 41.7452 31.8597 41.7452 31.0478V25.9978L35.6047 32.5179Z" fill="#6E60B8"/>
<path d="M41.7452 25.9978L35.6047 32.5179H38.1631L41.7452 28.7143V25.9978Z" fill="#6353B2"/>
<path d="M40.1138 47.254H41.4049C41.8419 47.254 42.1959 46.8781 42.1959 46.4141C42.1959 45.9502 41.8419 45.5742 41.4049 45.5742H40.1138C39.6768 45.5742 39.3228 45.9502 39.3228 46.4141C39.3228 46.8781 39.6768 47.254 40.1138 47.254Z" fill="black"/>
<path d="M43.5566 46.4141C43.5566 46.8781 43.9107 47.254 44.3477 47.254H59.8863C60.3232 47.254 60.6773 46.8781 60.6773 46.4141C60.6773 45.9502 60.3232 45.5742 59.8863 45.5742H44.3477C43.9108 45.5742 43.5566 45.9503 43.5566 46.4141Z" fill="black"/>
<path d="M40.1138 50.8839H41.4049C41.8419 50.8839 42.1959 50.508 42.1959 50.044C42.1959 49.58 41.8419 49.2041 41.4049 49.2041H40.1138C39.6768 49.2041 39.3228 49.58 39.3228 50.044C39.3228 50.508 39.6768 50.8839 40.1138 50.8839Z" fill="black"/>
<path d="M59.8863 49.2041H44.3477C43.9107 49.2041 43.5566 49.58 43.5566 50.044C43.5566 50.508 43.9107 50.8839 44.3477 50.8839H59.8863C60.3232 50.8839 60.6773 50.508 60.6773 50.044C60.6773 49.58 60.3232 49.2041 59.8863 49.2041Z" fill="black"/>
<path d="M40.1138 54.5141H41.4049C41.8419 54.5141 42.1959 54.1381 42.1959 53.6741C42.1959 53.2102 41.8419 52.8342 41.4049 52.8342H40.1138C39.6768 52.8342 39.3228 53.2102 39.3228 53.6741C39.3228 54.1381 39.6768 54.5141 40.1138 54.5141Z" fill="black"/>
<path d="M59.8863 52.8342H44.3477C43.9107 52.8342 43.5566 53.2102 43.5566 53.6741C43.5566 54.1381 43.9107 54.514 44.3477 54.514H59.8863C60.3232 54.514 60.6773 54.1381 60.6773 53.6741C60.6773 53.2102 60.3232 52.8342 59.8863 52.8342Z" fill="black"/>
<path d="M40.1138 58.1439H41.4049C41.8419 58.1439 42.1959 57.768 42.1959 57.304C42.1959 56.8401 41.8419 56.4641 41.4049 56.4641H40.1138C39.6768 56.4641 39.3228 56.8401 39.3228 57.304C39.3228 57.768 39.6768 58.1439 40.1138 58.1439Z" fill="black"/>
<path d="M59.8863 56.4641H44.3477C43.9107 56.4641 43.5566 56.8401 43.5566 57.304C43.5566 57.768 43.9107 58.1439 44.3477 58.1439H59.8863C60.3232 58.1439 60.6773 57.768 60.6773 57.304C60.6773 56.8401 60.3232 56.4641 59.8863 56.4641Z" fill="black"/>
<path d="M40.1138 61.7738H41.4049C41.8419 61.7738 42.1959 61.3979 42.1959 60.9339C42.1959 60.4699 41.8419 60.094 41.4049 60.094H40.1138C39.6768 60.094 39.3228 60.4699 39.3228 60.9339C39.3228 61.3979 39.6768 61.7738 40.1138 61.7738Z" fill="black"/>
<path d="M59.8863 60.094H44.3477C43.9107 60.094 43.5566 60.4699 43.5566 60.9339C43.5566 61.3979 43.9107 61.7738 44.3477 61.7738H59.8863C60.3232 61.7738 60.6773 61.3979 60.6773 60.9339C60.6773 60.4699 60.3232 60.094 59.8863 60.094Z" fill="black"/>
<path d="M53.209 42.5034C53.4829 42.8644 53.9807 42.9215 54.3213 42.6306L57.6386 39.7935C57.825 39.634 57.9334 39.3936 57.9334 39.1393C57.9334 38.8851 57.825 38.6447 57.6386 38.4852L54.3213 35.6481C53.9808 35.3568 53.4829 35.4142 53.209 35.7753C52.9349 36.1367 52.9886 36.6653 53.3288 36.9563L55.8814 39.1393L53.3288 41.3223C52.9886 41.6134 52.9349 42.1421 53.209 42.5034Z" fill="black"/>
<path d="M43.8072 39.7931L47.1244 42.6302C47.4652 42.9215 47.9629 42.8639 48.2367 42.503C48.5108 42.1416 48.4571 41.6131 48.1169 41.322L45.5645 39.139L48.1169 36.956C48.4571 36.6649 48.5107 36.1364 48.2367 35.775C47.9627 35.4138 47.4649 35.3567 47.1244 35.6478L43.8072 38.4849C43.6208 38.6443 43.5125 38.8848 43.5125 39.139C43.5125 39.3932 43.6209 39.6337 43.8072 39.7931Z" fill="black"/>
<path d="M49.6112 42.7752C50.0255 42.9181 50.4726 42.678 50.6078 42.2356L52.3424 36.5614C52.4772 36.1203 52.2498 35.6464 51.8343 35.5032C51.4186 35.36 50.9726 35.6014 50.8377 36.0428L49.103 41.717C48.9682 42.1581 49.1956 42.6319 49.6112 42.7752Z" fill="black"/>
<path d="M26.6401 82.4944H48.1552C48.5921 82.4944 48.9462 82.1185 48.9462 81.6545C48.9462 81.1906 48.5921 80.8146 48.1552 80.8146H26.6401C25.5058 80.8146 24.583 79.8215 24.583 78.6006V76.5189H41.5642V77.1976C41.5642 78.409 42.4868 79.3946 43.6209 79.3946H56.3807C57.5148 79.3946 58.4375 78.409 58.4375 77.1976V76.5189H75.4187V78.6006C75.4187 79.8214 74.4959 80.8146 73.3615 80.8146H51.8466C51.4096 80.8146 51.0555 81.1906 51.0555 81.6545C51.0555 82.1185 51.4096 82.4944 51.8466 82.4944H73.3615C75.3681 82.4944 77.0008 80.7476 77.0008 78.6006V76.337C77.0008 75.511 76.3705 74.8391 75.5959 74.8391H72.8913C73.5379 74.0098 73.9258 72.9525 73.9258 71.8248V42.5459C73.9258 39.9306 71.9219 37.8027 69.4588 37.8027H65.1873V27.4662C65.1872 26.1925 64.2113 25.1562 63.0117 25.1562H41.7459C41.5273 25.1562 41.3262 25.254 41.1865 25.4022L35.0459 31.9222C34.9073 32.0696 34.8143 32.2834 34.8143 32.5162V37.8027H30.5429C28.0798 37.8027 26.0758 39.9306 26.0758 42.5459V71.8248C26.0758 72.9525 26.4636 74.0098 27.1103 74.8391H24.4057C23.631 74.8391 23.001 75.511 23.001 76.337V78.6006C23.001 80.7476 24.6334 82.4944 26.6401 82.4944ZM56.8554 77.1976C56.8554 77.4779 56.638 77.7148 56.3807 77.7148H43.6209C43.3637 77.7148 43.1462 77.4779 43.1462 77.1976V76.5189H56.8554V77.1976ZM40.9549 28.0238V31.046C40.9549 31.3935 40.6887 31.6762 40.3613 31.6762H37.515C38.0142 31.1463 40.4563 28.5533 40.9549 28.0238ZM36.3965 33.3561H40.3614C41.561 33.3561 42.537 32.3199 42.537 31.0461V26.8361H63.0118C63.3391 26.8361 63.6053 27.1187 63.6053 27.4662V66.1681C63.6053 66.5015 63.3498 66.7726 63.036 66.7726H36.9659C36.6518 66.7726 36.3965 66.5013 36.3965 66.1681C36.3965 64.9485 36.3965 34.6563 36.3965 33.3561ZM27.6578 42.5459C27.6578 40.8567 28.952 39.4825 30.5429 39.4825H34.8143V41.2832H30.8289C30.029 41.2832 29.3783 41.9741 29.3783 42.8234V71.5037C29.3783 72.353 30.029 73.044 30.8289 73.044H69.1729C69.9727 73.044 70.6234 72.353 70.6234 71.5037V59.4897C70.6234 59.0257 70.2694 58.6498 69.8324 58.6498C69.3955 58.6498 69.0414 59.0257 69.0414 59.4897V71.3642H30.9603V42.963H34.8144V66.1681C34.8144 67.4277 35.7796 68.4524 36.9659 68.4524H63.0359C64.2222 68.4524 65.1872 67.4277 65.1872 66.1681V42.963H69.0413V55.57C69.0413 56.034 69.3954 56.4099 69.8323 56.4099C70.2693 56.4099 70.6233 56.034 70.6233 55.57V42.8234C70.6233 41.9741 69.9726 41.2832 69.1728 41.2832H65.1872V39.4825H69.4586C71.0495 39.4825 72.3437 40.8567 72.3437 42.5459V71.8248C72.3437 73.2925 71.328 74.5772 69.9713 74.8391H30.0302C28.6736 74.5772 27.6578 73.2925 27.6578 71.8248V42.5459Z" fill="black"/>
</g>
<path d="M83.5545 4.98193C83.5545 4.98193 84.7572 13.3589 94.1091 13.9381C84.7572 14.5173 83.5545 22.8943 83.5545 22.8943C83.5545 22.8943 82.3518 14.5173 73 13.9381C82.3518 13.3589 83.5545 4.98193 83.5545 4.98193Z" fill="#0EBED9"/>
<path d="M15.5 86.7417C15.5 86.7417 16.2407 92.204 22 92.5817C16.2407 92.9594 15.5 98.4217 15.5 98.4217C15.5 98.4217 14.7593 92.9594 9 92.5817C14.7593 92.204 15.5 86.7417 15.5 86.7417Z" fill="#0EBED9"/>
<defs>
<clipPath id="clip0_582_3">
<rect width="54" height="57.3382" fill="white" transform="translate(23 25.1562)"/>
</clipPath>
</defs>
</svg>
