<svg width="100" height="107" viewBox="0 0 100 107" fill="none" xmlns="http://www.w3.org/2000/svg">
<ellipse cx="50" cy="53.1346" rx="50" ry="53.0909" fill="#DCF1FF"/>
<g clip-path="url(#clip0_582_5)">
<path d="M73.2559 73.1041V66.0503H71.6524V66.7413H68.047V66.0503H35.9334V66.7413H31.1875V66.0503H25.0566C24.3577 66.0503 23.791 66.652 23.791 67.3942V74.448H71.9902C72.6892 74.448 73.2559 73.8463 73.2559 73.1041Z" fill="#AE6C6C"/>
<path d="M74.9434 66.0503H73.2559V73.1041C73.2559 73.8463 72.6892 74.448 71.9902 74.448H23.791V75.1199C23.791 75.8621 24.3577 76.4638 25.0566 76.4638H31.1875V75.9803H35.9334V76.4638H68.0471V75.9803H71.6525V76.4638H74.9434C75.6423 76.4638 76.209 75.8621 76.209 75.1199V67.3942C76.209 66.6519 75.6423 66.0503 74.9434 66.0503Z" fill="#9B5E5E"/>
<path d="M36.832 49.3386C36.8392 49.3773 36.8473 49.4158 36.8569 49.4535C36.8473 49.4158 36.8391 49.3774 36.832 49.3386Z" fill="#7BACDF"/>
<path d="M71.5408 40.7593C71.5417 40.7604 71.5426 40.7615 71.5435 40.7625C71.5692 40.7722 71.5953 40.7811 71.6208 40.7912C71.5941 40.7806 71.5677 40.7694 71.5408 40.7593Z" fill="#7BACDF"/>
<path d="M64.3782 34.173C35.8313 34.173 37.7625 34.1687 37.5832 34.1794C37.4585 34.4696 37.3873 34.7908 37.3873 35.1299C37.3873 36.3986 38.3593 37.4307 39.5542 37.4307H65.0111V34.8449C65.011 34.4738 64.7277 34.173 64.3782 34.173Z" fill="#F2FBFF"/>
<path d="M68.5939 56.3818H33.582V62.8024H69.5431V57.3897C69.5431 56.8332 69.1181 56.3818 68.5939 56.3818Z" fill="#F2FBFF"/>
<path d="M31.1876 66.0503H35.9335V76.4638H31.1876V66.0503Z" fill="#F2FBFF"/>
<path d="M31.1876 74.4478H35.9335V76.4635H31.1876V74.4478Z" fill="#DFF6FD"/>
<path d="M71.6525 76.4634H68.047V66.0499H71.6525V76.4634Z" fill="#FFF0AD"/>
<path d="M68.0469 74.4478H71.6523V76.4635H68.0469V74.4478Z" fill="#FFE177"/>
<path d="M39.5541 32.8291C38.6787 32.8291 37.9247 33.3842 37.5831 34.1795C37.625 34.177 37.6666 34.173 37.7088 34.173H63.7453C64.0948 34.173 64.3781 34.4738 64.3781 34.8449V37.4307H66.2765V32.8291H39.5541Z" fill="#DFF6FD"/>
<path d="M67.7004 29.8054H39.5541C36.7847 29.8054 34.5396 32.1892 34.5396 35.1299C34.5396 36.4392 34.9854 37.6373 35.7236 38.5646C35.8575 38.6166 35.994 38.6625 36.1328 38.7023C36.2716 38.7422 38.8938 39.3597 38.8946 39.3599H67.0121V37.4307C65.1885 37.4307 40.5711 37.4307 39.6072 37.4307C38.4338 37.4307 37.4331 36.4637 37.3888 35.2186C37.3422 33.9097 38.3315 32.8291 39.5541 32.8291H67.7004C68.4868 32.8291 69.1242 32.1523 69.1242 31.3173C69.1242 30.4823 68.4868 29.8054 67.7004 29.8054Z" fill="#FDB97E"/>
<path d="M67.7004 37.4304H67.0122C66.9843 38.2392 66.3596 38.8863 65.591 38.8863C34.9437 38.8863 36.8923 39.0177 35.7236 38.5643C36.6434 39.7197 38.0177 40.4541 39.554 40.4541H67.7004C68.4868 40.4541 69.1242 39.7772 69.1242 38.9423C69.1242 38.1074 68.4868 37.4304 67.7004 37.4304Z" fill="#FEA95C"/>
<path d="M68.0021 44.6272H39.8893V47.394H69.6629C69.7267 47.1495 69.7403 46.907 69.713 46.6758C69.8389 45.5976 69.0399 44.6272 68.0021 44.6272Z" fill="#F2FBFF"/>
<path d="M69.9005 43.731H39.8893V45.0748H68.0021C69.1261 45.0748 69.9708 46.2128 69.6629 47.3937H69.9005C70.8515 47.3937 71.6253 46.5721 71.6253 45.5623C71.6253 44.5524 70.8515 43.731 69.9005 43.731Z" fill="#DFF6FD"/>
<path d="M73.1817 50.6704H32.6389C28.6588 50.6704 25.3411 54.0322 25.2896 58.2581C25.2657 60.2102 25.9286 61.9963 27.0358 63.3655C27.832 63.8136 27.8674 63.7741 31.1876 64.7812H72.5936V62.8024C70.7734 62.8024 34.6682 62.8024 32.6095 62.8024C30.325 62.8024 28.4027 60.8923 28.3488 58.4673C28.2932 55.9691 30.1908 53.9182 32.531 53.9182H73.1818C74.0264 53.9182 74.7111 53.1912 74.7111 52.2944C74.7111 51.3976 74.0264 50.6704 73.1817 50.6704Z" fill="#F07281"/>
<path d="M73.1816 62.8022H72.5933C72.5141 63.6201 71.8633 64.2581 71.0722 64.2581H30.4215C29.198 64.2581 28.0462 63.9343 27.0356 63.3655C28.3638 65.0081 30.3322 66.0499 32.5309 66.0499H73.1816C74.0262 66.0499 74.7109 65.3229 74.7109 64.4261C74.7109 63.5293 74.0263 62.8022 73.1816 62.8022Z" fill="#EB5569"/>
<path d="M72.5 41.581L71.5407 40.7594L71.541 40.7619C71.0288 40.5643 70.4769 40.4543 69.9004 40.4543H38.3462C37.494 40.4543 36.8032 41.1879 36.8032 42.0927C36.8032 42.9976 37.494 43.7311 38.3462 43.7311H69.8547C70.7905 43.7311 71.5904 44.5023 71.6241 45.4953C71.6593 46.5356 70.8725 47.3938 69.9005 47.3938C68.4584 47.3938 38.6518 47.3938 38.3462 47.3938C37.3819 47.3938 36.6527 48.3249 36.8301 49.3266H36.8295C36.832 49.3413 36.8333 49.3444 36.8302 49.327L38.051 49.9428H67.7827C71.131 49.9428 73.5978 46.7154 73.0671 44.2334L72.5 41.581Z" fill="#7BACDF"/>
<path d="M71.5408 40.7593C72.3301 41.6692 72.8127 42.8838 72.8127 44.2184C72.8127 47.0395 70.6589 49.3264 68.002 49.3264H36.8295C36.9602 50.0905 37.5888 50.6703 38.3462 50.6703H69.9005C72.5573 50.6703 74.7111 48.3834 74.7111 45.5622C74.711 43.3529 73.3899 41.4715 71.5408 40.7593Z" fill="#5F99D7"/>
<path d="M34.2148 53.9182L33.8633 54.2358V55.9342L34.2499 56.3448L34.2171 56.382H68.5938C69.1181 56.382 69.543 56.8332 69.543 57.3899V62.8025H71.6524V53.9182H34.2148Z" fill="#DFF6FD"/>
<path d="M33.9686 56.0835H29.2225L28.5953 56.8546C28.4377 57.335 28.3474 57.8079 28.3474 58.3603C28.3474 60.8098 30.2241 62.8025 32.5309 62.8025H34.2147V56.3819L33.9686 56.0835Z" fill="#8D9CA8"/>
<path d="M29.8587 54.9454C29.2723 55.4637 28.8388 56.1389 28.5952 56.8547C29.1717 56.5525 29.8195 56.382 30.5 56.382H34.2146V53.9182H32.5308C31.5261 53.9181 30.5867 54.3021 29.8587 54.9454Z" fill="#7A8C98"/>
<path d="M38.051 58.0415V67.7517L39.3312 68.8481C39.4863 68.981 39.7385 68.8798 39.7385 68.6843C39.7385 66.5273 39.7385 59.7016 39.7385 58.0416H38.051V58.0415Z" fill="#FFD15B"/>
<path d="M38.0511 67.7517C38.0511 65.0016 38.0511 59.5077 38.0511 58.0415H34.215V68.6838C34.215 68.8793 34.4671 68.981 34.6223 68.8481L36.8119 66.9728C36.9049 66.8932 37.0487 66.8932 37.1416 66.9728L38.0511 67.7517Z" fill="#FFE177"/>
<path d="M75.366 65.257C75.4538 64.9973 75.502 64.7177 75.502 64.4263C75.502 63.0678 74.4612 61.9626 73.1817 61.9626H72.4434V54.7581H73.1817C74.4612 54.7581 75.502 53.6529 75.502 52.2944C75.502 51.1354 74.7443 50.1614 73.7274 49.9C74.8185 48.8141 75.502 47.2718 75.502 45.5624C75.502 42.2827 72.9891 39.6144 69.9004 39.6144H69.8221C69.8821 39.4013 69.9155 39.176 69.9155 38.9425C69.9155 37.6457 68.9219 36.5908 67.7006 36.5908H67.0678V33.669H67.7006C68.9219 33.669 69.9155 32.614 69.9155 31.3172C69.9155 30.0204 68.9219 28.9654 67.7006 28.9654H45.0559C44.6191 28.9654 44.2649 29.3415 44.2649 29.8054C44.2649 30.2692 44.6191 30.6453 45.0559 30.6453H67.7006C68.0496 30.6453 68.3334 30.9467 68.3334 31.3172C68.3334 31.6877 68.0496 31.9891 67.7006 31.9891C66.6604 31.9891 41.8779 31.9891 39.5543 31.9891C39.2995 31.9891 39.052 32.0235 38.8159 32.0881C37.541 32.4372 36.5964 33.6685 36.5964 35.1297C36.5964 36.8501 37.9154 38.2705 39.5543 38.2705H39.6074H67.7005C68.0495 38.2705 68.3333 38.5718 68.3333 38.9424C68.3333 39.313 68.0495 39.6143 67.7005 39.6143H39.5542C37.2253 39.6143 35.3308 37.6026 35.3308 35.1297C35.3308 32.6569 37.2254 30.6452 39.5543 30.6452H41.3645C41.8014 30.6452 42.1556 30.2691 42.1556 29.8052C42.1556 29.3414 41.8014 28.9653 41.3645 28.9653H39.5543C36.3531 28.9653 33.7487 31.7307 33.7487 35.1297C33.7487 37.3881 34.8991 39.3655 36.6095 40.4391C36.2384 40.8781 36.0122 41.4577 36.0122 42.0925C36.0122 43.459 37.0592 44.5707 38.3461 44.5707H39.0981V46.5537H38.3461C37.0592 46.5537 36.0122 47.6654 36.0122 49.032C36.0122 49.3113 36.0566 49.5798 36.1372 49.8304H32.639C28.2071 49.8304 24.5553 53.6061 24.4986 58.2471C24.4704 60.5477 25.2927 62.7158 26.8139 64.3519C27.1054 64.6655 27.4159 64.9515 27.7421 65.2099H25.0566C23.9226 65.2099 23 66.1896 23 67.3937V75.1194C23 76.3235 23.9226 77.3032 25.0566 77.3032H31.1875H35.9334H57.9398C58.3766 77.3032 58.7308 76.9272 58.7308 76.4633C58.7308 75.9994 58.3766 75.6234 57.9398 75.6234H36.7244V68.1264L36.9767 67.9104L38.8344 69.5015C39.5187 70.0872 40.5295 69.5607 40.5295 68.6841V66.8901H67.2561V75.6237H61.6313C61.1945 75.6237 60.8403 75.9998 60.8403 76.4636C60.8403 76.9275 61.1945 77.3035 61.6313 77.3035H74.9435C76.0775 77.3035 77.0001 76.3239 77.0001 75.1198V67.394C77 66.3437 76.2979 65.4646 75.366 65.257ZM39.6074 36.5908C38.8286 36.5908 38.1784 35.9296 38.1784 35.1299C38.1784 34.3244 38.7955 33.669 39.5543 33.669H65.4858V36.5908H39.6074ZM70.8614 61.9626H40.5295V58.0415C40.5295 57.5776 40.1754 57.2016 39.7385 57.2016H35.0059V54.7582H70.8615V61.9626H70.8614ZM37.6382 66.319C37.2519 65.9882 36.6952 65.9933 36.3152 66.319L35.0059 67.4404C35.0059 65.6697 35.0059 60.8784 35.0059 58.8814H38.9475V67.4404L37.6382 66.319ZM29.1534 58.0308C29.3101 56.1897 30.7745 54.7581 32.531 54.7581H33.4238V61.9626H32.6095C30.6377 61.9626 28.9675 60.1943 29.1534 58.0308ZM40.6801 44.5709H69.8546C70.3372 44.5709 70.7483 44.9374 70.8216 45.4087C70.911 46.0148 70.4671 46.5539 69.9004 46.5539H40.6801V44.5709ZM37.5942 49.0321C37.5942 48.5919 37.9315 48.2338 38.3461 48.2338H69.9004C71.3671 48.2338 72.5447 46.8929 72.4044 45.3093C72.2871 43.991 71.2546 42.8912 69.8553 42.8912C67.724 42.8912 38.9189 42.8912 38.346 42.8912C37.9314 42.8912 37.5941 42.5331 37.5941 42.0929C37.5941 41.6526 37.9314 41.2945 38.346 41.2945H69.9003C72.1167 41.2945 73.9199 43.2092 73.9199 45.5626C73.9199 47.916 72.1167 49.8307 69.9003 49.8307H38.3461C37.9315 49.8306 37.5942 49.4725 37.5942 49.0321ZM26.0805 58.2692C26.1261 54.5424 29.0682 51.5104 32.639 51.5104H73.1817C73.5888 51.5104 73.92 51.8621 73.92 52.2944C73.92 52.7266 73.5888 53.0783 73.1817 53.0783C72.9229 53.0783 33.3316 53.0783 32.531 53.0783C29.8583 53.0783 27.6677 55.3286 27.5616 58.1472C27.4548 61.0351 29.5781 63.6423 32.6095 63.6423H33.4238V65.2101C32.2747 65.2101 29.9903 65.3779 27.9396 63.172C26.7182 61.8582 26.058 60.117 26.0805 58.2692ZM24.582 75.1198V67.394C24.582 67.1162 24.795 66.8901 25.0566 66.8901H30.3965V75.6237H25.0566C24.795 75.6237 24.582 75.3976 24.582 75.1198ZM35.1424 75.6237H31.9786V66.8901H33.4239V68.6838C33.4239 69.5472 34.4117 70.1074 35.1424 69.4816V75.6237ZM40.5295 63.6424H73.1818C73.5889 63.6424 73.9201 63.994 73.9201 64.4263C73.9201 64.8586 73.5889 65.2102 73.1818 65.2102C71.8099 65.2102 42.7113 65.2102 40.5295 65.2102V63.6424ZM68.838 66.8901H70.8614V75.6237H68.838V66.8901ZM75.418 75.1198C75.418 75.3976 75.205 75.6237 74.9434 75.6237H72.4434V66.8901H73.1817H74.9434C75.205 66.8901 75.418 67.1162 75.418 67.394V75.1198Z" fill="black"/>
</g>
<path d="M83.5545 4.29102C83.5545 4.29102 84.7572 12.668 94.1091 13.2472C84.7572 13.8264 83.5545 22.2034 83.5545 22.2034C83.5545 22.2034 82.3518 13.8264 73 13.2472C82.3518 12.668 83.5545 4.29102 83.5545 4.29102Z" fill="#0EBED9"/>
<path d="M15.5 86.0508C15.5 86.0508 16.2407 91.5131 22 91.8908C16.2407 92.2684 15.5 97.7308 15.5 97.7308C15.5 97.7308 14.7593 92.2684 9 91.8908C14.7593 91.5131 15.5 86.0508 15.5 86.0508Z" fill="#0EBED9"/>
<defs>
<clipPath id="clip0_582_5">
<rect width="54" height="57.3382" fill="white" transform="translate(23 24.4653)"/>
</clipPath>
</defs>
</svg>
