<svg width="100" height="107" viewBox="0 0 100 107" fill="none" xmlns="http://www.w3.org/2000/svg">
<ellipse cx="50" cy="53.8255" rx="50" ry="53.0909" fill="#DCF1FF"/>
<g clip-path="url(#clip0_582_4)">
<path d="M66.8223 30.2517H33.1777C32.77 30.2517 32.4395 29.9007 32.4395 29.4677V26.78C32.4395 26.3471 32.77 25.9961 33.1777 25.9961H66.8223C67.23 25.9961 67.5605 26.3471 67.5605 26.78V29.4677C67.5605 29.9007 67.23 30.2517 66.8223 30.2517Z" fill="#8B818E"/>
<path d="M66.8223 25.9961H63.6582C64.0659 25.9961 64.3965 26.3471 64.3965 26.78V29.4677C64.3965 29.9007 64.0659 30.2517 63.6582 30.2517H66.8223C67.23 30.2517 67.5605 29.9007 67.5605 29.4677V26.78C67.5605 26.3471 67.23 25.9961 66.8223 25.9961Z" fill="#756E78"/>
<path d="M66.8223 81.6545H33.1777C32.77 81.6545 32.4395 81.3035 32.4395 80.8706V78.1828C32.4395 77.7499 32.77 77.3989 33.1777 77.3989H66.8223C67.23 77.3989 67.5605 77.7499 67.5605 78.1828V80.8706C67.5605 81.3035 67.23 81.6545 66.8223 81.6545Z" fill="#8B818E"/>
<path d="M66.8223 77.3989H63.6582C64.0659 77.3989 64.3965 77.7499 64.3965 78.1828V80.8706C64.3965 81.3035 64.0659 81.6545 63.6582 81.6545H66.8223C67.23 81.6545 67.5605 81.3035 67.5605 80.8706V78.1828C67.5605 77.7499 67.23 77.3989 66.8223 77.3989Z" fill="#756E78"/>
<path d="M35.6687 38.6081V30.2517H64.3313V38.6081C64.3313 47.0124 57.915 53.8253 50 53.8253C42.085 53.8253 35.6687 47.0124 35.6687 38.6081Z" fill="#ECF5FF"/>
<path d="M61.1672 30.2517V38.6081C61.1672 46.4445 55.5884 52.8964 48.418 53.7326C48.9376 53.7932 49.4652 53.8253 50 53.8253C57.915 53.8253 64.3313 47.0124 64.3313 38.6081V30.2517H61.1672Z" fill="#DCEAFC"/>
<path d="M64.3313 69.0424V77.3988H35.6687V69.0424C35.6687 60.6382 42.085 53.8252 50 53.8252C57.915 53.8252 64.3313 60.6382 64.3313 69.0424Z" fill="#ECF5FF"/>
<path d="M50 53.8252C49.4652 53.8252 48.9376 53.8573 48.418 53.9179C55.5884 54.7541 61.1672 61.206 61.1672 69.0424V77.3988H64.3313V69.0424C64.3313 60.6381 57.915 53.8252 50 53.8252Z" fill="#DCEAFC"/>
<path d="M35.6687 77.3988L48.227 68.3771C49.2979 67.6077 50.702 67.6077 51.773 68.3771L64.3313 77.3988H35.6687Z" fill="#F3D9A6"/>
<path d="M50.4371 50.3192C54.7342 50.068 58.0259 46.1655 57.7893 41.6028C57.5527 37.0401 53.8774 33.5449 49.5804 33.7961C45.2833 34.0473 41.9916 37.9498 42.2282 42.5125C42.4647 47.0752 46.14 50.5704 50.4371 50.3192Z" fill="#9DC6FB"/>
<path d="M50 33.7686C49.4579 33.7686 48.9289 33.8277 48.418 33.9396C51.9608 34.7158 54.6243 38.0466 54.6243 42.0384C54.6243 46.0301 51.9608 49.3608 48.418 50.1371C48.9289 50.2491 49.4579 50.3082 50 50.3082C54.3013 50.3082 57.7883 46.6056 57.7883 42.0384C57.7883 37.4711 54.3013 33.7686 50 33.7686Z" fill="#80B4FB"/>
<path d="M57.6742 40.6354C57.0464 36.7367 53.8506 33.7686 49.9998 33.7686C49.4379 33.7686 48.8904 33.8332 48.3623 33.9532C48.5177 34.6174 48.6762 35.3975 48.819 36.318C49.0524 37.8232 49.1503 39.0997 49.8258 39.3306C50.4837 39.5556 51.0184 38.5594 51.9308 38.7475C52.6964 38.9052 52.8037 39.7062 53.4868 40.3023C54.4133 41.1112 56.1562 41.331 57.6742 40.6354Z" fill="#B3E59F"/>
<path d="M57.6745 40.6354C56.9483 36.2386 52.9839 32.9789 48.4238 33.941C51.6125 34.6424 54.0867 37.4136 54.5465 40.8724C55.4671 41.1593 56.6244 41.1166 57.6745 40.6354Z" fill="#95D6A4"/>
<path d="M45.4457 39.2927C45.2014 38.4557 44.5315 37.6767 43.7144 37.157C42.7702 38.5253 42.2117 40.2123 42.2117 42.0385C42.2117 44.2393 43.0229 46.2378 44.3432 47.7195C45.3202 47.0299 46.0204 45.9197 46.0867 44.9241C46.1308 44.2619 45.8581 44.1992 45.6205 42.882C45.2647 40.9096 45.7423 40.3095 45.4457 39.2927Z" fill="#B3E59F"/>
<path d="M47.3582 49.8196C48.1831 50.1354 49.0724 50.3085 50 50.3085C52.3007 50.3085 54.3677 49.2486 55.7934 47.5643C55.2728 46.7446 54.4876 45.9832 54.0436 45.5531C53.4282 44.9569 51.9611 43.5356 51.0563 43.996C50.3489 44.356 50.6944 45.5055 50.0786 46.9949C49.4378 48.5452 48.2307 49.3153 47.3582 49.8196Z" fill="#B3E59F"/>
<path d="M50.5484 50.2856C52.3438 50.1832 54.4024 49.2319 55.7933 47.5642C55.2747 46.7575 54.4542 45.9422 53.9329 45.446C52.9205 47.8193 50.8845 49.5951 48.4221 50.1362C48.6094 50.1761 49.5344 50.3763 50.5484 50.2856Z" fill="#95D6A4"/>
<path d="M50 60.6542C49.5631 60.6542 49.209 61.0302 49.209 61.4941V63.5598C49.209 64.0237 49.5631 64.3998 50 64.3998C50.4369 64.3998 50.791 64.0237 50.791 63.5598V61.4941C50.791 61.0301 50.4369 60.6542 50 60.6542ZM45.1309 73.6838C44.6941 73.6838 44.3399 74.0599 44.3399 74.5238C44.3399 74.9876 44.6941 75.3637 45.1309 75.3637C45.5678 75.3637 45.9219 74.9876 45.9219 74.5238C45.9219 74.0599 45.5678 73.6838 45.1309 73.6838ZM48.1038 71.2519C47.6669 71.2519 47.3128 71.6279 47.3128 72.0918C47.3128 72.5557 47.6669 72.9317 48.1038 72.9317C48.5406 72.9317 48.8948 72.5557 48.8948 72.0918C48.8948 71.6279 48.5406 71.2519 48.1038 71.2519ZM54.8074 59.2804C56.551 60.2527 57.9953 61.7238 58.9841 63.5346C59.2055 63.94 59.6928 64.0693 60.0652 63.84C60.4431 63.6073 60.5719 63.0934 60.3528 62.6922C59.2143 60.6069 57.551 58.9129 55.543 57.7932C55.1559 57.5774 54.678 57.7355 54.4749 58.1463C54.2716 58.557 54.4205 59.0647 54.8074 59.2804ZM65.1223 38.6081V31.0916H66.8223C67.6655 31.0916 68.3516 30.3632 68.3516 29.4678V26.7801C68.3516 25.8847 67.6655 25.1562 66.8223 25.1562H33.1777C32.3345 25.1562 31.6484 25.8847 31.6484 26.7801V29.4678C31.6484 30.3632 32.3345 31.0916 33.1777 31.0916H34.8777V38.6081C34.8777 45.6694 39.1927 51.6806 45.17 53.8253C39.1927 55.97 34.8777 61.9812 34.8777 69.0426V76.559H33.1777C32.3345 76.559 31.6484 77.2875 31.6484 78.1829V80.8706C31.6484 81.7659 32.3345 82.4944 33.1777 82.4944H66.8223C67.6655 82.4944 68.3516 81.7659 68.3516 80.8706V78.1829C68.3516 77.2875 67.6655 76.559 66.8223 76.559H65.1223V69.0426C65.1223 61.9812 60.8073 55.97 54.83 53.8253C60.8073 51.6806 65.1223 45.6694 65.1223 38.6081ZM66.7695 78.2389V80.8146H33.2305V78.2389H66.7695ZM63.5403 69.0426V75.8167L59.1915 72.6926C58.8296 72.4327 58.3379 72.5335 58.093 72.9176C57.8482 73.3018 57.9432 73.8239 58.3049 74.084L61.7506 76.559H38.2494L48.6701 69.0729C49.4779 68.4926 50.522 68.4926 51.3298 69.0729L55.7059 72.2167C56.0676 72.4767 56.5595 72.3759 56.8043 71.9917C57.0491 71.6075 56.9542 71.0854 56.5924 70.8253L52.2163 67.6816C50.8699 66.7143 49.1301 66.7144 47.7838 67.6816L36.4597 75.8165V69.0425C36.4597 61.3968 42.1097 55.1268 49.209 54.6903V58.3478C49.209 58.8116 49.5631 59.1877 50 59.1877C50.4369 59.1877 50.791 58.8116 50.791 58.3478V54.6903C57.8903 55.1269 63.5403 61.3969 63.5403 69.0426ZM50 52.9854C42.5339 52.9854 36.4597 46.5358 36.4597 38.6081V31.0916H40.1023C40.5391 31.0916 40.8933 30.7156 40.8933 30.2517C40.8933 29.7879 40.5391 29.4118 40.1023 29.4118H33.2305V26.8361H66.7695V29.4118H43.8059C43.3691 29.4118 43.0149 29.7879 43.0149 30.2517C43.0149 30.7156 43.3691 31.0916 43.8059 31.0916H63.5404V38.6081C63.5403 46.5358 57.4661 52.9854 50 52.9854ZM50 32.9288C45.3763 32.9288 41.4206 37.1502 41.4206 42.0385C41.4206 47.0084 45.4023 51.1483 50 51.1483C54.6834 51.1483 58.5794 47.023 58.5794 42.0385C58.5794 37.0817 54.7802 32.9288 50 32.9288ZM50 34.6087C53.2208 34.6087 55.9387 36.932 56.7496 40.0827C55.6188 40.3858 54.5311 40.1267 53.9893 39.6537C53.7998 39.4884 53.661 39.282 53.5141 39.0636C53.2201 38.6265 52.8542 38.0824 52.0817 37.9232C51.3202 37.7664 50.7372 38.1158 50.3516 38.3472C50.266 38.3986 50.1466 38.4702 50.0689 38.5051C49.9036 38.2413 49.7712 37.3401 49.6817 36.7296C49.5801 36.0373 49.4602 35.3133 49.3238 34.6439C49.5464 34.6212 49.7719 34.6087 50 34.6087ZM45.2977 44.8648C45.2616 45.4064 44.9323 46.0384 44.446 46.5506C43.5417 45.2986 43.0027 43.7345 43.0027 42.0385C43.0027 40.7012 43.3389 39.4463 43.9237 38.3612C44.299 38.7222 44.5717 39.136 44.6901 39.5415C44.7824 39.8578 44.7629 40.1173 44.7309 40.5471C44.6892 41.1048 44.6323 41.8687 44.8435 43.0399C44.9689 43.7349 45.1048 44.1206 45.2039 44.4023C45.2927 44.6539 45.3086 44.6993 45.2977 44.8648ZM50 49.4684C49.7716 49.4684 49.5459 49.4559 49.3229 49.433C49.8747 48.9253 50.4249 48.2469 50.8029 47.3325C51.1149 46.5781 51.2137 45.8952 51.286 45.3965C51.3194 45.1651 51.3647 44.8535 51.4141 44.7472C51.5103 44.7189 51.9889 44.6995 53.5104 46.1735C53.8149 46.4685 54.3166 46.9546 54.7461 47.4916C53.498 48.7174 51.8303 49.4684 50 49.4684ZM55.7894 46.2066C55.3415 45.674 54.8749 45.2214 54.5768 44.9325C53.7729 44.1538 52.1003 42.5335 50.7146 43.2384C49.9409 43.632 49.8248 44.4339 49.7223 45.1412C49.6569 45.5928 49.5828 46.1047 49.3543 46.6572C48.909 47.7343 48.1231 48.3815 47.298 48.8916C46.6592 48.6066 46.0683 48.2239 45.5422 47.7609C46.3104 46.9598 46.8119 45.9421 46.8757 44.9832C46.9109 44.453 46.7965 44.128 46.6858 43.8137C46.6019 43.5757 46.4976 43.2794 46.3974 42.7239C46.2262 41.7753 46.2697 41.1932 46.308 40.6797C46.3451 40.1827 46.3834 39.6686 46.2012 39.0442C45.9845 38.3016 45.5116 37.5877 44.8625 37.001C45.6518 36.0941 46.6508 35.3971 47.7768 34.9952C47.9071 35.634 48.0214 36.3272 48.1184 36.9882C48.3374 38.4802 48.5265 39.7686 49.5834 40.1301C50.228 40.3505 50.7494 40.0379 51.13 39.8094C51.4503 39.6172 51.6088 39.5367 51.7803 39.5721C51.9106 39.5989 51.9773 39.6689 52.2267 40.0397C52.4081 40.3094 52.6339 40.6451 52.9847 40.9512C53.6972 41.5732 54.6991 41.895 55.7548 41.895C56.1632 41.895 56.5796 41.845 56.9905 41.7475C57.0492 43.3678 56.6001 44.9469 55.7894 46.2066Z" fill="black"/>
</g>
<path d="M83.5545 4.98193C83.5545 4.98193 84.7572 13.3589 94.1091 13.9381C84.7572 14.5173 83.5545 22.8943 83.5545 22.8943C83.5545 22.8943 82.3518 14.5173 73 13.9381C82.3518 13.3589 83.5545 4.98193 83.5545 4.98193Z" fill="#0EBED9"/>
<path d="M15.5 86.7417C15.5 86.7417 16.2407 92.204 22 92.5817C16.2407 92.9594 15.5 98.4217 15.5 98.4217C15.5 98.4217 14.7593 92.9594 9 92.5817C14.7593 92.204 15.5 86.7417 15.5 86.7417Z" fill="#0EBED9"/>
<defs>
<clipPath id="clip0_582_4">
<rect width="54" height="57.3382" fill="white" transform="translate(23 25.1562)"/>
</clipPath>
</defs>
</svg>
